<svg width="9" height="9" viewBox="0 0 9 9" fill="none" xmlns="http://www.w3.org/2000/svg">
<path d="M3.90625 0.65625C3.90625 0.218751 4.125 0 4.5625 0C5 0 5.21875 0.218751 5.21875 0.65625V8.34375C5.21875 8.78125 5 9 4.5625 9C4.125 9 3.90625 8.78125 3.90625 8.34375V0.65625ZM0.65625 5.14583C0.21875 5.14583 0 4.92708 0 4.48958C0 4.05208 0.21875 3.83333 0.65625 3.83333H8.34375C8.78125 3.83333 9 4.05208 9 4.48958C9 4.92708 8.78125 5.14583 8.34375 5.14583H0.65625ZM0.65625 5.14583C0.21875 5.14583 0 4.92708 0 4.48958C0 4.05208 0.21875 3.83333 0.65625 3.83333H8.34375C8.78125 3.83333 9 4.05208 9 4.48958C9 4.92708 8.78125 5.14583 8.34375 5.14583H0.65625Z" fill="#FFED00"/>
</svg>
