<svg width="181" height="60" viewBox="0 0 181 60" fill="none" xmlns="http://www.w3.org/2000/svg">
<rect width="181" height="60" rx="30" fill="url(#paint0_radial_86_37803)"/>
<path d="M31.892 34L35.636 25.6H37.556L41.312 34H39.272L36.2 26.584H36.968L33.884 34H31.892ZM33.764 32.2L34.28 30.724H38.6L39.128 32.2H33.764ZM44.7649 34.096C44.1569 34.096 43.6089 33.96 43.1209 33.688C42.6329 33.408 42.2449 33.02 41.9569 32.524C41.6769 32.028 41.5369 31.444 41.5369 30.772C41.5369 30.092 41.6769 29.504 41.9569 29.008C42.2449 28.512 42.6329 28.128 43.1209 27.856C43.6089 27.584 44.1569 27.448 44.7649 27.448C45.3089 27.448 45.7849 27.568 46.1929 27.808C46.6009 28.048 46.9169 28.412 47.1409 28.9C47.3649 29.388 47.4769 30.012 47.4769 30.772C47.4769 31.524 47.3689 32.148 47.1529 32.644C46.9369 33.132 46.6249 33.496 46.2169 33.736C45.8169 33.976 45.3329 34.096 44.7649 34.096ZM45.0889 32.56C45.3929 32.56 45.6689 32.488 45.9169 32.344C46.1649 32.2 46.3609 31.996 46.5049 31.732C46.6569 31.46 46.7329 31.14 46.7329 30.772C46.7329 30.396 46.6569 30.076 46.5049 29.812C46.3609 29.548 46.1649 29.344 45.9169 29.2C45.6689 29.056 45.3929 28.984 45.0889 28.984C44.7769 28.984 44.4969 29.056 44.2489 29.2C44.0009 29.344 43.8009 29.548 43.6489 29.812C43.5049 30.076 43.4329 30.396 43.4329 30.772C43.4329 31.14 43.5049 31.46 43.6489 31.732C43.8009 31.996 44.0009 32.2 44.2489 32.344C44.4969 32.488 44.7769 32.56 45.0889 32.56ZM46.7809 34V32.68L46.8169 30.76L46.6969 28.852V25.096H48.5689V34H46.7809ZM53.0735 34.096C52.4655 34.096 51.9175 33.96 51.4295 33.688C50.9415 33.408 50.5535 33.02 50.2655 32.524C49.9855 32.028 49.8455 31.444 49.8455 30.772C49.8455 30.092 49.9855 29.504 50.2655 29.008C50.5535 28.512 50.9415 28.128 51.4295 27.856C51.9175 27.584 52.4655 27.448 53.0735 27.448C53.6175 27.448 54.0935 27.568 54.5015 27.808C54.9095 28.048 55.2255 28.412 55.4495 28.9C55.6735 29.388 55.7855 30.012 55.7855 30.772C55.7855 31.524 55.6775 32.148 55.4615 32.644C55.2455 33.132 54.9335 33.496 54.5255 33.736C54.1255 33.976 53.6415 34.096 53.0735 34.096ZM53.3975 32.56C53.7015 32.56 53.9775 32.488 54.2255 32.344C54.4735 32.2 54.6695 31.996 54.8135 31.732C54.9655 31.46 55.0415 31.14 55.0415 30.772C55.0415 30.396 54.9655 30.076 54.8135 29.812C54.6695 29.548 54.4735 29.344 54.2255 29.2C53.9775 29.056 53.7015 28.984 53.3975 28.984C53.0855 28.984 52.8055 29.056 52.5575 29.2C52.3095 29.344 52.1095 29.548 51.9575 29.812C51.8135 30.076 51.7415 30.396 51.7415 30.772C51.7415 31.14 51.8135 31.46 51.9575 31.732C52.1095 31.996 52.3095 32.2 52.5575 32.344C52.8055 32.488 53.0855 32.56 53.3975 32.56ZM55.0895 34V32.68L55.1255 30.76L55.0055 28.852V25.096H56.8775V34H55.0895ZM64.6485 34.096C63.8885 34.096 63.2965 33.904 62.8725 33.52C62.4485 33.128 62.2365 32.548 62.2365 31.78V26.116H64.1085V31.756C64.1085 32.028 64.1805 32.24 64.3245 32.392C64.4685 32.536 64.6645 32.608 64.9125 32.608C65.2085 32.608 65.4605 32.528 65.6685 32.368L66.1725 33.688C65.9805 33.824 65.7485 33.928 65.4765 34C65.2125 34.064 64.9365 34.096 64.6485 34.096ZM61.2405 29.128V27.688H65.7165V29.128H61.2405ZM70.0962 34.096C69.4082 34.096 68.7962 33.952 68.2602 33.664C67.7322 33.376 67.3122 32.984 67.0002 32.488C66.6962 31.984 66.5442 31.412 66.5442 30.772C66.5442 30.124 66.6962 29.552 67.0002 29.056C67.3122 28.552 67.7322 28.16 68.2602 27.88C68.7962 27.592 69.4082 27.448 70.0962 27.448C70.7762 27.448 71.3842 27.592 71.9202 27.88C72.4562 28.16 72.8762 28.548 73.1802 29.044C73.4842 29.54 73.6362 30.116 73.6362 30.772C73.6362 31.412 73.4842 31.984 73.1802 32.488C72.8762 32.984 72.4562 33.376 71.9202 33.664C71.3842 33.952 70.7762 34.096 70.0962 34.096ZM70.0962 32.56C70.4082 32.56 70.6882 32.488 70.9362 32.344C71.1842 32.2 71.3802 31.996 71.5242 31.732C71.6682 31.46 71.7402 31.14 71.7402 30.772C71.7402 30.396 71.6682 30.076 71.5242 29.812C71.3802 29.548 71.1842 29.344 70.9362 29.2C70.6882 29.056 70.4082 28.984 70.0962 28.984C69.7842 28.984 69.5042 29.056 69.2562 29.2C69.0082 29.344 68.8082 29.548 68.6562 29.812C68.5122 30.076 68.4402 30.396 68.4402 30.772C68.4402 31.14 68.5122 31.46 68.6562 31.732C68.8082 31.996 69.0082 32.2 69.2562 32.344C69.5042 32.488 69.7842 32.56 70.0962 32.56ZM81.4059 34.096C80.7099 34.096 80.0899 33.956 79.5459 33.676C79.0019 33.388 78.5739 32.992 78.2619 32.488C77.9579 31.984 77.8059 31.412 77.8059 30.772C77.8059 30.124 77.9579 29.552 78.2619 29.056C78.5739 28.552 79.0019 28.16 79.5459 27.88C80.0899 27.592 80.7099 27.448 81.4059 27.448C82.0859 27.448 82.6779 27.592 83.1819 27.88C83.6859 28.16 84.0579 28.564 84.2979 29.092L82.8459 29.872C82.6779 29.568 82.4659 29.344 82.2099 29.2C81.9619 29.056 81.6899 28.984 81.3939 28.984C81.0739 28.984 80.7859 29.056 80.5299 29.2C80.2739 29.344 80.0699 29.548 79.9179 29.812C79.7739 30.076 79.7019 30.396 79.7019 30.772C79.7019 31.148 79.7739 31.468 79.9179 31.732C80.0699 31.996 80.2739 32.2 80.5299 32.344C80.7859 32.488 81.0739 32.56 81.3939 32.56C81.6899 32.56 81.9619 32.492 82.2099 32.356C82.4659 32.212 82.6779 31.984 82.8459 31.672L84.2979 32.464C84.0579 32.984 83.6859 33.388 83.1819 33.676C82.6779 33.956 82.0859 34.096 81.4059 34.096ZM89.3357 34V32.74L89.2157 32.464V30.208C89.2157 29.808 89.0917 29.496 88.8437 29.272C88.6037 29.048 88.2317 28.936 87.7277 28.936C87.3837 28.936 87.0437 28.992 86.7077 29.104C86.3797 29.208 86.0997 29.352 85.8677 29.536L85.1957 28.228C85.5477 27.98 85.9717 27.788 86.4677 27.652C86.9637 27.516 87.4677 27.448 87.9797 27.448C88.9637 27.448 89.7277 27.68 90.2717 28.144C90.8157 28.608 91.0877 29.332 91.0877 30.316V34H89.3357ZM87.3677 34.096C86.8637 34.096 86.4317 34.012 86.0717 33.844C85.7117 33.668 85.4357 33.432 85.2437 33.136C85.0517 32.84 84.9557 32.508 84.9557 32.14C84.9557 31.756 85.0477 31.42 85.2317 31.132C85.4237 30.844 85.7237 30.62 86.1317 30.46C86.5397 30.292 87.0717 30.208 87.7277 30.208H89.4437V31.3H87.9317C87.4917 31.3 87.1877 31.372 87.0197 31.516C86.8597 31.66 86.7797 31.84 86.7797 32.056C86.7797 32.296 86.8717 32.488 87.0557 32.632C87.2477 32.768 87.5077 32.836 87.8357 32.836C88.1477 32.836 88.4277 32.764 88.6757 32.62C88.9237 32.468 89.1037 32.248 89.2157 31.96L89.5037 32.824C89.3677 33.24 89.1197 33.556 88.7597 33.772C88.3997 33.988 87.9357 34.096 87.3677 34.096ZM92.782 34V25.096H94.654V34H92.782ZM99.5953 34.096C98.8593 34.096 98.2113 33.952 97.6513 33.664C97.0993 33.376 96.6713 32.984 96.3673 32.488C96.0633 31.984 95.9113 31.412 95.9113 30.772C95.9113 30.124 96.0593 29.552 96.3553 29.056C96.6593 28.552 97.0713 28.16 97.5913 27.88C98.1113 27.592 98.6993 27.448 99.3553 27.448C99.9873 27.448 100.555 27.584 101.059 27.856C101.571 28.12 101.975 28.504 102.271 29.008C102.567 29.504 102.715 30.1 102.715 30.796C102.715 30.868 102.711 30.952 102.703 31.048C102.695 31.136 102.687 31.22 102.679 31.3H97.4353V30.208H101.695L100.975 30.532C100.975 30.196 100.907 29.904 100.771 29.656C100.635 29.408 100.447 29.216 100.207 29.08C99.9673 28.936 99.6873 28.864 99.3673 28.864C99.0473 28.864 98.7633 28.936 98.5153 29.08C98.2753 29.216 98.0873 29.412 97.9513 29.668C97.8153 29.916 97.7473 30.212 97.7473 30.556V30.844C97.7473 31.196 97.8233 31.508 97.9753 31.78C98.1353 32.044 98.3553 32.248 98.6353 32.392C98.9233 32.528 99.2593 32.596 99.6433 32.596C99.9873 32.596 100.287 32.544 100.543 32.44C100.807 32.336 101.047 32.18 101.263 31.972L102.259 33.052C101.963 33.388 101.591 33.648 101.143 33.832C100.695 34.008 100.179 34.096 99.5953 34.096ZM107.886 27.448C108.398 27.448 108.854 27.552 109.254 27.76C109.662 27.96 109.982 28.272 110.214 28.696C110.446 29.112 110.562 29.648 110.562 30.304V34H108.69V30.592C108.69 30.072 108.574 29.688 108.342 29.44C108.118 29.192 107.798 29.068 107.382 29.068C107.086 29.068 106.818 29.132 106.578 29.26C106.346 29.38 106.162 29.568 106.026 29.824C105.898 30.08 105.834 30.408 105.834 30.808V34H103.962V27.544H105.75V29.332L105.414 28.792C105.646 28.36 105.978 28.028 106.41 27.796C106.842 27.564 107.334 27.448 107.886 27.448ZM115.077 34.096C114.469 34.096 113.921 33.96 113.433 33.688C112.945 33.408 112.557 33.02 112.269 32.524C111.989 32.028 111.849 31.444 111.849 30.772C111.849 30.092 111.989 29.504 112.269 29.008C112.557 28.512 112.945 28.128 113.433 27.856C113.921 27.584 114.469 27.448 115.077 27.448C115.621 27.448 116.097 27.568 116.505 27.808C116.913 28.048 117.229 28.412 117.453 28.9C117.677 29.388 117.789 30.012 117.789 30.772C117.789 31.524 117.681 32.148 117.465 32.644C117.249 33.132 116.937 33.496 116.529 33.736C116.129 33.976 115.645 34.096 115.077 34.096ZM115.401 32.56C115.705 32.56 115.981 32.488 116.229 32.344C116.477 32.2 116.673 31.996 116.817 31.732C116.969 31.46 117.045 31.14 117.045 30.772C117.045 30.396 116.969 30.076 116.817 29.812C116.673 29.548 116.477 29.344 116.229 29.2C115.981 29.056 115.705 28.984 115.401 28.984C115.089 28.984 114.809 29.056 114.561 29.2C114.313 29.344 114.113 29.548 113.961 29.812C113.817 30.076 113.745 30.396 113.745 30.772C113.745 31.14 113.817 31.46 113.961 31.732C114.113 31.996 114.313 32.2 114.561 32.344C114.809 32.488 115.089 32.56 115.401 32.56ZM117.093 34V32.68L117.129 30.76L117.009 28.852V25.096H118.881V34H117.093ZM124.574 34V32.74L124.454 32.464V30.208C124.454 29.808 124.33 29.496 124.082 29.272C123.842 29.048 123.47 28.936 122.966 28.936C122.622 28.936 122.282 28.992 121.946 29.104C121.618 29.208 121.338 29.352 121.106 29.536L120.434 28.228C120.786 27.98 121.21 27.788 121.706 27.652C122.202 27.516 122.706 27.448 123.218 27.448C124.202 27.448 124.966 27.68 125.51 28.144C126.054 28.608 126.326 29.332 126.326 30.316V34H124.574ZM122.606 34.096C122.102 34.096 121.67 34.012 121.31 33.844C120.95 33.668 120.674 33.432 120.482 33.136C120.29 32.84 120.194 32.508 120.194 32.14C120.194 31.756 120.286 31.42 120.47 31.132C120.662 30.844 120.962 30.62 121.37 30.46C121.778 30.292 122.31 30.208 122.966 30.208H124.682V31.3H123.17C122.73 31.3 122.426 31.372 122.258 31.516C122.098 31.66 122.018 31.84 122.018 32.056C122.018 32.296 122.11 32.488 122.294 32.632C122.486 32.768 122.746 32.836 123.074 32.836C123.386 32.836 123.666 32.764 123.914 32.62C124.162 32.468 124.342 32.248 124.454 31.96L124.742 32.824C124.606 33.24 124.358 33.556 123.998 33.772C123.638 33.988 123.174 34.096 122.606 34.096ZM128.02 34V27.544H129.808V29.368L129.556 28.84C129.748 28.384 130.056 28.04 130.48 27.808C130.904 27.568 131.42 27.448 132.028 27.448V29.176C131.948 29.168 131.876 29.164 131.812 29.164C131.748 29.156 131.68 29.152 131.608 29.152C131.096 29.152 130.68 29.3 130.36 29.596C130.048 29.884 129.892 30.336 129.892 30.952V34H128.02Z" fill="white"/>
<rect x="0.5" y="0.5" width="180" height="59" rx="29.5" stroke="url(#paint1_linear_86_37803)" stroke-opacity="0.5"/>
<defs>
<radialGradient id="paint0_radial_86_37803" cx="0" cy="0" r="1" gradientUnits="userSpaceOnUse" gradientTransform="translate(90.4611 60.2681) scale(78.9143 26.1594)">
<stop stop-color="#41B6E6"/>
<stop offset="0.55" stop-color="#0047BB"/>
<stop offset="1" stop-color="#003399"/>
</radialGradient>
<linearGradient id="paint1_linear_86_37803" x1="90.7887" y1="-0.154936" x2="90.9224" y2="60.2697" gradientUnits="userSpaceOnUse">
<stop stop-color="white" stop-opacity="0.5"/>
<stop offset="0.5" stop-color="white" stop-opacity="0.25"/>
<stop offset="1" stop-color="white" stop-opacity="0"/>
</linearGradient>
</defs>
</svg>
