<svg width="116" height="60" viewBox="0 0 116 60" fill="none" xmlns="http://www.w3.org/2000/svg">
<rect width="116" height="60" rx="30" fill="url(#paint0_radial_86_37629)"/>
<path d="M32.996 25.6H34.94V32.416H39.152V34H32.996V25.6ZM43.1313 34.096C42.4513 34.096 41.8393 33.956 41.2953 33.676C40.7593 33.388 40.3393 32.992 40.0353 32.488C39.7313 31.984 39.5793 31.412 39.5793 30.772C39.5793 30.132 39.7313 29.56 40.0353 29.056C40.3393 28.552 40.7593 28.16 41.2953 27.88C41.8393 27.592 42.4513 27.448 43.1313 27.448C43.8113 27.448 44.4193 27.592 44.9553 27.88C45.4913 28.16 45.9113 28.552 46.2153 29.056C46.5193 29.56 46.6713 30.132 46.6713 30.772C46.6713 31.412 46.5193 31.984 46.2153 32.488C45.9113 32.992 45.4913 33.388 44.9553 33.676C44.4193 33.956 43.8113 34.096 43.1313 34.096ZM43.1313 32.56C43.6113 32.56 44.0033 32.4 44.3073 32.08C44.6193 31.752 44.7753 31.316 44.7753 30.772C44.7753 30.228 44.6193 29.796 44.3073 29.476C44.0033 29.148 43.6113 28.984 43.1313 28.984C42.6513 28.984 42.2553 29.148 41.9433 29.476C41.6313 29.796 41.4753 30.228 41.4753 30.772C41.4753 31.316 41.6313 31.752 41.9433 32.08C42.2553 32.4 42.6513 32.56 43.1313 32.56ZM54.5826 27.544V32.92C54.5826 34.104 54.2746 34.984 53.6586 35.56C53.0426 36.136 52.1426 36.424 50.9586 36.424C50.3346 36.424 49.7426 36.348 49.1826 36.196C48.6226 36.044 48.1586 35.824 47.7906 35.536L48.5346 34.192C48.8066 34.416 49.1506 34.592 49.5666 34.72C49.9826 34.856 50.3986 34.924 50.8146 34.924C51.4626 34.924 51.9386 34.776 52.2426 34.48C52.5546 34.192 52.7106 33.752 52.7106 33.16V32.884C52.2226 33.42 51.5426 33.688 50.6706 33.688C50.0786 33.688 49.5346 33.56 49.0386 33.304C48.5506 33.04 48.1626 32.672 47.8746 32.2C47.5866 31.728 47.4426 31.184 47.4426 30.568C47.4426 29.952 47.5866 29.408 47.8746 28.936C48.1626 28.464 48.5506 28.1 49.0386 27.844C49.5346 27.58 50.0786 27.448 50.6706 27.448C51.6066 27.448 52.3186 27.756 52.8066 28.372V27.544H54.5826ZM51.0426 32.152C51.5386 32.152 51.9426 32.008 52.2546 31.72C52.5746 31.424 52.7346 31.04 52.7346 30.568C52.7346 30.096 52.5746 29.716 52.2546 29.428C51.9426 29.132 51.5386 28.984 51.0426 28.984C50.5466 28.984 50.1386 29.132 49.8186 29.428C49.4986 29.716 49.3386 30.096 49.3386 30.568C49.3386 31.04 49.4986 31.424 49.8186 31.72C50.1386 32.008 50.5466 32.152 51.0426 32.152ZM56.4569 25.6H58.4009V34H56.4569V25.6ZM64.1864 27.448C64.9864 27.448 65.6304 27.688 66.1184 28.168C66.6144 28.648 66.8624 29.36 66.8624 30.304V34H64.9904V30.592C64.9904 30.08 64.8784 29.7 64.6544 29.452C64.4304 29.196 64.1064 29.068 63.6824 29.068C63.2104 29.068 62.8344 29.216 62.5544 29.512C62.2744 29.8 62.1344 30.232 62.1344 30.808V34H60.2624V27.544H62.0504V28.3C62.2984 28.028 62.6064 27.82 62.9744 27.676C63.3424 27.524 63.7464 27.448 64.1864 27.448Z" fill="white"/>
<path d="M82 34.5V33.5C82 32.9696 81.7893 32.4609 81.4142 32.0858C81.0391 31.7107 80.5304 31.5 80 31.5H76C75.4696 31.5 74.9609 31.7107 74.5858 32.0858C74.2107 32.4609 74 32.9696 74 33.5V34.5" stroke="#FFED00" stroke-linecap="round" stroke-linejoin="round"/>
<path d="M78 29.5C79.1046 29.5 80 28.6046 80 27.5C80 26.3954 79.1046 25.5 78 25.5C76.8954 25.5 76 26.3954 76 27.5C76 28.6046 76.8954 29.5 78 29.5Z" stroke="#FFED00" stroke-linecap="round" stroke-linejoin="round"/>
<rect x="0.5" y="0.5" width="115" height="59" rx="29.5" stroke="url(#paint1_linear_86_37629)" stroke-opacity="0.5"/>
<defs>
<radialGradient id="paint0_radial_86_37629" cx="0" cy="0" r="1" gradientUnits="userSpaceOnUse" gradientTransform="translate(57.975 60.2681) scale(50.5749 26.1594)">
<stop stop-color="#41B6E6"/>
<stop offset="0.55" stop-color="#0047BB"/>
<stop offset="1" stop-color="#003399"/>
</radialGradient>
<linearGradient id="paint1_linear_86_37629" x1="58.185" y1="-0.154936" x2="58.3936" y2="60.2693" gradientUnits="userSpaceOnUse">
<stop stop-color="white" stop-opacity="0.5"/>
<stop offset="0.5" stop-color="white" stop-opacity="0.25"/>
<stop offset="1" stop-color="white" stop-opacity="0"/>
</linearGradient>
</defs>
</svg>
