<svg width="184" height="60" viewBox="0 0 184 60" fill="none" xmlns="http://www.w3.org/2000/svg">
<rect width="184" height="60" rx="30" fill="url(#paint0_radial_86_86661)"/>
<path d="M37.016 34.144C36.368 34.144 35.764 34.04 35.204 33.832C34.652 33.616 34.172 33.312 33.764 32.92C33.356 32.528 33.036 32.068 32.804 31.54C32.58 31.012 32.468 30.432 32.468 29.8C32.468 29.168 32.58 28.588 32.804 28.06C33.036 27.532 33.356 27.072 33.764 26.68C34.18 26.288 34.664 25.988 35.216 25.78C35.768 25.564 36.372 25.456 37.028 25.456C37.756 25.456 38.412 25.584 38.996 25.84C39.588 26.088 40.084 26.456 40.484 26.944L39.236 28.096C38.948 27.768 38.628 27.524 38.276 27.364C37.924 27.196 37.54 27.112 37.124 27.112C36.732 27.112 36.372 27.176 36.044 27.304C35.716 27.432 35.432 27.616 35.192 27.856C34.952 28.096 34.764 28.38 34.628 28.708C34.5 29.036 34.436 29.4 34.436 29.8C34.436 30.2 34.5 30.564 34.628 30.892C34.764 31.22 34.952 31.504 35.192 31.744C35.432 31.984 35.716 32.168 36.044 32.296C36.372 32.424 36.732 32.488 37.124 32.488C37.54 32.488 37.924 32.408 38.276 32.248C38.628 32.08 38.948 31.828 39.236 31.492L40.484 32.644C40.084 33.132 39.588 33.504 38.996 33.76C38.412 34.016 37.752 34.144 37.016 34.144ZM45.5888 27.448C46.1008 27.448 46.5568 27.552 46.9568 27.76C47.3648 27.96 47.6848 28.272 47.9168 28.696C48.1488 29.112 48.2648 29.648 48.2648 30.304V34H46.3928V30.592C46.3928 30.072 46.2768 29.688 46.0448 29.44C45.8208 29.192 45.5008 29.068 45.0848 29.068C44.7888 29.068 44.5208 29.132 44.2808 29.26C44.0488 29.38 43.8648 29.568 43.7288 29.824C43.6008 30.08 43.5368 30.408 43.5368 30.808V34H41.6648V25.096H43.5368V29.332L43.1168 28.792C43.3488 28.36 43.6808 28.028 44.1128 27.796C44.5448 27.564 45.0368 27.448 45.5888 27.448ZM53.2125 34.096C52.4765 34.096 51.8285 33.952 51.2685 33.664C50.7165 33.376 50.2885 32.984 49.9845 32.488C49.6805 31.984 49.5285 31.412 49.5285 30.772C49.5285 30.124 49.6765 29.552 49.9725 29.056C50.2765 28.552 50.6885 28.16 51.2085 27.88C51.7285 27.592 52.3165 27.448 52.9725 27.448C53.6045 27.448 54.1725 27.584 54.6765 27.856C55.1885 28.12 55.5925 28.504 55.8885 29.008C56.1845 29.504 56.3325 30.1 56.3325 30.796C56.3325 30.868 56.3285 30.952 56.3205 31.048C56.3125 31.136 56.3045 31.22 56.2965 31.3H51.0525V30.208H55.3125L54.5925 30.532C54.5925 30.196 54.5245 29.904 54.3885 29.656C54.2525 29.408 54.0645 29.216 53.8245 29.08C53.5845 28.936 53.3045 28.864 52.9845 28.864C52.6645 28.864 52.3805 28.936 52.1325 29.08C51.8925 29.216 51.7045 29.412 51.5685 29.668C51.4325 29.916 51.3645 30.212 51.3645 30.556V30.844C51.3645 31.196 51.4405 31.508 51.5925 31.78C51.7525 32.044 51.9725 32.248 52.2525 32.392C52.5405 32.528 52.8765 32.596 53.2605 32.596C53.6045 32.596 53.9045 32.544 54.1605 32.44C54.4245 32.336 54.6645 32.18 54.8805 31.972L55.8765 33.052C55.5805 33.388 55.2085 33.648 54.7605 33.832C54.3125 34.008 53.7965 34.096 53.2125 34.096ZM60.6988 34.096C60.0028 34.096 59.3828 33.956 58.8388 33.676C58.2948 33.388 57.8668 32.992 57.5548 32.488C57.2508 31.984 57.0988 31.412 57.0988 30.772C57.0988 30.124 57.2508 29.552 57.5548 29.056C57.8668 28.552 58.2948 28.16 58.8388 27.88C59.3828 27.592 60.0028 27.448 60.6988 27.448C61.3788 27.448 61.9708 27.592 62.4748 27.88C62.9788 28.16 63.3508 28.564 63.5908 29.092L62.1388 29.872C61.9708 29.568 61.7588 29.344 61.5028 29.2C61.2548 29.056 60.9828 28.984 60.6868 28.984C60.3668 28.984 60.0788 29.056 59.8228 29.2C59.5668 29.344 59.3628 29.548 59.2108 29.812C59.0668 30.076 58.9948 30.396 58.9948 30.772C58.9948 31.148 59.0668 31.468 59.2108 31.732C59.3628 31.996 59.5668 32.2 59.8228 32.344C60.0788 32.488 60.3668 32.56 60.6868 32.56C60.9828 32.56 61.2548 32.492 61.5028 32.356C61.7588 32.212 61.9708 31.984 62.1388 31.672L63.5908 32.464C63.3508 32.984 62.9788 33.388 62.4748 33.676C61.9708 33.956 61.3788 34.096 60.6988 34.096ZM66.1815 32.68L66.2295 30.4L69.2415 27.544H71.4735L68.5815 30.484L67.6095 31.276L66.1815 32.68ZM64.6335 34V25.096H66.5055V34H64.6335ZM69.4455 34L67.2615 31.288L68.4375 29.836L71.7135 34H69.4455ZM79.0258 34.096C78.3378 34.096 77.7258 33.952 77.1898 33.664C76.6618 33.376 76.2418 32.984 75.9298 32.488C75.6258 31.984 75.4738 31.412 75.4738 30.772C75.4738 30.124 75.6258 29.552 75.9298 29.056C76.2418 28.552 76.6618 28.16 77.1898 27.88C77.7258 27.592 78.3378 27.448 79.0258 27.448C79.7058 27.448 80.3138 27.592 80.8498 27.88C81.3858 28.16 81.8058 28.548 82.1098 29.044C82.4138 29.54 82.5658 30.116 82.5658 30.772C82.5658 31.412 82.4138 31.984 82.1098 32.488C81.8058 32.984 81.3858 33.376 80.8498 33.664C80.3138 33.952 79.7058 34.096 79.0258 34.096ZM79.0258 32.56C79.3378 32.56 79.6178 32.488 79.8658 32.344C80.1138 32.2 80.3098 31.996 80.4538 31.732C80.5978 31.46 80.6698 31.14 80.6698 30.772C80.6698 30.396 80.5978 30.076 80.4538 29.812C80.3098 29.548 80.1138 29.344 79.8658 29.2C79.6178 29.056 79.3378 28.984 79.0258 28.984C78.7138 28.984 78.4338 29.056 78.1858 29.2C77.9378 29.344 77.7378 29.548 77.5858 29.812C77.4418 30.076 77.3698 30.396 77.3698 30.772C77.3698 31.14 77.4418 31.46 77.5858 31.732C77.7378 31.996 77.9378 32.2 78.1858 32.344C78.4338 32.488 78.7138 32.56 79.0258 32.56ZM86.5411 34.096C86.0051 34.096 85.5251 33.992 85.1011 33.784C84.6851 33.576 84.3611 33.26 84.1291 32.836C83.8971 32.404 83.7811 31.856 83.7811 31.192V27.544H85.6531V30.916C85.6531 31.452 85.7651 31.848 85.9891 32.104C86.2211 32.352 86.5451 32.476 86.9611 32.476C87.2491 32.476 87.5051 32.416 87.7291 32.296C87.9531 32.168 88.1291 31.976 88.2571 31.72C88.3851 31.456 88.4491 31.128 88.4491 30.736V27.544H90.3211V34H88.5451V32.224L88.8691 32.74C88.6531 33.188 88.3331 33.528 87.9091 33.76C87.4931 33.984 87.0371 34.096 86.5411 34.096ZM92.0554 34V27.544H93.8434V29.368L93.5914 28.84C93.7834 28.384 94.0914 28.04 94.5154 27.808C94.9394 27.568 95.4554 27.448 96.0634 27.448V29.176C95.9834 29.168 95.9114 29.164 95.8474 29.164C95.7834 29.156 95.7154 29.152 95.6434 29.152C95.1314 29.152 94.7154 29.3 94.3954 29.596C94.0834 29.884 93.9274 30.336 93.9274 30.952V34H92.0554ZM103.658 36.424C103.05 36.424 102.462 36.348 101.894 36.196C101.334 36.052 100.866 35.832 100.49 35.536L101.234 34.192C101.506 34.416 101.85 34.592 102.266 34.72C102.69 34.856 103.106 34.924 103.514 34.924C104.178 34.924 104.658 34.776 104.954 34.48C105.258 34.184 105.41 33.744 105.41 33.16V32.188L105.53 30.568L105.506 28.936V27.544H107.282V32.92C107.282 34.12 106.97 35.004 106.346 35.572C105.722 36.14 104.826 36.424 103.658 36.424ZM103.37 33.688C102.77 33.688 102.226 33.56 101.738 33.304C101.258 33.04 100.87 32.676 100.574 32.212C100.286 31.74 100.142 31.192 100.142 30.568C100.142 29.936 100.286 29.388 100.574 28.924C100.87 28.452 101.258 28.088 101.738 27.832C102.226 27.576 102.77 27.448 103.37 27.448C103.914 27.448 104.394 27.56 104.81 27.784C105.226 28 105.55 28.34 105.782 28.804C106.014 29.26 106.13 29.848 106.13 30.568C106.13 31.28 106.014 31.868 105.782 32.332C105.55 32.788 105.226 33.128 104.81 33.352C104.394 33.576 103.914 33.688 103.37 33.688ZM103.742 32.152C104.07 32.152 104.362 32.088 104.618 31.96C104.874 31.824 105.074 31.636 105.218 31.396C105.362 31.156 105.434 30.88 105.434 30.568C105.434 30.248 105.362 29.972 105.218 29.74C105.074 29.5 104.874 29.316 104.618 29.188C104.362 29.052 104.07 28.984 103.742 28.984C103.414 28.984 103.122 29.052 102.866 29.188C102.61 29.316 102.406 29.5 102.254 29.74C102.11 29.972 102.038 30.248 102.038 30.568C102.038 30.88 102.11 31.156 102.254 31.396C102.406 31.636 102.61 31.824 102.866 31.96C103.122 32.088 103.414 32.152 103.742 32.152ZM111.748 34.096C111.212 34.096 110.732 33.992 110.308 33.784C109.892 33.576 109.568 33.26 109.336 32.836C109.104 32.404 108.988 31.856 108.988 31.192V27.544H110.86V30.916C110.86 31.452 110.972 31.848 111.196 32.104C111.428 32.352 111.752 32.476 112.168 32.476C112.456 32.476 112.712 32.416 112.936 32.296C113.16 32.168 113.336 31.976 113.464 31.72C113.592 31.456 113.656 31.128 113.656 30.736V27.544H115.528V34H113.752V32.224L114.076 32.74C113.86 33.188 113.54 33.528 113.116 33.76C112.7 33.984 112.244 34.096 111.748 34.096ZM117.262 34V27.544H119.134V34H117.262ZM118.198 26.644C117.854 26.644 117.574 26.544 117.358 26.344C117.142 26.144 117.034 25.896 117.034 25.6C117.034 25.304 117.142 25.056 117.358 24.856C117.574 24.656 117.854 24.556 118.198 24.556C118.542 24.556 118.822 24.652 119.038 24.844C119.254 25.028 119.362 25.268 119.362 25.564C119.362 25.876 119.254 26.136 119.038 26.344C118.83 26.544 118.55 26.644 118.198 26.644ZM123.644 34.096C123.036 34.096 122.488 33.96 122 33.688C121.512 33.408 121.124 33.02 120.836 32.524C120.556 32.028 120.416 31.444 120.416 30.772C120.416 30.092 120.556 29.504 120.836 29.008C121.124 28.512 121.512 28.128 122 27.856C122.488 27.584 123.036 27.448 123.644 27.448C124.188 27.448 124.664 27.568 125.072 27.808C125.48 28.048 125.796 28.412 126.02 28.9C126.244 29.388 126.356 30.012 126.356 30.772C126.356 31.524 126.248 32.148 126.032 32.644C125.816 33.132 125.504 33.496 125.096 33.736C124.696 33.976 124.212 34.096 123.644 34.096ZM123.968 32.56C124.272 32.56 124.548 32.488 124.796 32.344C125.044 32.2 125.24 31.996 125.384 31.732C125.536 31.46 125.612 31.14 125.612 30.772C125.612 30.396 125.536 30.076 125.384 29.812C125.24 29.548 125.044 29.344 124.796 29.2C124.548 29.056 124.272 28.984 123.968 28.984C123.656 28.984 123.376 29.056 123.128 29.2C122.88 29.344 122.68 29.548 122.528 29.812C122.384 30.076 122.312 30.396 122.312 30.772C122.312 31.14 122.384 31.46 122.528 31.732C122.68 31.996 122.88 32.2 123.128 32.344C123.376 32.488 123.656 32.56 123.968 32.56ZM125.66 34V32.68L125.696 30.76L125.576 28.852V25.096H127.448V34H125.66ZM132.384 34.096C131.648 34.096 131 33.952 130.44 33.664C129.888 33.376 129.46 32.984 129.156 32.488C128.852 31.984 128.7 31.412 128.7 30.772C128.7 30.124 128.848 29.552 129.144 29.056C129.448 28.552 129.86 28.16 130.38 27.88C130.9 27.592 131.488 27.448 132.144 27.448C132.776 27.448 133.344 27.584 133.848 27.856C134.36 28.12 134.764 28.504 135.06 29.008C135.356 29.504 135.504 30.1 135.504 30.796C135.504 30.868 135.5 30.952 135.492 31.048C135.484 31.136 135.476 31.22 135.468 31.3H130.224V30.208H134.484L133.764 30.532C133.764 30.196 133.696 29.904 133.56 29.656C133.424 29.408 133.236 29.216 132.996 29.08C132.756 28.936 132.476 28.864 132.156 28.864C131.836 28.864 131.552 28.936 131.304 29.08C131.064 29.216 130.876 29.412 130.74 29.668C130.604 29.916 130.536 30.212 130.536 30.556V30.844C130.536 31.196 130.612 31.508 130.764 31.78C130.924 32.044 131.144 32.248 131.424 32.392C131.712 32.528 132.048 32.596 132.432 32.596C132.776 32.596 133.076 32.544 133.332 32.44C133.596 32.336 133.836 32.18 134.052 31.972L135.048 33.052C134.752 33.388 134.38 33.648 133.932 33.832C133.484 34.008 132.968 34.096 132.384 34.096Z" fill="white"/>
<rect x="0.5" y="0.5" width="183" height="59" rx="29.5" stroke="url(#paint1_linear_86_86661)" stroke-opacity="0.5"/>
<defs>
<radialGradient id="paint0_radial_86_86661" cx="0" cy="0" r="1" gradientUnits="userSpaceOnUse" gradientTransform="translate(91.9604 60.2681) scale(80.2223 26.1594)">
<stop stop-color="#41B6E6"/>
<stop offset="0.55" stop-color="#0047BB"/>
<stop offset="1" stop-color="#003399"/>
</radialGradient>
<linearGradient id="paint1_linear_86_86661" x1="92.2935" y1="-0.154936" x2="92.425" y2="60.2697" gradientUnits="userSpaceOnUse">
<stop stop-color="white" stop-opacity="0.5"/>
<stop offset="0.5" stop-color="white" stop-opacity="0.25"/>
<stop offset="1" stop-color="white" stop-opacity="0"/>
</linearGradient>
</defs>
</svg>
