<svg width="153" height="60" viewBox="0 0 153 60" fill="none" xmlns="http://www.w3.org/2000/svg">
<rect width="153" height="60" rx="30" fill="url(#paint0_radial_86_37808)"/>
<path d="M34.736 32.08L34.628 29.836L38.648 25.6H40.808L37.184 29.5L36.104 30.652L34.736 32.08ZM32.996 34V25.6H34.928V34H32.996ZM38.744 34L35.756 30.34L37.028 28.96L41.012 34H38.744ZM45.5536 27.448C46.0656 27.448 46.5216 27.552 46.9216 27.76C47.3296 27.96 47.6496 28.272 47.8816 28.696C48.1136 29.112 48.2296 29.648 48.2296 30.304V34H46.3576V30.592C46.3576 30.072 46.2416 29.688 46.0096 29.44C45.7856 29.192 45.4656 29.068 45.0496 29.068C44.7536 29.068 44.4856 29.132 44.2456 29.26C44.0136 29.38 43.8296 29.568 43.6936 29.824C43.5656 30.08 43.5016 30.408 43.5016 30.808V34H41.6296V27.544H43.4176V29.332L43.0816 28.792C43.3136 28.36 43.6456 28.028 44.0776 27.796C44.5096 27.564 45.0016 27.448 45.5536 27.448ZM53.0454 34.096C52.3574 34.096 51.7454 33.952 51.2094 33.664C50.6814 33.376 50.2614 32.984 49.9494 32.488C49.6454 31.984 49.4934 31.412 49.4934 30.772C49.4934 30.124 49.6454 29.552 49.9494 29.056C50.2614 28.552 50.6814 28.16 51.2094 27.88C51.7454 27.592 52.3574 27.448 53.0454 27.448C53.7254 27.448 54.3334 27.592 54.8694 27.88C55.4054 28.16 55.8254 28.548 56.1294 29.044C56.4334 29.54 56.5854 30.116 56.5854 30.772C56.5854 31.412 56.4334 31.984 56.1294 32.488C55.8254 32.984 55.4054 33.376 54.8694 33.664C54.3334 33.952 53.7254 34.096 53.0454 34.096ZM53.0454 32.56C53.3574 32.56 53.6374 32.488 53.8854 32.344C54.1334 32.2 54.3294 31.996 54.4734 31.732C54.6174 31.46 54.6894 31.14 54.6894 30.772C54.6894 30.396 54.6174 30.076 54.4734 29.812C54.3294 29.548 54.1334 29.344 53.8854 29.2C53.6374 29.056 53.3574 28.984 53.0454 28.984C52.7334 28.984 52.4534 29.056 52.2054 29.2C51.9574 29.344 51.7574 29.548 51.6054 29.812C51.4614 30.076 51.3894 30.396 51.3894 30.772C51.3894 31.14 51.4614 31.46 51.6054 31.732C51.7574 31.996 51.9574 32.2 52.2054 32.344C52.4534 32.488 52.7334 32.56 53.0454 32.56ZM59.1369 34L56.8089 27.544H58.5729L60.5049 33.1H59.6649L61.6809 27.544H63.2649L65.2209 33.1H64.3809L66.3729 27.544H68.0289L65.6889 34H63.8769L62.1609 29.236H62.7129L60.9369 34H59.1369ZM80.5656 27.448C81.0776 27.448 81.5296 27.552 81.9216 27.76C82.3216 27.96 82.6336 28.272 82.8576 28.696C83.0896 29.112 83.2056 29.648 83.2056 30.304V34H81.3336V30.592C81.3336 30.072 81.2256 29.688 81.0096 29.44C80.7936 29.192 80.4896 29.068 80.0976 29.068C79.8256 29.068 79.5816 29.132 79.3656 29.26C79.1496 29.38 78.9816 29.564 78.8616 29.812C78.7416 30.06 78.6816 30.376 78.6816 30.76V34H76.8096V30.592C76.8096 30.072 76.7016 29.688 76.4856 29.44C76.2776 29.192 75.9776 29.068 75.5856 29.068C75.3136 29.068 75.0696 29.132 74.8536 29.26C74.6376 29.38 74.4696 29.564 74.3496 29.812C74.2296 30.06 74.1696 30.376 74.1696 30.76V34H72.2976V27.544H74.0856V29.308L73.7496 28.792C73.9736 28.352 74.2896 28.02 74.6976 27.796C75.1136 27.564 75.5856 27.448 76.1136 27.448C76.7056 27.448 77.2216 27.6 77.6616 27.904C78.1096 28.2 78.4056 28.656 78.5496 29.272L77.8896 29.092C78.1056 28.588 78.4496 28.188 78.9216 27.892C79.4016 27.596 79.9496 27.448 80.5656 27.448ZM88.0024 34.096C87.3144 34.096 86.7024 33.952 86.1664 33.664C85.6384 33.376 85.2184 32.984 84.9064 32.488C84.6024 31.984 84.4504 31.412 84.4504 30.772C84.4504 30.124 84.6024 29.552 84.9064 29.056C85.2184 28.552 85.6384 28.16 86.1664 27.88C86.7024 27.592 87.3144 27.448 88.0024 27.448C88.6824 27.448 89.2904 27.592 89.8264 27.88C90.3624 28.16 90.7824 28.548 91.0864 29.044C91.3904 29.54 91.5424 30.116 91.5424 30.772C91.5424 31.412 91.3904 31.984 91.0864 32.488C90.7824 32.984 90.3624 33.376 89.8264 33.664C89.2904 33.952 88.6824 34.096 88.0024 34.096ZM88.0024 32.56C88.3144 32.56 88.5944 32.488 88.8424 32.344C89.0904 32.2 89.2864 31.996 89.4304 31.732C89.5744 31.46 89.6464 31.14 89.6464 30.772C89.6464 30.396 89.5744 30.076 89.4304 29.812C89.2864 29.548 89.0904 29.344 88.8424 29.2C88.5944 29.056 88.3144 28.984 88.0024 28.984C87.6904 28.984 87.4104 29.056 87.1624 29.2C86.9144 29.344 86.7144 29.548 86.5624 29.812C86.4184 30.076 86.3464 30.396 86.3464 30.772C86.3464 31.14 86.4184 31.46 86.5624 31.732C86.7144 31.996 86.9144 32.2 87.1624 32.344C87.4104 32.488 87.6904 32.56 88.0024 32.56ZM92.7937 34V27.544H94.5817V29.368L94.3297 28.84C94.5217 28.384 94.8297 28.04 95.2537 27.808C95.6777 27.568 96.1937 27.448 96.8017 27.448V29.176C96.7217 29.168 96.6497 29.164 96.5857 29.164C96.5217 29.156 96.4537 29.152 96.3817 29.152C95.8697 29.152 95.4537 29.3 95.1337 29.596C94.8217 29.884 94.6657 30.336 94.6657 30.952V34H92.7937ZM101.072 34.096C100.336 34.096 99.6879 33.952 99.1279 33.664C98.5759 33.376 98.1479 32.984 97.8439 32.488C97.5399 31.984 97.3879 31.412 97.3879 30.772C97.3879 30.124 97.5359 29.552 97.8319 29.056C98.1359 28.552 98.5479 28.16 99.0679 27.88C99.5879 27.592 100.176 27.448 100.832 27.448C101.464 27.448 102.032 27.584 102.536 27.856C103.048 28.12 103.452 28.504 103.748 29.008C104.044 29.504 104.192 30.1 104.192 30.796C104.192 30.868 104.188 30.952 104.18 31.048C104.172 31.136 104.164 31.22 104.156 31.3H98.9119V30.208H103.172L102.452 30.532C102.452 30.196 102.384 29.904 102.248 29.656C102.112 29.408 101.924 29.216 101.684 29.08C101.444 28.936 101.164 28.864 100.844 28.864C100.524 28.864 100.24 28.936 99.9919 29.08C99.7519 29.216 99.5639 29.412 99.4279 29.668C99.2919 29.916 99.2239 30.212 99.2239 30.556V30.844C99.2239 31.196 99.2999 31.508 99.4519 31.78C99.6119 32.044 99.8319 32.248 100.112 32.392C100.4 32.528 100.736 32.596 101.12 32.596C101.464 32.596 101.764 32.544 102.02 32.44C102.284 32.336 102.524 32.18 102.74 31.972L103.736 33.052C103.44 33.388 103.068 33.648 102.62 33.832C102.172 34.008 101.656 34.096 101.072 34.096Z" fill="white"/>
<rect x="0.5" y="0.5" width="152" height="59" rx="29.5" stroke="url(#paint1_linear_86_37808)" stroke-opacity="0.5"/>
<defs>
<radialGradient id="paint0_radial_86_37808" cx="0" cy="0" r="1" gradientUnits="userSpaceOnUse" gradientTransform="translate(76.4671 60.2681) scale(66.7066 26.1594)">
<stop stop-color="#41B6E6"/>
<stop offset="0.55" stop-color="#0047BB"/>
<stop offset="1" stop-color="#003399"/>
</radialGradient>
<linearGradient id="paint1_linear_86_37808" x1="76.744" y1="-0.154936" x2="76.9022" y2="60.2696" gradientUnits="userSpaceOnUse">
<stop stop-color="white" stop-opacity="0.5"/>
<stop offset="0.5" stop-color="white" stop-opacity="0.25"/>
<stop offset="1" stop-color="white" stop-opacity="0"/>
</linearGradient>
</defs>
</svg>
