<svg width="130" height="60" viewBox="0 0 130 60" fill="none" xmlns="http://www.w3.org/2000/svg">
<rect width="130" height="60" rx="30" fill="url(#paint0_radial_86_37813)"/>
<path d="M35.516 34L31.892 25.6H33.992L37.16 33.04H35.924L39.14 25.6H41.072L37.436 34H35.516ZM41.7468 34V27.544H43.6188V34H41.7468ZM42.6828 26.644C42.3388 26.644 42.0588 26.544 41.8428 26.344C41.6268 26.144 41.5188 25.896 41.5188 25.6C41.5188 25.304 41.6268 25.056 41.8428 24.856C42.0588 24.656 42.3388 24.556 42.6828 24.556C43.0268 24.556 43.3068 24.652 43.5228 24.844C43.7388 25.028 43.8468 25.268 43.8468 25.564C43.8468 25.876 43.7388 26.136 43.5228 26.344C43.3148 26.544 43.0348 26.644 42.6828 26.644ZM48.5602 34.096C47.8242 34.096 47.1762 33.952 46.6162 33.664C46.0642 33.376 45.6362 32.984 45.3322 32.488C45.0282 31.984 44.8762 31.412 44.8762 30.772C44.8762 30.124 45.0242 29.552 45.3202 29.056C45.6242 28.552 46.0362 28.16 46.5562 27.88C47.0762 27.592 47.6642 27.448 48.3202 27.448C48.9522 27.448 49.5202 27.584 50.0242 27.856C50.5362 28.12 50.9402 28.504 51.2362 29.008C51.5322 29.504 51.6802 30.1 51.6802 30.796C51.6802 30.868 51.6762 30.952 51.6682 31.048C51.6602 31.136 51.6522 31.22 51.6442 31.3H46.4002V30.208H50.6602L49.9402 30.532C49.9402 30.196 49.8722 29.904 49.7362 29.656C49.6002 29.408 49.4122 29.216 49.1722 29.08C48.9322 28.936 48.6522 28.864 48.3322 28.864C48.0122 28.864 47.7282 28.936 47.4802 29.08C47.2402 29.216 47.0522 29.412 46.9162 29.668C46.7802 29.916 46.7122 30.212 46.7122 30.556V30.844C46.7122 31.196 46.7882 31.508 46.9402 31.78C47.1002 32.044 47.3202 32.248 47.6002 32.392C47.8882 32.528 48.2242 32.596 48.6082 32.596C48.9522 32.596 49.2522 32.544 49.5082 32.44C49.7722 32.336 50.0122 32.18 50.2282 31.972L51.2242 33.052C50.9282 33.388 50.5562 33.648 50.1082 33.832C49.6602 34.008 49.1442 34.096 48.5602 34.096ZM54.2853 34L51.9573 27.544H53.7213L55.6533 33.1H54.8133L56.8293 27.544H58.4133L60.3693 33.1H59.5293L61.5213 27.544H63.1773L60.8373 34H59.0253L57.3093 29.236H57.8613L56.0853 34H54.2853ZM71.406 34V32.74L71.286 32.464V30.208C71.286 29.808 71.162 29.496 70.914 29.272C70.674 29.048 70.302 28.936 69.798 28.936C69.454 28.936 69.114 28.992 68.778 29.104C68.45 29.208 68.17 29.352 67.938 29.536L67.266 28.228C67.618 27.98 68.042 27.788 68.538 27.652C69.034 27.516 69.538 27.448 70.05 27.448C71.034 27.448 71.798 27.68 72.342 28.144C72.886 28.608 73.158 29.332 73.158 30.316V34H71.406ZM69.438 34.096C68.934 34.096 68.502 34.012 68.142 33.844C67.782 33.668 67.506 33.432 67.314 33.136C67.122 32.84 67.026 32.508 67.026 32.14C67.026 31.756 67.118 31.42 67.302 31.132C67.494 30.844 67.794 30.62 68.202 30.46C68.61 30.292 69.142 30.208 69.798 30.208H71.514V31.3H70.002C69.562 31.3 69.258 31.372 69.09 31.516C68.93 31.66 68.85 31.84 68.85 32.056C68.85 32.296 68.942 32.488 69.126 32.632C69.318 32.768 69.578 32.836 69.906 32.836C70.218 32.836 70.498 32.764 70.746 32.62C70.994 32.468 71.174 32.248 71.286 31.96L71.574 32.824C71.438 33.24 71.19 33.556 70.83 33.772C70.47 33.988 70.006 34.096 69.438 34.096ZM74.8523 34V25.096H76.7243V34H74.8523ZM78.4617 34V25.096H80.3337V34H78.4617Z" fill="white"/>
<rect x="0.5" y="0.5" width="129" height="59" rx="29.5" stroke="url(#paint1_linear_86_37813)" stroke-opacity="0.5"/>
<defs>
<radialGradient id="paint0_radial_86_37813" cx="0" cy="0" r="1" gradientUnits="userSpaceOnUse" gradientTransform="translate(64.972 60.2681) scale(56.6788 26.1594)">
<stop stop-color="#41B6E6"/>
<stop offset="0.55" stop-color="#0047BB"/>
<stop offset="1" stop-color="#003399"/>
</radialGradient>
<linearGradient id="paint1_linear_86_37813" x1="65.2073" y1="-0.154936" x2="65.3935" y2="60.2695" gradientUnits="userSpaceOnUse">
<stop stop-color="white" stop-opacity="0.5"/>
<stop offset="0.5" stop-color="white" stop-opacity="0.25"/>
<stop offset="1" stop-color="white" stop-opacity="0"/>
</linearGradient>
</defs>
</svg>
