<svg width="152" height="60" viewBox="0 0 152 60" fill="none" xmlns="http://www.w3.org/2000/svg">
<rect width="152" height="60" rx="30" fill="url(#paint0_radial_86_37821)"/>
<path d="M32.996 34V25.6H34.94V32.416H39.152V34H32.996ZM43.275 34.096C42.539 34.096 41.891 33.952 41.331 33.664C40.779 33.376 40.351 32.984 40.047 32.488C39.743 31.984 39.591 31.412 39.591 30.772C39.591 30.124 39.739 29.552 40.035 29.056C40.339 28.552 40.751 28.16 41.271 27.88C41.791 27.592 42.379 27.448 43.035 27.448C43.667 27.448 44.235 27.584 44.739 27.856C45.251 28.12 45.655 28.504 45.951 29.008C46.247 29.504 46.395 30.1 46.395 30.796C46.395 30.868 46.391 30.952 46.383 31.048C46.375 31.136 46.367 31.22 46.359 31.3H41.115V30.208H45.375L44.655 30.532C44.655 30.196 44.587 29.904 44.451 29.656C44.315 29.408 44.127 29.216 43.887 29.08C43.647 28.936 43.367 28.864 43.047 28.864C42.727 28.864 42.443 28.936 42.195 29.08C41.955 29.216 41.767 29.412 41.631 29.668C41.495 29.916 41.427 30.212 41.427 30.556V30.844C41.427 31.196 41.503 31.508 41.655 31.78C41.815 32.044 42.035 32.248 42.315 32.392C42.603 32.528 42.939 32.596 43.323 32.596C43.667 32.596 43.967 32.544 44.223 32.44C44.487 32.336 44.727 32.18 44.943 31.972L45.939 33.052C45.643 33.388 45.271 33.648 44.823 33.832C44.375 34.008 43.859 34.096 43.275 34.096ZM51.4256 34V32.74L51.3056 32.464V30.208C51.3056 29.808 51.1816 29.496 50.9336 29.272C50.6936 29.048 50.3216 28.936 49.8176 28.936C49.4736 28.936 49.1336 28.992 48.7976 29.104C48.4696 29.208 48.1896 29.352 47.9576 29.536L47.2856 28.228C47.6376 27.98 48.0616 27.788 48.5576 27.652C49.0536 27.516 49.5576 27.448 50.0696 27.448C51.0536 27.448 51.8176 27.68 52.3616 28.144C52.9056 28.608 53.1776 29.332 53.1776 30.316V34H51.4256ZM49.4576 34.096C48.9536 34.096 48.5216 34.012 48.1616 33.844C47.8016 33.668 47.5256 33.432 47.3336 33.136C47.1416 32.84 47.0456 32.508 47.0456 32.14C47.0456 31.756 47.1376 31.42 47.3216 31.132C47.5136 30.844 47.8136 30.62 48.2216 30.46C48.6296 30.292 49.1616 30.208 49.8176 30.208H51.5336V31.3H50.0216C49.5816 31.3 49.2776 31.372 49.1096 31.516C48.9496 31.66 48.8696 31.84 48.8696 32.056C48.8696 32.296 48.9616 32.488 49.1456 32.632C49.3376 32.768 49.5976 32.836 49.9256 32.836C50.2376 32.836 50.5176 32.764 50.7656 32.62C51.0136 32.468 51.1936 32.248 51.3056 31.96L51.5936 32.824C51.4576 33.24 51.2096 33.556 50.8496 33.772C50.4896 33.988 50.0256 34.096 49.4576 34.096ZM54.8718 34V27.544H56.6598V29.368L56.4078 28.84C56.5998 28.384 56.9078 28.04 57.3318 27.808C57.7558 27.568 58.2718 27.448 58.8798 27.448V29.176C58.7998 29.168 58.7278 29.164 58.6638 29.164C58.5998 29.156 58.5318 29.152 58.4598 29.152C57.9478 29.152 57.5318 29.3 57.2118 29.596C56.8998 29.884 56.7438 30.336 56.7438 30.952V34H54.8718ZM63.9286 27.448C64.4406 27.448 64.8966 27.552 65.2966 27.76C65.7046 27.96 66.0246 28.272 66.2566 28.696C66.4886 29.112 66.6046 29.648 66.6046 30.304V34H64.7326V30.592C64.7326 30.072 64.6166 29.688 64.3846 29.44C64.1606 29.192 63.8406 29.068 63.4246 29.068C63.1286 29.068 62.8606 29.132 62.6206 29.26C62.3886 29.38 62.2046 29.568 62.0686 29.824C61.9406 30.08 61.8766 30.408 61.8766 30.808V34H60.0046V27.544H61.7926V29.332L61.4566 28.792C61.6886 28.36 62.0206 28.028 62.4526 27.796C62.8846 27.564 63.3766 27.448 63.9286 27.448ZM79.9679 27.448C80.4799 27.448 80.9319 27.552 81.3239 27.76C81.7239 27.96 82.0359 28.272 82.2599 28.696C82.4919 29.112 82.6079 29.648 82.6079 30.304V34H80.7359V30.592C80.7359 30.072 80.6279 29.688 80.4119 29.44C80.1959 29.192 79.8919 29.068 79.4999 29.068C79.2279 29.068 78.9839 29.132 78.7679 29.26C78.5519 29.38 78.3839 29.564 78.2639 29.812C78.1439 30.06 78.0839 30.376 78.0839 30.76V34H76.2119V30.592C76.2119 30.072 76.1039 29.688 75.8879 29.44C75.6799 29.192 75.3799 29.068 74.9879 29.068C74.7159 29.068 74.4719 29.132 74.2559 29.26C74.0399 29.38 73.8719 29.564 73.7519 29.812C73.6319 30.06 73.5719 30.376 73.5719 30.76V34H71.6999V27.544H73.4879V29.308L73.1519 28.792C73.3759 28.352 73.6919 28.02 74.0999 27.796C74.5159 27.564 74.9879 27.448 75.5159 27.448C76.1079 27.448 76.6239 27.6 77.0639 27.904C77.5119 28.2 77.8079 28.656 77.9519 29.272L77.2919 29.092C77.5079 28.588 77.8519 28.188 78.3239 27.892C78.8039 27.596 79.3519 27.448 79.9679 27.448ZM87.4048 34.096C86.7168 34.096 86.1048 33.952 85.5688 33.664C85.0408 33.376 84.6208 32.984 84.3088 32.488C84.0048 31.984 83.8528 31.412 83.8528 30.772C83.8528 30.124 84.0048 29.552 84.3088 29.056C84.6208 28.552 85.0408 28.16 85.5688 27.88C86.1048 27.592 86.7168 27.448 87.4048 27.448C88.0848 27.448 88.6928 27.592 89.2288 27.88C89.7648 28.16 90.1848 28.548 90.4888 29.044C90.7928 29.54 90.9448 30.116 90.9448 30.772C90.9448 31.412 90.7928 31.984 90.4888 32.488C90.1848 32.984 89.7648 33.376 89.2288 33.664C88.6928 33.952 88.0848 34.096 87.4048 34.096ZM87.4048 32.56C87.7168 32.56 87.9968 32.488 88.2448 32.344C88.4928 32.2 88.6888 31.996 88.8328 31.732C88.9768 31.46 89.0488 31.14 89.0488 30.772C89.0488 30.396 88.9768 30.076 88.8328 29.812C88.6888 29.548 88.4928 29.344 88.2448 29.2C87.9968 29.056 87.7168 28.984 87.4048 28.984C87.0928 28.984 86.8128 29.056 86.5648 29.2C86.3168 29.344 86.1168 29.548 85.9648 29.812C85.8208 30.076 85.7488 30.396 85.7488 30.772C85.7488 31.14 85.8208 31.46 85.9648 31.732C86.1168 31.996 86.3168 32.2 86.5648 32.344C86.8128 32.488 87.0928 32.56 87.4048 32.56ZM92.196 34V27.544H93.984V29.368L93.732 28.84C93.924 28.384 94.232 28.04 94.656 27.808C95.08 27.568 95.596 27.448 96.204 27.448V29.176C96.124 29.168 96.052 29.164 95.988 29.164C95.924 29.156 95.856 29.152 95.784 29.152C95.272 29.152 94.856 29.3 94.536 29.596C94.224 29.884 94.068 30.336 94.068 30.952V34H92.196ZM100.474 34.096C99.7383 34.096 99.0903 33.952 98.5303 33.664C97.9783 33.376 97.5503 32.984 97.2463 32.488C96.9423 31.984 96.7903 31.412 96.7903 30.772C96.7903 30.124 96.9383 29.552 97.2343 29.056C97.5383 28.552 97.9503 28.16 98.4703 27.88C98.9903 27.592 99.5783 27.448 100.234 27.448C100.866 27.448 101.434 27.584 101.938 27.856C102.45 28.12 102.854 28.504 103.15 29.008C103.446 29.504 103.594 30.1 103.594 30.796C103.594 30.868 103.59 30.952 103.582 31.048C103.574 31.136 103.566 31.22 103.558 31.3H98.3143V30.208H102.574L101.854 30.532C101.854 30.196 101.786 29.904 101.65 29.656C101.514 29.408 101.326 29.216 101.086 29.08C100.846 28.936 100.566 28.864 100.246 28.864C99.9263 28.864 99.6423 28.936 99.3943 29.08C99.1543 29.216 98.9663 29.412 98.8303 29.668C98.6943 29.916 98.6263 30.212 98.6263 30.556V30.844C98.6263 31.196 98.7023 31.508 98.8543 31.78C99.0143 32.044 99.2343 32.248 99.5143 32.392C99.8023 32.528 100.138 32.596 100.522 32.596C100.866 32.596 101.166 32.544 101.422 32.44C101.686 32.336 101.926 32.18 102.142 31.972L103.138 33.052C102.842 33.388 102.47 33.648 102.022 33.832C101.574 34.008 101.058 34.096 100.474 34.096Z" fill="white"/>
<rect x="0.5" y="0.5" width="151" height="59" rx="29.5" stroke="url(#paint1_linear_86_37821)" stroke-opacity="0.5"/>
<defs>
<radialGradient id="paint0_radial_86_37821" cx="0" cy="0" r="1" gradientUnits="userSpaceOnUse" gradientTransform="translate(75.9673 60.2681) scale(66.2706 26.1594)">
<stop stop-color="#41B6E6"/>
<stop offset="0.55" stop-color="#0047BB"/>
<stop offset="1" stop-color="#003399"/>
</radialGradient>
<linearGradient id="paint1_linear_86_37821" x1="76.2424" y1="-0.154936" x2="76.4016" y2="60.2696" gradientUnits="userSpaceOnUse">
<stop stop-color="white" stop-opacity="0.5"/>
<stop offset="0.5" stop-color="white" stop-opacity="0.25"/>
<stop offset="1" stop-color="white" stop-opacity="0"/>
</linearGradient>
</defs>
</svg>
