<svg width="170" height="60" viewBox="0 0 170 60" fill="none" xmlns="http://www.w3.org/2000/svg">
<rect width="170" height="60" rx="30" fill="url(#paint0_radial_86_25524)"/>
<path d="M37.076 34.144C36.412 34.144 35.796 34.036 35.228 33.82C34.668 33.604 34.18 33.3 33.764 32.908C33.356 32.516 33.036 32.056 32.804 31.528C32.58 31 32.468 30.424 32.468 29.8C32.468 29.176 32.58 28.6 32.804 28.072C33.036 27.544 33.36 27.084 33.776 26.692C34.192 26.3 34.68 25.996 35.24 25.78C35.8 25.564 36.408 25.456 37.064 25.456C37.728 25.456 38.336 25.564 38.888 25.78C39.448 25.996 39.932 26.3 40.34 26.692C40.756 27.084 41.08 27.544 41.312 28.072C41.544 28.592 41.66 29.168 41.66 29.8C41.66 30.424 41.544 31.004 41.312 31.54C41.08 32.068 40.756 32.528 40.34 32.92C39.932 33.304 39.448 33.604 38.888 33.82C38.336 34.036 37.732 34.144 37.076 34.144ZM37.064 32.488C37.44 32.488 37.784 32.424 38.096 32.296C38.416 32.168 38.696 31.984 38.936 31.744C39.176 31.504 39.36 31.22 39.488 30.892C39.624 30.564 39.692 30.2 39.692 29.8C39.692 29.4 39.624 29.036 39.488 28.708C39.36 28.38 39.176 28.096 38.936 27.856C38.704 27.616 38.428 27.432 38.108 27.304C37.788 27.176 37.44 27.112 37.064 27.112C36.688 27.112 36.34 27.176 36.02 27.304C35.708 27.432 35.432 27.616 35.192 27.856C34.952 28.096 34.764 28.38 34.628 28.708C34.5 29.036 34.436 29.4 34.436 29.8C34.436 30.192 34.5 30.556 34.628 30.892C34.764 31.22 34.948 31.504 35.18 31.744C35.42 31.984 35.7 32.168 36.02 32.296C36.34 32.424 36.688 32.488 37.064 32.488ZM46.805 34.096C46.261 34.096 45.785 33.976 45.377 33.736C44.969 33.496 44.649 33.132 44.417 32.644C44.193 32.148 44.081 31.524 44.081 30.772C44.081 30.012 44.189 29.388 44.405 28.9C44.621 28.412 44.933 28.048 45.341 27.808C45.749 27.568 46.237 27.448 46.805 27.448C47.413 27.448 47.957 27.588 48.437 27.868C48.925 28.14 49.309 28.524 49.589 29.02C49.877 29.516 50.021 30.1 50.021 30.772C50.021 31.452 49.877 32.04 49.589 32.536C49.309 33.032 48.925 33.416 48.437 33.688C47.957 33.96 47.413 34.096 46.805 34.096ZM42.989 36.328V27.544H44.777V28.864L44.741 30.784L44.861 32.692V36.328H42.989ZM46.481 32.56C46.793 32.56 47.069 32.488 47.309 32.344C47.557 32.2 47.753 31.996 47.897 31.732C48.049 31.46 48.125 31.14 48.125 30.772C48.125 30.396 48.049 30.076 47.897 29.812C47.753 29.548 47.557 29.344 47.309 29.2C47.069 29.056 46.793 28.984 46.481 28.984C46.169 28.984 45.889 29.056 45.641 29.2C45.393 29.344 45.197 29.548 45.053 29.812C44.909 30.076 44.837 30.396 44.837 30.772C44.837 31.14 44.909 31.46 45.053 31.732C45.197 31.996 45.393 32.2 45.641 32.344C45.889 32.488 46.169 32.56 46.481 32.56ZM54.4782 34.096C53.7422 34.096 53.0942 33.952 52.5342 33.664C51.9822 33.376 51.5542 32.984 51.2502 32.488C50.9462 31.984 50.7942 31.412 50.7942 30.772C50.7942 30.124 50.9422 29.552 51.2382 29.056C51.5422 28.552 51.9542 28.16 52.4742 27.88C52.9942 27.592 53.5822 27.448 54.2382 27.448C54.8702 27.448 55.4382 27.584 55.9422 27.856C56.4542 28.12 56.8582 28.504 57.1542 29.008C57.4502 29.504 57.5982 30.1 57.5982 30.796C57.5982 30.868 57.5942 30.952 57.5862 31.048C57.5782 31.136 57.5702 31.22 57.5622 31.3H52.3182V30.208H56.5782L55.8582 30.532C55.8582 30.196 55.7902 29.904 55.6542 29.656C55.5182 29.408 55.3302 29.216 55.0902 29.08C54.8502 28.936 54.5702 28.864 54.2502 28.864C53.9302 28.864 53.6462 28.936 53.3982 29.08C53.1582 29.216 52.9702 29.412 52.8342 29.668C52.6982 29.916 52.6302 30.212 52.6302 30.556V30.844C52.6302 31.196 52.7062 31.508 52.8582 31.78C53.0182 32.044 53.2382 32.248 53.5182 32.392C53.8062 32.528 54.1422 32.596 54.5262 32.596C54.8702 32.596 55.1702 32.544 55.4262 32.44C55.6902 32.336 55.9302 32.18 56.1462 31.972L57.1422 33.052C56.8462 33.388 56.4742 33.648 56.0262 33.832C55.5782 34.008 55.0622 34.096 54.4782 34.096ZM62.7685 27.448C63.2805 27.448 63.7365 27.552 64.1365 27.76C64.5445 27.96 64.8645 28.272 65.0965 28.696C65.3285 29.112 65.4445 29.648 65.4445 30.304V34H63.5725V30.592C63.5725 30.072 63.4565 29.688 63.2245 29.44C63.0005 29.192 62.6805 29.068 62.2645 29.068C61.9685 29.068 61.7005 29.132 61.4605 29.26C61.2285 29.38 61.0445 29.568 60.9085 29.824C60.7805 30.08 60.7165 30.408 60.7165 30.808V34H58.8445V27.544H60.6325V29.332L60.2965 28.792C60.5285 28.36 60.8605 28.028 61.2925 27.796C61.7245 27.564 62.2165 27.448 62.7685 27.448ZM73.7438 34.096C73.0078 34.096 72.3598 33.952 71.7998 33.664C71.2478 33.376 70.8198 32.984 70.5158 32.488C70.2118 31.984 70.0598 31.412 70.0598 30.772C70.0598 30.124 70.2078 29.552 70.5038 29.056C70.8078 28.552 71.2198 28.16 71.7398 27.88C72.2598 27.592 72.8478 27.448 73.5038 27.448C74.1358 27.448 74.7038 27.584 75.2078 27.856C75.7198 28.12 76.1238 28.504 76.4198 29.008C76.7158 29.504 76.8638 30.1 76.8638 30.796C76.8638 30.868 76.8598 30.952 76.8518 31.048C76.8438 31.136 76.8358 31.22 76.8278 31.3H71.5838V30.208H75.8438L75.1238 30.532C75.1238 30.196 75.0558 29.904 74.9198 29.656C74.7838 29.408 74.5958 29.216 74.3558 29.08C74.1158 28.936 73.8358 28.864 73.5158 28.864C73.1958 28.864 72.9118 28.936 72.6638 29.08C72.4238 29.216 72.2358 29.412 72.0998 29.668C71.9638 29.916 71.8958 30.212 71.8958 30.556V30.844C71.8958 31.196 71.9718 31.508 72.1238 31.78C72.2838 32.044 72.5038 32.248 72.7838 32.392C73.0718 32.528 73.4078 32.596 73.7918 32.596C74.1358 32.596 74.4358 32.544 74.6918 32.44C74.9558 32.336 75.1958 32.18 75.4118 31.972L76.4078 33.052C76.1118 33.388 75.7398 33.648 75.2918 33.832C74.8438 34.008 74.3278 34.096 73.7438 34.096ZM77.1183 34L80.0103 30.208L79.9743 31.24L77.2023 27.544H79.3023L81.0543 29.956L80.2623 29.98L82.0743 27.544H84.0663L81.2823 31.204V30.196L84.1623 34H82.0383L80.2023 31.432L80.9823 31.54L79.1583 34H77.1183ZM88.887 34.096C88.343 34.096 87.867 33.976 87.459 33.736C87.051 33.496 86.731 33.132 86.499 32.644C86.275 32.148 86.163 31.524 86.163 30.772C86.163 30.012 86.271 29.388 86.487 28.9C86.703 28.412 87.015 28.048 87.423 27.808C87.831 27.568 88.319 27.448 88.887 27.448C89.495 27.448 90.039 27.588 90.519 27.868C91.007 28.14 91.391 28.524 91.671 29.02C91.959 29.516 92.103 30.1 92.103 30.772C92.103 31.452 91.959 32.04 91.671 32.536C91.391 33.032 91.007 33.416 90.519 33.688C90.039 33.96 89.495 34.096 88.887 34.096ZM85.071 36.328V27.544H86.859V28.864L86.823 30.784L86.943 32.692V36.328H85.071ZM88.563 32.56C88.875 32.56 89.151 32.488 89.391 32.344C89.639 32.2 89.835 31.996 89.979 31.732C90.131 31.46 90.207 31.14 90.207 30.772C90.207 30.396 90.131 30.076 89.979 29.812C89.835 29.548 89.639 29.344 89.391 29.2C89.151 29.056 88.875 28.984 88.563 28.984C88.251 28.984 87.971 29.056 87.723 29.2C87.475 29.344 87.279 29.548 87.135 29.812C86.991 30.076 86.919 30.396 86.919 30.772C86.919 31.14 86.991 31.46 87.135 31.732C87.279 31.996 87.475 32.2 87.723 32.344C87.971 32.488 88.251 32.56 88.563 32.56ZM93.3562 34V25.096H95.2282V34H93.3562ZM100.038 34.096C99.3496 34.096 98.7376 33.952 98.2016 33.664C97.6736 33.376 97.2536 32.984 96.9416 32.488C96.6376 31.984 96.4856 31.412 96.4856 30.772C96.4856 30.124 96.6376 29.552 96.9416 29.056C97.2536 28.552 97.6736 28.16 98.2016 27.88C98.7376 27.592 99.3496 27.448 100.038 27.448C100.718 27.448 101.326 27.592 101.862 27.88C102.398 28.16 102.818 28.548 103.122 29.044C103.426 29.54 103.578 30.116 103.578 30.772C103.578 31.412 103.426 31.984 103.122 32.488C102.818 32.984 102.398 33.376 101.862 33.664C101.326 33.952 100.718 34.096 100.038 34.096ZM100.038 32.56C100.35 32.56 100.63 32.488 100.878 32.344C101.126 32.2 101.322 31.996 101.466 31.732C101.61 31.46 101.682 31.14 101.682 30.772C101.682 30.396 101.61 30.076 101.466 29.812C101.322 29.548 101.126 29.344 100.878 29.2C100.63 29.056 100.35 28.984 100.038 28.984C99.7256 28.984 99.4456 29.056 99.1976 29.2C98.9496 29.344 98.7496 29.548 98.5976 29.812C98.4536 30.076 98.3816 30.396 98.3816 30.772C98.3816 31.14 98.4536 31.46 98.5976 31.732C98.7496 31.996 98.9496 32.2 99.1976 32.344C99.4456 32.488 99.7256 32.56 100.038 32.56ZM104.829 34V27.544H106.617V29.368L106.365 28.84C106.557 28.384 106.865 28.04 107.289 27.808C107.713 27.568 108.229 27.448 108.837 27.448V29.176C108.757 29.168 108.685 29.164 108.621 29.164C108.557 29.156 108.489 29.152 108.417 29.152C107.905 29.152 107.489 29.3 107.169 29.596C106.857 29.884 106.701 30.336 106.701 30.952V34H104.829ZM113.107 34.096C112.371 34.096 111.723 33.952 111.163 33.664C110.611 33.376 110.183 32.984 109.879 32.488C109.575 31.984 109.423 31.412 109.423 30.772C109.423 30.124 109.571 29.552 109.867 29.056C110.171 28.552 110.583 28.16 111.103 27.88C111.623 27.592 112.211 27.448 112.867 27.448C113.499 27.448 114.067 27.584 114.571 27.856C115.083 28.12 115.487 28.504 115.783 29.008C116.079 29.504 116.227 30.1 116.227 30.796C116.227 30.868 116.223 30.952 116.215 31.048C116.207 31.136 116.199 31.22 116.191 31.3H110.947V30.208H115.207L114.487 30.532C114.487 30.196 114.419 29.904 114.283 29.656C114.147 29.408 113.959 29.216 113.719 29.08C113.479 28.936 113.199 28.864 112.879 28.864C112.559 28.864 112.275 28.936 112.027 29.08C111.787 29.216 111.599 29.412 111.463 29.668C111.327 29.916 111.259 30.212 111.259 30.556V30.844C111.259 31.196 111.335 31.508 111.487 31.78C111.647 32.044 111.867 32.248 112.147 32.392C112.435 32.528 112.771 32.596 113.155 32.596C113.499 32.596 113.799 32.544 114.055 32.44C114.319 32.336 114.559 32.18 114.775 31.972L115.771 33.052C115.475 33.388 115.103 33.648 114.655 33.832C114.207 34.008 113.691 34.096 113.107 34.096ZM117.473 34V27.544H119.261V29.368L119.009 28.84C119.201 28.384 119.509 28.04 119.933 27.808C120.357 27.568 120.873 27.448 121.481 27.448V29.176C121.401 29.168 121.329 29.164 121.265 29.164C121.201 29.156 121.133 29.152 121.061 29.152C120.549 29.152 120.133 29.3 119.813 29.596C119.501 29.884 119.345 30.336 119.345 30.952V34H117.473Z" fill="white"/>
<rect x="0.5" y="0.5" width="169" height="59" rx="29.5" stroke="url(#paint1_linear_86_25524)" stroke-opacity="0.5"/>
<defs>
<radialGradient id="paint0_radial_86_25524" cx="0" cy="0" r="1" gradientUnits="userSpaceOnUse" gradientTransform="translate(84.9634 60.2681) scale(74.1184 26.1594)">
<stop stop-color="#41B6E6"/>
<stop offset="0.55" stop-color="#0047BB"/>
<stop offset="1" stop-color="#003399"/>
</radialGradient>
<linearGradient id="paint1_linear_86_25524" x1="85.2711" y1="-0.154936" x2="85.4135" y2="60.2697" gradientUnits="userSpaceOnUse">
<stop stop-color="white" stop-opacity="0.5"/>
<stop offset="0.5" stop-color="white" stop-opacity="0.25"/>
<stop offset="1" stop-color="white" stop-opacity="0"/>
</linearGradient>
</defs>
</svg>
