<svg width="41" height="11" viewBox="0 0 41 11" fill="none" xmlns="http://www.w3.org/2000/svg">
<g opacity="0.6" clip-path="url(#clip0_86_99023)">
<path d="M7.58002 8.99005V10.3C7.58002 10.59 7.48 10.76 7.12 10.76H0.460022C0.100022 10.76 0 10.59 0 10.3V0.710022C0 0.340022 0.180022 0.240051 0.460022 0.240051H2.05005C2.33005 0.240051 2.51001 0.340022 2.51001 0.710022V8.52002H7.12C7.48 8.52002 7.58002 8.70005 7.58002 8.99005Z" fill="white"/>
<path d="M17.3503 7.38C17.3503 9.91 14.9503 11 13.0503 11C11.1503 11 8.78027 9.91 8.78027 7.38V3.61005C8.78027 1.08005 11.1503 0 13.0503 0C14.9503 0 17.3503 1.09005 17.3503 3.61005V7.38ZM14.8403 3.84003C14.7936 3.40047 14.586 2.99372 14.2573 2.69812C13.9287 2.40252 13.5023 2.23895 13.0602 2.23895C12.6182 2.23895 12.1919 2.40252 11.8632 2.69812C11.5346 2.99372 11.3269 3.40047 11.2803 3.84003V7.17004C11.3269 7.6096 11.5346 8.01635 11.8632 8.31195C12.1919 8.60755 12.6182 8.77106 13.0602 8.77106C13.5023 8.77106 13.9287 8.60755 14.2573 8.31195C14.586 8.01635 14.7936 7.6096 14.8403 7.17004V3.84003Z" fill="white"/>
<path d="M27.96 7.69C27.96 9.69 26.38 10.75 24.16 10.75H19.46C19.1 10.75 19 10.58 19 10.29V0.700012C19 0.410012 19.1 0.230042 19.46 0.230042H23.93C26.54 0.230042 27.65 1.62006 27.65 3.12006C27.695 3.5589 27.6087 4.00116 27.4022 4.39099C27.1957 4.78082 26.8783 5.10063 26.4901 5.31C26.9436 5.51605 27.3256 5.85242 27.5873 6.27625C27.8491 6.70007 27.9788 7.1922 27.96 7.69ZM23.26 5.97003V4.75L25.26 3.38C25.1256 3.13524 24.9349 2.92596 24.7037 2.76947C24.4724 2.61298 24.2072 2.51379 23.93 2.48004H21.46V8.48004H24.14C24.92 8.48004 25.37 7.48004 25.37 7.48004L23.26 5.97003Z" fill="white"/>
<path d="M38.2803 10.76H36.6003C36.2503 10.76 36.1203 10.67 36.0003 10.28L35.5503 9.02001H31.6303L31.1803 10.28C31.0603 10.67 30.9303 10.76 30.5803 10.76H28.9003C28.5503 10.76 28.5503 10.51 28.6303 10.31L32.1803 0.740037C32.2092 0.591841 32.2911 0.459229 32.4108 0.367173C32.5305 0.275116 32.6797 0.229942 32.8303 0.240037H34.3703C34.7203 0.240037 34.8803 0.400037 35.0203 0.740037L38.5503 10.31C38.6303 10.51 38.6303 10.76 38.2803 10.76ZM34.8003 6.75999L33.6003 3.23003L32.4003 6.75999H34.8003Z" fill="white"/>
<path d="M40.2703 2.01001H40.0703C40.0703 2.01001 40.0103 2.01001 39.9803 1.95001L39.8004 1.68006C39.8004 1.68006 39.8004 1.68003 39.8004 1.59003V1.45001V1.40003C39.8412 1.4029 39.8816 1.39 39.9133 1.36395C39.9449 1.33791 39.9653 1.30068 39.9703 1.26001C39.9704 1.23944 39.9662 1.21908 39.958 1.2002C39.9499 1.18131 39.9379 1.16434 39.9229 1.15027C39.9079 1.1362 39.8902 1.12539 39.8708 1.11847C39.8514 1.11155 39.8308 1.10868 39.8103 1.11005H39.5803V1.95001V2.01001H39.4103C39.4103 2.01001 39.3604 2.01001 39.3604 1.95001V0.950014C39.3604 0.950014 39.3603 0.900026 39.4103 0.900026H39.8403C39.9016 0.892232 39.9638 0.898042 40.0226 0.917055C40.0814 0.936068 40.1352 0.967803 40.1803 1.01001C40.217 1.04447 40.2458 1.08646 40.2648 1.13306C40.2838 1.17965 40.2925 1.22976 40.2903 1.28003C40.2876 1.35646 40.2624 1.43039 40.218 1.49262C40.1735 1.55485 40.1117 1.6026 40.0403 1.63001L40.2903 1.98004C40.2903 1.98004 40.3103 2.01001 40.2703 2.01001Z" fill="white"/>
<path d="M39.7997 0.240049C39.6336 0.224837 39.4661 0.244405 39.308 0.297544C39.1499 0.350684 39.0045 0.436196 38.8813 0.548643C38.7581 0.66109 38.6597 0.798004 38.5923 0.95062C38.525 1.10324 38.4902 1.26818 38.4902 1.435C38.4902 1.60181 38.525 1.76681 38.5923 1.91943C38.6597 2.07205 38.7581 2.20896 38.8813 2.32141C39.0045 2.43386 39.1499 2.51937 39.308 2.57251C39.4661 2.62565 39.6336 2.64521 39.7997 2.63C40.0978 2.60271 40.3748 2.46504 40.5766 2.24396C40.7784 2.02287 40.8902 1.73431 40.8902 1.435C40.8902 1.13568 40.7784 0.847184 40.5766 0.626097C40.3748 0.405009 40.0978 0.267344 39.7997 0.240049ZM39.7997 2.33001C39.6208 2.33199 39.4454 2.28062 39.2959 2.18249C39.1464 2.08436 39.0295 1.94397 38.9601 1.77911C38.8908 1.61426 38.8721 1.43247 38.9065 1.25696C38.9409 1.08145 39.0269 0.920165 39.1533 0.793699C39.2798 0.667233 39.4411 0.58128 39.6166 0.546873C39.7921 0.512466 39.9739 0.531168 40.1387 0.600523C40.3036 0.669878 40.444 0.78675 40.5422 0.936277C40.6403 1.0858 40.6916 1.26116 40.6896 1.44C40.6896 1.67604 40.5959 1.90243 40.429 2.06933C40.262 2.23624 40.0357 2.33001 39.7997 2.33001Z" fill="white"/>
</g>
<defs>
<clipPath id="clip0_86_99023">
<rect width="40.99" height="11" fill="white"/>
</clipPath>
</defs>
</svg>
