<svg width="41" height="11" viewBox="0 0 41 11" fill="none" xmlns="http://www.w3.org/2000/svg">
<g opacity="0.6" clip-path="url(#clip0_102_2164)">
<path d="M7.58002 8.98999V10.3C7.58002 10.59 7.48 10.7599 7.12 10.7599H0.460022C0.100022 10.7599 0 10.59 0 10.3V0.709961C0 0.339961 0.180022 0.23999 0.460022 0.23999H2.05005C2.33005 0.23999 2.51001 0.339961 2.51001 0.709961V8.51996H7.12C7.48 8.51996 7.58002 8.69999 7.58002 8.98999Z" fill="white"/>
<path d="M17.3493 7.38C17.3493 9.91 14.9493 11 13.0493 11C11.1493 11 8.7793 9.91 8.7793 7.38V3.61005C8.7793 1.08005 11.1493 0 13.0493 0C14.9493 0 17.3493 1.09005 17.3493 3.61005V7.38ZM14.8393 3.84003C14.7926 3.40047 14.585 2.99372 14.2563 2.69812C13.9277 2.40252 13.5013 2.23895 13.0593 2.23895C12.6172 2.23895 12.1909 2.40252 11.8622 2.69812C11.5336 2.99372 11.326 3.40047 11.2793 3.84003V7.17004C11.326 7.6096 11.5336 8.01635 11.8622 8.31195C12.1909 8.60755 12.6172 8.77106 13.0593 8.77106C13.5013 8.77106 13.9277 8.60755 14.2563 8.31195C14.585 8.01635 14.7926 7.6096 14.8393 7.17004V3.84003Z" fill="white"/>
<path d="M27.96 7.68994C27.96 9.68994 26.38 10.7499 24.16 10.7499H19.46C19.1 10.7499 19 10.58 19 10.29V0.699951C19 0.409951 19.1 0.22998 19.46 0.22998H23.93C26.54 0.22998 27.65 1.62 27.65 3.12C27.695 3.55883 27.6087 4.0011 27.4022 4.39093C27.1957 4.78076 26.8783 5.10057 26.4901 5.30994C26.9436 5.51599 27.3256 5.85235 27.5873 6.27618C27.8491 6.70001 27.9788 7.19214 27.96 7.68994ZM23.26 5.96997V4.74994L25.26 3.37994C25.1256 3.13518 24.9349 2.9259 24.7037 2.76941C24.4724 2.61292 24.2072 2.51373 23.93 2.47998H21.46V8.47998H24.14C24.92 8.47998 25.37 7.47998 25.37 7.47998L23.26 5.96997Z" fill="white"/>
<path d="M38.2793 10.76H36.5993C36.2493 10.76 36.1193 10.67 35.9993 10.28L35.5494 9.02001H31.6293L31.1793 10.28C31.0593 10.67 30.9293 10.76 30.5793 10.76H28.8993C28.5493 10.76 28.5493 10.51 28.6293 10.31L32.1793 0.740037C32.2082 0.591841 32.2902 0.459229 32.4098 0.367173C32.5295 0.275116 32.6787 0.229942 32.8293 0.240037H34.3693C34.7193 0.240037 34.8793 0.400037 35.0193 0.740037L38.5494 10.31C38.6294 10.51 38.6293 10.76 38.2793 10.76ZM34.7994 6.75999L33.5993 3.23003L32.3993 6.75999H34.7994Z" fill="white"/>
<path d="M40.2693 2.00995H40.0693C40.0693 2.00995 40.0094 2.00995 39.9794 1.94995L39.7994 1.67999C39.7994 1.67999 39.7994 1.67997 39.7994 1.58997V1.44995V1.39997C39.8403 1.40283 39.8807 1.38994 39.9123 1.36389C39.9439 1.33785 39.9643 1.30062 39.9694 1.25995C39.9694 1.23938 39.9652 1.21902 39.957 1.20014C39.9489 1.18125 39.9369 1.16428 39.9219 1.15021C39.9069 1.13614 39.8892 1.12533 39.8698 1.11841C39.8504 1.11149 39.8298 1.10862 39.8093 1.10999H39.5793V1.94995V2.00995H39.4094C39.4094 2.00995 39.3594 2.00995 39.3594 1.94995V0.949953C39.3594 0.949953 39.3594 0.899965 39.4094 0.899965H39.8394C39.9006 0.892171 39.9628 0.897981 40.0216 0.916994C40.0804 0.936007 40.1342 0.967742 40.1793 1.00995C40.216 1.0444 40.2448 1.0864 40.2638 1.133C40.2828 1.17959 40.2915 1.2297 40.2894 1.27997C40.2866 1.35639 40.2614 1.43033 40.217 1.49256C40.1725 1.55479 40.1108 1.60254 40.0394 1.62995L40.2894 1.97998C40.2894 1.97998 40.3093 2.00995 40.2693 2.00995Z" fill="white"/>
<path d="M39.7997 0.239988C39.6336 0.224776 39.4661 0.244344 39.308 0.297483C39.1499 0.350623 39.0045 0.436135 38.8813 0.548582C38.7581 0.661029 38.6597 0.797943 38.5923 0.950559C38.525 1.10318 38.4902 1.26812 38.4902 1.43493C38.4902 1.60175 38.525 1.76675 38.5923 1.91937C38.6597 2.07199 38.7581 2.2089 38.8813 2.32135C39.0045 2.43379 39.1499 2.51931 39.308 2.57245C39.4661 2.62559 39.6336 2.64515 39.7997 2.62994C40.0978 2.60265 40.3748 2.46498 40.5766 2.24389C40.7784 2.02281 40.8902 1.73425 40.8902 1.43493C40.8902 1.13562 40.7784 0.847123 40.5766 0.626036C40.3748 0.404948 40.0978 0.267283 39.7997 0.239988ZM39.7997 2.32995C39.6208 2.33193 39.4454 2.28056 39.2959 2.18243C39.1464 2.0843 39.0295 1.94391 38.9601 1.77905C38.8908 1.6142 38.8721 1.4324 38.9065 1.25689C38.9409 1.08139 39.0269 0.920104 39.1533 0.793638C39.2798 0.667172 39.4411 0.581219 39.6166 0.546812C39.7921 0.512405 39.9739 0.531107 40.1387 0.600462C40.3036 0.669817 40.444 0.786689 40.5422 0.936216C40.6403 1.08574 40.6916 1.2611 40.6896 1.43994C40.6896 1.67598 40.5959 1.90237 40.429 2.06927C40.262 2.23618 40.0357 2.32995 39.7997 2.32995Z" fill="white"/>
</g>
<defs>
<clipPath id="clip0_102_2164">
<rect width="40.99" height="11" fill="white"/>
</clipPath>
</defs>
</svg>
