<svg width="41" height="11" viewBox="0 0 41 11" fill="none" xmlns="http://www.w3.org/2000/svg">
<g opacity="0.6" clip-path="url(#clip0_102_2638)">
<path d="M7.58002 8.99002V10.3C7.58002 10.59 7.48 10.76 7.12 10.76H0.460022C0.100022 10.76 0 10.59 0 10.3V0.709991C0 0.339991 0.180022 0.240021 0.460022 0.240021H2.05005C2.33005 0.240021 2.51001 0.339991 2.51001 0.709991V8.51999H7.12C7.48 8.51999 7.58002 8.70002 7.58002 8.99002Z" fill="white"/>
<path d="M17.3503 7.37997C17.3503 9.90997 14.9503 11 13.0503 11C11.1503 11 8.78027 9.90997 8.78027 7.37997V3.61002C8.78027 1.08002 11.1503 -3.05176e-05 13.0503 -3.05176e-05C14.9503 -3.05176e-05 17.3503 1.09002 17.3503 3.61002V7.37997ZM14.8403 3.84C14.7936 3.40044 14.586 2.99369 14.2573 2.69809C13.9287 2.40249 13.5023 2.23892 13.0602 2.23892C12.6182 2.23892 12.1919 2.40249 11.8632 2.69809C11.5346 2.99369 11.3269 3.40044 11.2803 3.84V7.17001C11.3269 7.60957 11.5346 8.01632 11.8632 8.31192C12.1919 8.60752 12.6182 8.77103 13.0602 8.77103C13.5023 8.77103 13.9287 8.60752 14.2573 8.31192C14.586 8.01632 14.7936 7.60957 14.8403 7.17001V3.84Z" fill="white"/>
<path d="M27.96 7.68997C27.96 9.68997 26.38 10.75 24.16 10.75H19.46C19.1 10.75 19 10.58 19 10.29V0.699982C19 0.409982 19.1 0.230011 19.46 0.230011H23.93C26.54 0.230011 27.65 1.62003 27.65 3.12003C27.695 3.55887 27.6087 4.00113 27.4022 4.39096C27.1957 4.78079 26.8783 5.1006 26.4901 5.30997C26.9436 5.51602 27.3256 5.85239 27.5873 6.27621C27.8491 6.70004 27.9788 7.19217 27.96 7.68997ZM23.26 5.97V4.74997L25.26 3.37997C25.1256 3.13521 24.9349 2.92593 24.7037 2.76944C24.4724 2.61295 24.2072 2.51376 23.93 2.48001H21.46V8.48001H24.14C24.92 8.48001 25.37 7.48001 25.37 7.48001L23.26 5.97Z" fill="white"/>
<path d="M38.2803 10.76H36.6003C36.2503 10.76 36.1203 10.67 36.0003 10.28L35.5503 9.01997H31.6303L31.1803 10.28C31.0603 10.67 30.9303 10.76 30.5803 10.76H28.9003C28.5503 10.76 28.5503 10.51 28.6303 10.31L32.1803 0.740006C32.2092 0.591811 32.2911 0.459199 32.4108 0.367142C32.5305 0.275086 32.6797 0.229912 32.8303 0.240006H34.3703C34.7203 0.240006 34.8803 0.400006 35.0203 0.740006L38.5503 10.31C38.6303 10.51 38.6303 10.76 38.2803 10.76ZM34.8003 6.75996L33.6003 3.23L32.4003 6.75996H34.8003Z" fill="white"/>
<path d="M40.2703 2.00998H40.0703C40.0703 2.00998 40.0103 2.00998 39.9803 1.94998L39.8004 1.68002C39.8004 1.68002 39.8004 1.68 39.8004 1.59V1.44998V1.4C39.8412 1.40287 39.8816 1.38997 39.9133 1.36392C39.9449 1.33788 39.9653 1.30065 39.9703 1.25998C39.9704 1.23941 39.9662 1.21905 39.958 1.20017C39.9499 1.18128 39.9379 1.16431 39.9229 1.15024C39.9079 1.13617 39.8902 1.12536 39.8708 1.11844C39.8514 1.11152 39.8308 1.10865 39.8103 1.11002H39.5803V1.94998V2.00998H39.4103C39.4103 2.00998 39.3604 2.00998 39.3604 1.94998V0.949983C39.3604 0.949983 39.3603 0.899996 39.4103 0.899996H39.8403C39.9016 0.892201 39.9638 0.898011 40.0226 0.917024C40.0814 0.936038 40.1352 0.967773 40.1803 1.00998C40.217 1.04443 40.2458 1.08643 40.2648 1.13303C40.2838 1.17962 40.2925 1.22973 40.2903 1.28C40.2876 1.35643 40.2624 1.43036 40.218 1.49259C40.1735 1.55482 40.1117 1.60257 40.0403 1.62998L40.2903 1.98001C40.2903 1.98001 40.3103 2.00998 40.2703 2.00998Z" fill="white"/>
<path d="M39.7997 0.240019C39.6336 0.224807 39.4661 0.244374 39.308 0.297514C39.1499 0.350653 39.0045 0.436165 38.8813 0.548612C38.7581 0.66106 38.6597 0.797973 38.5923 0.95059C38.525 1.10321 38.4902 1.26815 38.4902 1.43496C38.4902 1.60178 38.525 1.76678 38.5923 1.9194C38.6597 2.07202 38.7581 2.20893 38.8813 2.32138C39.0045 2.43383 39.1499 2.51934 39.308 2.57248C39.4661 2.62562 39.6336 2.64518 39.7997 2.62997C40.0978 2.60268 40.3748 2.46501 40.5766 2.24392C40.7784 2.02284 40.8902 1.73428 40.8902 1.43496C40.8902 1.13565 40.7784 0.847154 40.5766 0.626066C40.3748 0.404978 40.0978 0.267314 39.7997 0.240019ZM39.7997 2.32998C39.6208 2.33196 39.4454 2.28059 39.2959 2.18246C39.1464 2.08433 39.0295 1.94394 38.9601 1.77908C38.8908 1.61423 38.8721 1.43243 38.9065 1.25693C38.9409 1.08142 39.0269 0.920135 39.1533 0.793669C39.2798 0.667202 39.4411 0.58125 39.6166 0.546842C39.7921 0.512435 39.9739 0.531137 40.1387 0.600492C40.3036 0.669847 40.444 0.78672 40.5422 0.936247C40.6403 1.08577 40.6916 1.26113 40.6896 1.43997C40.6896 1.67601 40.5959 1.9024 40.429 2.0693C40.262 2.23621 40.0357 2.32998 39.7997 2.32998Z" fill="white"/>
</g>
<defs>
<clipPath id="clip0_102_2638">
<rect width="40.99" height="11" fill="white"/>
</clipPath>
</defs>
</svg>
