<svg width="41" height="11" viewBox="0 0 41 11" fill="none" xmlns="http://www.w3.org/2000/svg">
<g opacity="0.6" clip-path="url(#clip0_102_1690)">
<path d="M7.58002 8.98999V10.3C7.58002 10.59 7.48 10.7599 7.12 10.7599H0.460022C0.100022 10.7599 0 10.59 0 10.3V0.709961C0 0.339961 0.180022 0.23999 0.460022 0.23999H2.05005C2.33005 0.23999 2.51001 0.339961 2.51001 0.709961V8.51996H7.12C7.48 8.51996 7.58002 8.69999 7.58002 8.98999Z" fill="white"/>
<path d="M17.3493 7.38C17.3493 9.91 14.9493 11 13.0493 11C11.1493 11 8.7793 9.91 8.7793 7.38V3.61005C8.7793 1.08005 11.1493 0 13.0493 0C14.9493 0 17.3493 1.09005 17.3493 3.61005V7.38ZM14.8393 3.84003C14.7926 3.40047 14.585 2.99372 14.2563 2.69812C13.9277 2.40252 13.5013 2.23895 13.0593 2.23895C12.6172 2.23895 12.1909 2.40252 11.8622 2.69812C11.5336 2.99372 11.326 3.40047 11.2793 3.84003V7.17004C11.326 7.6096 11.5336 8.01635 11.8622 8.31195C12.1909 8.60755 12.6172 8.77106 13.0593 8.77106C13.5013 8.77106 13.9277 8.60755 14.2563 8.31195C14.585 8.01635 14.7926 7.6096 14.8393 7.17004V3.84003Z" fill="white"/>
<path d="M27.96 7.68994C27.96 9.68994 26.38 10.7499 24.16 10.7499H19.46C19.1 10.7499 19 10.58 19 10.29V0.699951C19 0.409951 19.1 0.22998 19.46 0.22998H23.93C26.54 0.22998 27.65 1.62 27.65 3.12C27.695 3.55883 27.6087 4.0011 27.4022 4.39093C27.1957 4.78076 26.8783 5.10057 26.4901 5.30994C26.9436 5.51599 27.3256 5.85235 27.5873 6.27618C27.8491 6.70001 27.9788 7.19214 27.96 7.68994ZM23.26 5.96997V4.74994L25.26 3.37994C25.1256 3.13518 24.9349 2.9259 24.7037 2.76941C24.4724 2.61292 24.2072 2.51373 23.93 2.47998H21.46V8.47998H24.14C24.92 8.47998 25.37 7.47998 25.37 7.47998L23.26 5.96997Z" fill="white"/>
<path d="M38.2793 10.7599H36.5993C36.2493 10.7599 36.1193 10.6699 35.9993 10.2799L35.5494 9.01988H31.6293L31.1793 10.2799C31.0593 10.6699 30.9293 10.7599 30.5793 10.7599H28.8993C28.5493 10.7599 28.5493 10.5099 28.6293 10.3099L32.1793 0.739915C32.2082 0.591719 32.2902 0.459107 32.4098 0.367051C32.5295 0.274994 32.6787 0.22982 32.8293 0.239915H34.3693C34.7193 0.239915 34.8793 0.399915 35.0193 0.739915L38.5494 10.3099C38.6294 10.5099 38.6293 10.7599 38.2793 10.7599ZM34.7994 6.75987L33.5993 3.2299L32.3993 6.75987H34.7994Z" fill="white"/>
<path d="M40.2693 2.01007H40.0693C40.0693 2.01007 40.0094 2.01007 39.9794 1.95008L39.7994 1.68012C39.7994 1.68012 39.7994 1.68009 39.7994 1.59009V1.45008V1.40009C39.8403 1.40296 39.8807 1.39006 39.9123 1.36402C39.9439 1.33797 39.9643 1.30074 39.9694 1.26007C39.9694 1.2395 39.9652 1.21914 39.957 1.20026C39.9489 1.18138 39.9369 1.1644 39.9219 1.15033C39.9069 1.13626 39.8892 1.12545 39.8698 1.11853C39.8504 1.11161 39.8298 1.10874 39.8093 1.11011H39.5793V1.95008V2.01007H39.4094C39.4094 2.01007 39.3594 2.01007 39.3594 1.95008V0.950075C39.3594 0.950075 39.3594 0.900087 39.4094 0.900087H39.8394C39.9006 0.892293 39.9628 0.898103 40.0216 0.917116C40.0804 0.936129 40.1342 0.967864 40.1793 1.01007C40.216 1.04453 40.2448 1.08653 40.2638 1.13312C40.2828 1.17971 40.2915 1.22983 40.2894 1.28009C40.2866 1.35652 40.2614 1.43045 40.217 1.49268C40.1725 1.55491 40.1108 1.60267 40.0394 1.63007L40.2894 1.9801C40.2894 1.9801 40.3093 2.01007 40.2693 2.01007Z" fill="white"/>
<path d="M39.7997 0.24011C39.6336 0.224898 39.4661 0.244466 39.308 0.297605C39.1499 0.350745 39.0045 0.436257 38.8813 0.548704C38.7581 0.661151 38.6597 0.798065 38.5923 0.950682C38.525 1.1033 38.4902 1.26824 38.4902 1.43506C38.4902 1.60187 38.525 1.76688 38.5923 1.91949C38.6597 2.07211 38.7581 2.20902 38.8813 2.32147C39.0045 2.43392 39.1499 2.51943 39.308 2.57257C39.4661 2.62571 39.6336 2.64528 39.7997 2.63006C40.0978 2.60277 40.3748 2.4651 40.5766 2.24402C40.7784 2.02293 40.8902 1.73437 40.8902 1.43506C40.8902 1.13574 40.7784 0.847245 40.5766 0.626158C40.3748 0.40507 40.0978 0.267405 39.7997 0.24011ZM39.7997 2.33008C39.6208 2.33205 39.4454 2.28068 39.2959 2.18255C39.1464 2.08443 39.0295 1.94403 38.9601 1.77917C38.8908 1.61432 38.8721 1.43253 38.9065 1.25702C38.9409 1.08151 39.0269 0.920226 39.1533 0.79376C39.2798 0.667294 39.4411 0.581341 39.6166 0.546934C39.7921 0.512527 39.9739 0.531229 40.1387 0.600584C40.3036 0.669939 40.444 0.786811 40.5422 0.936338C40.6403 1.08587 40.6916 1.26122 40.6896 1.44006C40.6896 1.6761 40.5959 1.90249 40.429 2.06939C40.262 2.2363 40.0357 2.33008 39.7997 2.33008Z" fill="white"/>
</g>
<defs>
<clipPath id="clip0_102_1690">
<rect width="40.99" height="11" fill="white"/>
</clipPath>
</defs>
</svg>
