<svg width="15" height="14" viewBox="0 0 15 14" fill="none" xmlns="http://www.w3.org/2000/svg">
<path d="M10.1757 4.19604C11.3098 4.19604 12.3976 4.63784 13.2003 5.42451C14.003 6.21118 14.4551 7.27844 14.4572 8.39202V13.294H11.6056V8.39202C11.5784 8.03902 11.4164 7.70916 11.152 7.46848C10.8876 7.2278 10.5403 7.09407 10.1798 7.09407C9.81925 7.09407 9.47204 7.2278 9.20765 7.46848C8.94326 7.70916 8.78121 8.03902 8.75397 8.39202V13.294H5.90234V8.39202C5.90234 7.27917 6.35255 6.2119 7.15396 5.425C7.95537 4.6381 9.04233 4.19604 10.1757 4.19604Z" fill="white"/>
<path d="M3.05086 4.89404H0.199219V13.294H3.05086V4.89404Z" fill="white"/>
<path d="M1.62877 2.79198C2.41397 2.79198 3.0505 2.16697 3.0505 1.39599C3.0505 0.625005 2.41397 0 1.62877 0C0.843562 0 0.207031 0.625005 0.207031 1.39599C0.207031 2.16697 0.843562 2.79198 1.62877 2.79198Z" fill="white"/>
</svg>
