<svg width="150" height="75" viewBox="0 0 150 75" fill="none" xmlns="http://www.w3.org/2000/svg">
<g clip-path="url(#clip0_106_3762)">
<path d="M28.0951 43.8804C27.5133 43.6545 27.3375 43.2519 27.5702 42.6726L32.7672 29.8155C32.987 29.3324 33.3283 29.0908 33.7937 29.0908H33.8376C34.3108 29.1116 34.6314 29.3532 34.7995 29.8155L40.0844 42.6726C40.3171 43.2493 40.149 43.6519 39.5828 43.8804C39.0088 44.1064 38.608 43.9402 38.3805 43.3765L37.2015 40.5038H30.3988L29.2741 43.3765C29.0491 43.948 28.6561 44.1142 28.0951 43.8804ZM31.1202 38.6596H36.4491L33.7316 32.0129L31.1228 38.6596H31.1202Z" fill="white"/>
<path d="M43.6679 43.9686C43.355 43.9686 43.1223 43.8933 42.9749 43.7427C42.825 43.592 42.75 43.3609 42.75 43.0466V30.0362C42.75 29.7141 42.825 29.4803 42.9749 29.3349C43.1249 29.1894 43.355 29.1167 43.6679 29.1167C43.9807 29.1167 44.2212 29.1894 44.366 29.3349C44.5108 29.4803 44.5832 29.7141 44.5832 30.0362V43.0466C44.5832 43.3609 44.5108 43.592 44.366 43.7427C44.2212 43.8933 43.9885 43.9686 43.6679 43.9686Z" fill="white"/>
<path d="M56.6344 43.9688C55.4554 43.9688 54.5789 43.683 54.0049 43.1116C53.4335 42.5402 53.1465 41.6649 53.1465 40.4856V38.4129C53.1465 37.2155 53.4335 36.3324 54.0049 35.7636C54.5763 35.1947 55.4528 34.9116 56.6344 34.9116H58.0927C59.2795 34.9116 60.156 35.1973 60.7248 35.7688C61.2937 36.3402 61.5781 37.2233 61.5781 38.4129V40.4675C61.5781 41.6519 61.2937 42.5324 60.7248 43.1064C60.156 43.6805 59.2769 43.9688 58.0927 43.9688H56.6344ZM54.641 40.4856C54.641 41.2545 54.7806 41.7766 55.0598 42.0545C55.3391 42.3324 55.8639 42.4701 56.6344 42.4701H58.0927C58.8684 42.4701 59.3958 42.3298 59.6725 42.0493C59.9491 41.7688 60.0862 41.2415 60.0862 40.4675V38.4129C60.0862 37.6337 59.9491 37.1038 59.6725 36.8259C59.3958 36.548 58.871 36.4103 58.0927 36.4103H56.6344C56.1173 36.4103 55.7166 36.4675 55.4296 36.5843C55.1426 36.7012 54.9383 36.9038 54.8194 37.1921C54.7004 37.4805 54.641 37.8882 54.641 38.4103V40.483V40.4856Z" fill="#0047BB"/>
<path d="M65.1183 43.9687C64.6219 43.9687 64.3711 43.7193 64.3711 43.218V35.6596C64.3711 35.1583 64.6193 34.9089 65.1183 34.9089C65.6173 34.9089 65.8656 35.1583 65.8656 35.6596V35.9557C66.4939 35.2596 67.4195 34.9115 68.6399 34.9115H69.1389C70.3257 34.9115 71.2022 35.1973 71.771 35.7687C72.3399 36.3401 72.6243 37.2232 72.6243 38.4128V43.2206C72.6243 43.7219 72.3761 43.9713 71.877 43.9713C71.378 43.9713 71.1298 43.7219 71.1298 43.2206V38.4128C71.1298 37.6336 70.9876 37.1037 70.7084 36.8258C70.4265 36.5479 69.9042 36.4102 69.1389 36.4102H68.6399C67.9289 36.4102 67.3083 36.4934 66.7809 36.657C66.2534 36.8206 65.9483 37.0778 65.8656 37.431V43.2206C65.8656 43.7219 65.6173 43.9713 65.1183 43.9713V43.9687Z" fill="#0047BB"/>
<path d="M81.5187 43.9687C81.0197 43.9687 80.7715 43.7193 80.7715 43.218V32.6025C80.7715 32.1012 81.0197 31.8518 81.5187 31.8518H85.8056C87.3544 31.8518 88.492 32.2206 89.2237 32.9557C89.9555 33.6908 90.3226 34.8362 90.3226 36.3921V39.431C90.3226 40.9869 89.9606 42.1297 89.2341 42.8674C88.5075 43.6025 87.3647 43.9713 85.8056 43.9713H81.5187V43.9687ZM82.266 42.4674H85.8056C86.5632 42.4674 87.1656 42.3739 87.6052 42.1869C88.0473 41.9999 88.3602 41.683 88.5489 41.2388C88.7351 40.7947 88.8307 40.1921 88.8307 39.4284V36.3895C88.8307 35.6336 88.7377 35.0336 88.5489 34.5895C88.3628 34.1453 88.0473 33.8284 87.6052 33.6388C87.163 33.4492 86.5632 33.3531 85.8056 33.3531H82.266V42.4674Z" fill="white"/>
<path d="M94.1829 40.057V40.4855C94.1829 41.2544 94.3226 41.7764 94.6018 42.0544C94.881 42.3323 95.4059 42.4699 96.1764 42.4699H97.6347C98.2397 42.4699 98.687 42.4128 98.9766 42.3011C99.2662 42.1868 99.4601 41.9894 99.5558 41.7037C99.6204 41.4777 99.7109 41.3037 99.8273 41.1868C99.9436 41.0673 100.119 41.0076 100.357 41.0076C100.595 41.0076 100.797 41.0725 100.926 41.205C101.055 41.3349 101.097 41.5271 101.05 41.7764C100.921 42.5141 100.569 43.0673 100.001 43.4284C99.4317 43.792 98.6431 43.9738 97.6347 43.9738H96.1764C94.9974 43.9738 94.1209 43.6881 93.5469 43.1167C92.9755 42.5453 92.6885 41.6699 92.6885 40.4907V38.418C92.6885 37.2076 92.9755 36.3193 93.5469 35.7505C94.1183 35.1816 94.9948 34.9037 96.1764 34.9141H97.6347C98.8215 34.9141 99.698 35.1998 100.267 35.766C100.836 36.3349 101.12 37.218 101.12 38.4154V39.3089C101.12 39.8102 100.872 40.0596 100.373 40.0596H94.1829V40.057ZM96.1764 36.4128C95.4059 36.3998 94.881 36.5349 94.6018 36.8154C94.3226 37.0959 94.1829 37.6284 94.1829 38.4154V38.5583H99.6256V38.4154C99.6256 37.6362 99.4886 37.1063 99.2119 36.8284C98.9352 36.5505 98.4104 36.4128 97.6321 36.4128H96.1738H96.1764Z" fill="white"/>
<path d="M113.784 34.9089C114.903 34.9089 115.71 35.1739 116.198 35.7037C116.687 36.2336 116.933 37.1115 116.933 38.3401V43.218C116.933 43.7193 116.685 43.9687 116.186 43.9687C115.687 43.9687 115.438 43.7193 115.438 43.218V38.3401C115.438 37.6622 115.309 37.1687 115.05 36.8648C114.792 36.5609 114.37 36.4102 113.784 36.4102H113.054C112.38 36.4102 111.896 36.5609 111.604 36.8648C111.314 37.1687 111.169 37.6596 111.169 38.3401V43.218C111.169 43.7193 110.921 43.9687 110.422 43.9687C109.923 43.9687 109.675 43.7193 109.675 43.218V38.3401C109.675 37.6622 109.546 37.1687 109.287 36.8648C109.029 36.5609 108.607 36.4102 108.02 36.4102H107.291C106.616 36.4102 106.133 36.5609 105.841 36.8648C105.551 37.1687 105.404 37.6596 105.404 38.3401V43.218C105.404 43.7193 105.155 43.9687 104.656 43.9687C104.157 43.9687 103.909 43.7193 103.909 43.218V35.6596C103.909 35.1583 104.157 34.9089 104.656 34.9089C105.155 34.9089 105.404 35.1583 105.404 35.6596V36.07C105.719 35.6596 106.063 35.3635 106.44 35.1817C106.818 34.9998 107.265 34.9089 107.788 34.9089H108.018C108.752 34.9089 109.331 35.0128 109.753 35.218C110.174 35.4232 110.495 35.7557 110.712 36.2154C111.027 35.7453 111.361 35.4102 111.712 35.2102C112.064 35.0102 112.511 34.9115 113.052 34.9115H113.781L113.784 34.9089Z" fill="white"/>
<path d="M122.394 43.9687C121.399 43.9687 120.657 43.7245 120.171 43.2362C119.684 42.7479 119.441 42.0024 119.441 41.0024C119.441 40.0024 119.682 39.257 120.165 38.7687C120.649 38.2804 121.391 38.0362 122.394 38.0362H126.156C126.12 37.4102 125.957 36.9843 125.667 36.7531C125.378 36.5245 124.879 36.4102 124.173 36.4102H123.141C122.549 36.4102 122.107 36.4492 121.815 36.5297C121.525 36.6102 121.321 36.7557 121.202 36.9635C121.096 37.2128 120.985 37.3869 120.874 37.483C120.763 37.5791 120.592 37.6258 120.367 37.6258C120.119 37.6258 119.922 37.5557 119.78 37.4154C119.638 37.2752 119.597 37.0882 119.656 36.857C119.834 36.1843 120.207 35.6908 120.773 35.3791C121.339 35.0674 122.13 34.9089 123.144 34.9089H124.176C125.362 34.9089 126.239 35.1947 126.808 35.7661C127.377 36.3375 127.661 37.2206 127.661 38.4102V43.218C127.661 43.7193 127.413 43.9687 126.914 43.9687C126.415 43.9687 126.167 43.7193 126.167 43.218V42.8154C125.53 43.5843 124.607 43.9687 123.392 43.9687H122.397H122.394ZM122.394 42.4674H123.39C123.829 42.4674 124.24 42.4284 124.625 42.3479C125.011 42.2674 125.342 42.1193 125.618 41.9063C125.892 41.6908 126.076 41.3843 126.167 40.9869V39.5401H122.397C121.81 39.5401 121.419 39.6388 121.225 39.8336C121.034 40.031 120.936 40.4206 120.936 41.005C120.936 41.5895 121.032 41.9869 121.225 42.1791C121.419 42.3739 121.807 42.47 122.397 42.47L122.394 42.4674Z" fill="white"/>
<path d="M131.446 43.9687C130.95 43.9687 130.699 43.7193 130.699 43.218V35.6596C130.699 35.1583 130.947 34.9089 131.446 34.9089C131.945 34.9089 132.194 35.1583 132.194 35.6596V35.9557C132.822 35.2596 133.748 34.9115 134.968 34.9115H135.467C136.654 34.9115 137.53 35.1973 138.099 35.7687C138.668 36.3401 138.952 37.2232 138.952 38.4128V43.2206C138.952 43.7219 138.704 43.9713 138.205 43.9713C137.706 43.9713 137.458 43.7219 137.458 43.2206V38.4128C137.458 37.6336 137.316 37.1037 137.036 36.8258C136.755 36.5479 136.232 36.4102 135.467 36.4102H134.968C134.257 36.4102 133.636 36.4934 133.109 36.657C132.582 36.8206 132.276 37.0778 132.194 37.431V43.2206C132.194 43.7219 131.945 43.9713 131.446 43.9713V43.9687Z" fill="white"/>
<path d="M145.054 43.9687C143.875 43.9687 142.999 43.6804 142.425 43.1064C141.853 42.5324 141.566 41.6518 141.566 40.4674V38.4129C141.566 37.2207 141.853 36.3401 142.425 35.7687C142.996 35.1973 143.873 34.9116 145.054 34.9116H148.504V32.1427C148.504 31.6414 148.752 31.3921 149.251 31.3921C149.75 31.3921 149.998 31.6414 149.998 32.1427V43.2207C149.998 43.722 149.75 43.9713 149.251 43.9713C148.752 43.9713 148.504 43.722 148.504 43.2207V43.096C148.224 43.3817 147.86 43.5999 147.41 43.7479C146.96 43.896 146.399 43.9713 145.729 43.9713H145.054V43.9687ZM145.054 42.4674H145.729C146.513 42.4674 147.169 42.3661 147.705 42.1635C148.24 41.9609 148.506 41.6518 148.506 41.2336V36.4103H145.057C144.286 36.4103 143.762 36.5505 143.482 36.8336C143.203 37.1168 143.063 37.6414 143.063 38.4103V40.4648C143.063 41.2388 143.206 41.7661 143.485 42.0466C143.767 42.3272 144.289 42.4674 145.054 42.4674Z" fill="white"/>
<path d="M63.551 63.1427C63.8122 62.8804 63.8199 62.4518 63.5562 62.1895L53.1337 51.7168C52.8726 51.4544 52.4356 51.4544 52.1848 51.7168C51.9237 51.9791 51.9159 52.4077 52.1796 52.67L62.6021 63.1427C62.734 63.2752 62.9072 63.3401 63.0804 63.3401C63.2537 63.3401 63.4269 63.2752 63.5536 63.1427H63.551Z" fill="#C5C6C8"/>
<path d="M55.929 69.0208C56.2496 68.8338 56.3582 68.4208 56.1746 68.0988L48.8005 55.2702C48.6066 54.9455 48.1929 54.8364 47.8827 55.0234C47.562 55.2104 47.4534 55.6234 47.637 55.9455L55.0111 68.7741C55.1378 68.9897 55.3627 69.1117 55.5929 69.1117C55.7092 69.1117 55.823 69.0832 55.929 69.0208Z" fill="#C5C6C8"/>
<path d="M47.0476 72.7143C47.4044 72.6182 47.619 72.2468 47.5259 71.8884L43.7096 57.5819C43.6088 57.2208 43.221 57.0026 42.8848 57.1039C42.528 57.2 42.3134 57.5715 42.4065 57.9299L46.2228 72.2364C46.3056 72.5403 46.5745 72.7377 46.8744 72.7377C46.9313 72.7377 46.9907 72.7299 47.0476 72.7143Z" fill="#C5C6C8"/>
<path d="M38.1892 73.2987V58.4883C38.1892 58.1169 37.8893 57.813 37.517 57.813C37.1447 57.813 36.8447 58.1169 36.8447 58.4883V73.2987C36.8447 73.6701 37.1447 73.974 37.517 73.974C37.8893 73.974 38.1892 73.6701 38.1892 73.2987Z" fill="#C5C6C8"/>
<path d="M28.814 72.2363L32.6303 57.9298C32.726 57.5713 32.5088 57.1999 32.152 57.1038C31.7952 57.0129 31.428 57.2207 31.3272 57.5817L27.5109 71.8882C27.4152 72.2467 27.6324 72.6181 27.9892 72.7142C28.0461 72.7298 28.1056 72.7376 28.1624 72.7376C28.4624 72.7376 28.7287 72.5402 28.814 72.2363Z" fill="#C5C6C8"/>
<path d="M20.0275 68.774L27.3964 55.9454C27.58 55.6208 27.4688 55.2104 27.1508 55.0233C26.8328 54.8363 26.4165 54.948 26.2329 55.2701L18.864 68.0987C18.6804 68.4233 18.7916 68.8337 19.1096 69.0208C19.2156 69.0805 19.3294 69.1117 19.4458 69.1117C19.6759 69.1117 19.9034 68.9896 20.0275 68.774Z" fill="#C5C6C8"/>
<path d="M12.4394 63.1427L22.8618 52.67C23.123 52.4077 23.1178 51.9791 22.8567 51.7168C22.6059 51.4544 22.1689 51.4544 21.9078 51.7168L11.4853 62.1895C11.2241 62.4518 11.2293 62.8804 11.4905 63.1427C11.6171 63.2752 11.7904 63.3401 11.9636 63.3401C12.1369 63.3401 12.3101 63.2752 12.4419 63.1427H12.4394Z" fill="#C5C6C8"/>
<path d="M6.54904 55.7298L19.3192 48.3246C19.6398 48.1376 19.7484 47.7246 19.5649 47.4025C19.3761 47.0778 18.9573 46.9687 18.647 47.1558L5.87679 54.5609C5.55618 54.748 5.44759 55.1609 5.63116 55.483C5.75786 55.6986 5.9828 55.8207 6.21292 55.8207C6.32927 55.8207 6.44303 55.7921 6.54904 55.7298Z" fill="#C5C6C8"/>
<path d="M37.517 16.161C37.1447 16.161 36.8447 15.8571 36.8447 15.4857V0.675325C36.8447 0.303896 37.1447 0 37.517 0C37.8893 0 38.1892 0.303896 38.1892 0.675325V15.4857C38.1892 15.8571 37.8893 16.161 37.517 16.161Z" fill="#C5C6C8"/>
<path d="M43.7095 16.3922L47.5258 2.08568C47.6215 1.72723 47.4043 1.35581 47.0475 1.2597C46.6855 1.1636 46.3236 1.37918 46.2227 1.73762L42.4064 16.0441C42.3107 16.4026 42.5279 16.774 42.8847 16.8701C42.9416 16.8857 43.0011 16.8935 43.058 16.8935C43.3579 16.8935 43.6242 16.6961 43.7095 16.3922Z" fill="#C5C6C8"/>
<path d="M48.8 18.7039L56.1741 5.87533C56.3576 5.55325 56.2465 5.14026 55.9284 4.95325C55.6078 4.77143 55.1993 4.87533 55.0105 5.2L47.6365 18.0286C47.4529 18.3507 47.5641 18.7636 47.8821 18.9507C47.9881 19.0104 48.1019 19.0416 48.2182 19.0416C48.4483 19.0416 48.6759 18.9195 48.8 18.7039Z" fill="#C5C6C8"/>
<path d="M53.1308 22.2597L63.5533 11.787C63.8144 11.5246 63.8092 11.0961 63.5481 10.8337C63.2973 10.5714 62.8603 10.5714 62.5992 10.8337L52.1767 21.3064C51.9155 21.5688 51.9207 21.9974 52.1819 22.2597C52.3086 22.3922 52.4818 22.4571 52.655 22.4571C52.8283 22.4571 53.0015 22.3922 53.1334 22.2597H53.1308Z" fill="#C5C6C8"/>
<path d="M56.3918 26.8208L69.162 19.4156C69.4826 19.2286 69.5912 18.8156 69.4076 18.4936C69.2137 18.1689 68.8052 18.0598 68.4898 18.2468L55.7196 25.652C55.399 25.839 55.2904 26.252 55.4739 26.5741C55.6006 26.7897 55.8256 26.9118 56.0557 26.9118C56.172 26.9118 56.2858 26.8832 56.3918 26.8208Z" fill="#C5C6C8"/>
<path d="M2.77719 47.0364L17.016 43.2026C17.3728 43.1065 17.5874 42.7351 17.4943 42.3767C17.3935 42.013 17.0057 41.7948 16.6695 41.8987L2.43073 45.7325C2.07392 45.8286 1.85931 46.2 1.95239 46.5585C2.03513 46.8624 2.30403 47.0598 2.60396 47.0598C2.66084 47.0598 2.72031 47.052 2.77719 47.0364Z" fill="#C5C6C8"/>
<path d="M16.7909 36.9871C16.7909 36.6157 16.491 36.3118 16.1187 36.3118H1.37049C0.99817 36.3118 0.698242 36.6157 0.698242 36.9871C0.698242 37.3585 0.99817 37.6624 1.37049 37.6624H16.1187C16.491 37.6624 16.7909 37.3585 16.7909 36.9871Z" fill="#C5C6C8"/>
<path d="M17.4942 31.5949C17.5899 31.2364 17.3727 30.865 17.0159 30.7689L2.77709 26.9351C2.43062 26.8442 2.0583 27.052 1.95229 27.413C1.85662 27.7715 2.07381 28.1429 2.43062 28.239L16.6694 32.0728C16.7263 32.0884 16.7858 32.0962 16.8427 32.0962C17.1426 32.0962 17.4089 31.8988 17.4942 31.5949Z" fill="#C5C6C8"/>
<path d="M19.5672 26.574C19.7508 26.2519 19.6396 25.8389 19.3216 25.6519L6.55141 18.2467C6.2308 18.0597 5.82228 18.1714 5.63353 18.4935C5.44995 18.8156 5.56113 19.2286 5.87916 19.4156L18.6494 26.8208C18.7554 26.8805 18.8691 26.9117 18.9855 26.9117C19.2156 26.9117 19.4431 26.7896 19.5672 26.574Z" fill="#C5C6C8"/>
<path d="M22.8567 22.2597C23.1178 21.9974 23.1256 21.5688 22.8619 21.3064L12.4394 10.8337C12.1782 10.5714 11.7413 10.5714 11.4905 10.8337C11.2293 11.0961 11.2216 11.5246 11.4853 11.787L21.9078 22.2597C22.0396 22.3922 22.2129 22.4571 22.3861 22.4571C22.5593 22.4571 22.7326 22.3922 22.8593 22.2597H22.8567Z" fill="#C5C6C8"/>
<path d="M27.1514 18.9532C27.472 18.7662 27.5806 18.3558 27.397 18.0311L20.0281 5.20253C19.8342 4.87525 19.4256 4.77396 19.1102 4.95577C18.7896 5.14279 18.681 5.55318 18.8646 5.87785L26.2335 18.7064C26.3602 18.922 26.5851 19.0441 26.8152 19.0441C26.9316 19.0441 27.0453 19.0155 27.1514 18.9532Z" fill="#C5C6C8"/>
<path d="M32.1521 16.8701C32.5089 16.774 32.7235 16.4026 32.6304 16.0442L28.8141 1.73768C28.7133 1.37404 28.3306 1.15326 27.9893 1.25975C27.6325 1.35586 27.4179 1.72729 27.511 2.08573L31.3273 16.3922C31.41 16.6961 31.6789 16.8935 31.9789 16.8935C32.0358 16.8935 32.0952 16.8857 32.1521 16.8701Z" fill="#C5C6C8"/>
<path d="M43.0603 17.2181C42.9776 17.2181 42.8871 17.2077 42.8043 17.1844C42.2743 17.0415 41.9588 16.4935 42.101 15.961L44.0738 8.55319C44.216 8.02332 44.7564 7.69605 45.2916 7.8467C45.8217 7.98956 46.1371 8.53761 45.9949 9.07008L44.0221 16.4779C43.9006 16.9246 43.5024 17.2181 43.0629 17.2181H43.0603ZM49.0795 18.8649L52.0555 13.6883C52.3296 13.2103 52.1667 12.6025 51.6935 12.3246C51.2152 12.0441 50.6076 12.2129 50.3335 12.6909L47.3575 17.8675C47.0835 18.3454 47.2463 18.9532 47.7195 19.2311C47.8772 19.3246 48.0505 19.3662 48.2185 19.3662C48.5598 19.3662 48.896 19.187 49.0795 18.8649ZM53.2785 22.4129L56.5286 19.1506C56.8751 18.8025 56.8751 18.2389 56.5338 17.8909C56.1873 17.5428 55.6262 17.5428 55.2798 17.8909L52.0297 21.1532C51.6832 21.5012 51.6832 22.0649 52.0245 22.4129C52.1977 22.587 52.4279 22.6727 52.6554 22.6727C52.8829 22.6727 53.1079 22.587 53.2811 22.4129H53.2785ZM56.4691 26.961L59.4658 25.2233C59.864 24.9922 60.001 24.4805 59.7709 24.0805C59.546 23.6831 59.0366 23.5402 58.6384 23.774L55.6417 25.5116C55.2436 25.7428 55.1065 26.2545 55.3366 26.6545C55.4892 26.9246 55.7658 27.0701 56.0554 27.0701C56.1976 27.0701 56.3398 27.0363 56.4691 26.9584V26.961ZM64.3888 63.9818C65.1127 63.2545 65.1127 62.0727 64.3888 61.3454L53.9663 50.8727C53.2423 50.1454 52.0659 50.1454 51.3419 50.8727C50.618 51.6 50.618 52.7818 51.3419 53.509L61.7644 63.9818C62.1264 64.3454 62.6047 64.5272 63.0753 64.5272C63.5459 64.5272 64.0242 64.3454 64.3862 63.9818H64.3888ZM56.495 70C57.356 69.5013 57.6507 68.3948 57.1517 67.5298L49.7776 54.7013C49.2786 53.8285 48.1616 53.535 47.3162 54.0389C46.4552 54.5376 46.1604 55.6441 46.6594 56.509L54.0335 69.3376C54.3645 69.9168 54.9721 70.2415 55.5926 70.2415C55.9029 70.2415 56.2131 70.1662 56.495 70ZM47.3265 73.7558C48.2599 73.5064 48.8106 72.5428 48.5598 71.6077L44.7435 57.3013C44.503 56.3688 43.5671 55.8207 42.6078 56.0597C41.6744 56.309 41.1237 57.2727 41.3745 58.2077L45.1908 72.5142C45.3951 73.2987 46.1035 73.8155 46.8766 73.8155C47.024 73.8155 47.1765 73.7948 47.3291 73.7558H47.3265ZM39.2129 73.2961V58.4857C39.2129 57.548 38.4528 56.7844 37.5168 56.7844C36.5808 56.7844 35.8207 57.5454 35.8207 58.4857V73.2961C35.8207 74.2337 36.5808 74.9974 37.5168 74.9974C38.4528 74.9974 39.2129 74.2363 39.2129 73.2961ZM29.7497 72.4857L33.566 58.1792C33.7962 57.2987 33.2764 56.3974 32.4051 56.1636C31.5389 55.9298 30.6366 56.4493 30.3961 57.3272L26.5798 71.6337C26.3497 72.5142 26.8694 73.4155 27.7407 73.6493C27.8829 73.6883 28.0251 73.7064 28.1647 73.7064C28.8887 73.7064 29.5506 73.2207 29.7497 72.4857ZM20.8217 69.2259L28.1906 56.3974C28.625 55.6363 28.3638 54.6597 27.6088 54.2233C26.8487 53.787 25.8817 54.0389 25.4421 54.8051L18.0732 67.6337C17.6388 68.3948 17.9 69.3714 18.655 69.8077C18.9058 69.9532 19.1747 70.0207 19.4488 70.0207C19.9943 70.0207 20.5295 69.735 20.8243 69.2233L20.8217 69.2259ZM13.0443 63.748L23.4667 53.2753C24.064 52.6753 24.064 51.6987 23.4667 51.0987C22.8695 50.4987 21.9025 50.4987 21.3052 51.0987L10.8827 61.5714C10.2854 62.1714 10.2854 63.148 10.8827 63.748C11.1826 64.0493 11.5705 64.2 11.9635 64.2C12.3565 64.2 12.7443 64.0493 13.0443 63.748ZM6.95522 56.4233L19.7254 49.0181C20.4287 48.6077 20.6743 47.7012 20.2658 46.987C19.8573 46.2753 18.9549 46.0363 18.2439 46.4441L5.47368 53.8493C4.7704 54.2597 4.52477 55.1662 4.93329 55.8805C5.20736 56.3558 5.70379 56.6207 6.21315 56.6207C6.46396 56.6207 6.71734 56.5584 6.95263 56.4233H6.95522ZM2.97083 47.761L17.2096 43.9272C17.9698 43.7246 18.4223 42.9376 18.218 42.1766C18.0138 41.4129 17.2148 40.948 16.4753 41.1636L2.23653 44.9974C1.47637 45.2 1.02389 45.987 1.22815 46.748C1.39621 47.3896 1.9728 47.8103 2.60368 47.8103C2.7252 47.8103 2.84931 47.7948 2.97083 47.761ZM17.4889 36.9818C17.4889 36.2233 16.8735 35.6051 16.1185 35.6051H1.37036C0.615369 35.6051 0 36.2233 0 36.9818C0 37.7402 0.615369 38.3584 1.37036 38.3584H16.1185C16.8735 38.3584 17.4889 37.7402 17.4889 36.9818ZM18.1146 31.7584C18.3033 31.0519 17.8896 30.3272 17.1864 30.1376L2.94756 26.3038C2.20809 26.1194 1.52032 26.5376 1.33675 27.2389C1.148 27.9454 1.56169 28.6701 2.26497 28.8597L16.5038 32.6935C16.6201 32.722 16.7339 32.7376 16.8451 32.7376C17.4268 32.7376 17.9569 32.348 18.1146 31.7558V31.7584ZM20.077 26.8649C20.4287 26.2571 20.2193 25.4805 19.6142 25.1298L6.84145 17.7272C6.23384 17.374 5.46075 17.5818 5.11945 18.1922C4.76781 18.7999 4.97725 19.5766 5.58227 19.9272L18.355 27.3298C18.5541 27.4467 18.7687 27.4986 18.9859 27.4986C19.4203 27.4986 19.8469 27.2727 20.077 26.8649ZM23.2418 22.6363C23.715 22.161 23.715 21.3922 23.2418 20.9168L13.4735 11.1012C13.0003 10.6259 12.235 10.6259 11.7618 11.1012C11.2887 11.5766 11.2887 12.3454 11.7618 12.8207L21.5301 22.6363C21.7654 22.8727 22.0757 22.9922 22.386 22.9922C22.6962 22.9922 23.0065 22.8727 23.2418 22.6363ZM27.3942 19.3636C27.945 19.0441 28.1337 18.3324 27.8183 17.7792L21.5043 6.79215C21.1785 6.23631 20.4701 6.0467 19.9245 6.36878C19.3738 6.68826 19.185 7.39995 19.5005 7.95319L25.8145 18.9402C26.0291 19.3116 26.4169 19.5194 26.8177 19.5194C27.0168 19.5194 27.2107 19.4701 27.3942 19.3636ZM32.2655 17.2805C32.8524 17.122 33.204 16.5142 33.0463 15.922L30.1867 5.18956C30.029 4.59994 29.4265 4.25709 28.837 4.40774C28.2501 4.56618 27.8984 5.17397 28.0562 5.76618L30.9158 16.4986C31.0477 16.9922 31.4924 17.3194 31.9811 17.3194C32.0767 17.3194 32.1698 17.3064 32.2655 17.2831V17.2805ZM38.5691 15.4779V6.06228C38.5691 5.48046 38.096 5.01033 37.5194 5.01033C36.9428 5.01033 36.4696 5.48046 36.4696 6.06228V15.4857C36.4696 16.0675 36.9428 16.5376 37.5194 16.5376C38.096 16.5376 38.5691 16.0675 38.5691 15.4857V15.4779Z" fill="url(#paint0_linear_106_3762)"/>
<path d="M80.7843 53.8259C80.6705 53.8259 80.6162 53.7687 80.6162 53.6571V49.8778C80.6162 49.7661 80.6731 49.709 80.7843 49.709C80.8955 49.709 80.9497 49.7661 80.9497 49.8778V51.7142L82.8398 49.7687C82.9174 49.6908 82.9924 49.6882 83.0725 49.7661C83.1553 49.8441 83.1578 49.922 83.0777 50.0051L81.653 51.4726L83.3285 53.5609C83.3983 53.6493 83.3905 53.7272 83.3052 53.7973C83.2173 53.8674 83.1397 53.8596 83.0725 53.7739L81.4177 51.7142L80.9472 52.1973V53.6571C80.9472 53.7687 80.8929 53.8259 80.7817 53.8259H80.7843Z" fill="white"/>
<path d="M84.1612 53.826C84.05 53.826 83.9932 53.7689 83.9932 53.6572V50.9741C83.9932 50.8624 84.05 50.8079 84.1612 50.8079C84.2724 50.8079 84.3267 50.8624 84.3267 50.9741V51.2806C84.5284 50.9663 84.8929 50.8079 85.4204 50.8079H85.5988C85.9944 50.8079 86.284 50.8988 86.4676 51.0832C86.6511 51.2676 86.7416 51.5585 86.7416 51.9559V53.6546C86.7416 53.7663 86.6873 53.8234 86.5762 53.8234C86.465 53.8234 86.4081 53.7663 86.4081 53.6546V51.9559C86.4081 51.652 86.3486 51.439 86.2297 51.3195C86.1108 51.2001 85.8987 51.1403 85.5988 51.1403H85.4204C85.092 51.1403 84.8335 51.1923 84.6447 51.2962C84.456 51.4001 84.35 51.5637 84.3267 51.7845V53.6546C84.3267 53.7663 84.2724 53.8234 84.1612 53.8234V53.826Z" fill="white"/>
<path d="M88.8101 53.826C88.4145 53.826 88.1223 53.7351 87.9388 53.5507C87.7552 53.3663 87.6621 53.0754 87.6621 52.6806V51.9585C87.6621 51.5559 87.7552 51.2624 87.9388 51.078C88.1223 50.8935 88.4145 50.8026 88.8101 50.8078H89.3324C89.728 50.8078 90.0202 50.8987 90.2011 51.0832C90.3847 51.2676 90.4752 51.5585 90.4752 51.9559V52.6702C90.4752 53.0676 90.3847 53.3611 90.2011 53.5455C90.0176 53.7299 89.728 53.8234 89.3324 53.8234H88.8101V53.826ZM87.9956 52.678C87.9956 52.9793 88.0551 53.1896 88.1766 53.3091C88.2982 53.4286 88.5076 53.4909 88.8101 53.4909H89.3324C89.6349 53.4909 89.8469 53.4312 89.9659 53.3091C90.0848 53.1896 90.1443 52.9767 90.1443 52.6728V51.9585C90.1443 51.6546 90.0848 51.4416 89.9659 51.3221C89.8469 51.2026 89.6349 51.1429 89.3324 51.1429H88.8101C88.6058 51.1429 88.4455 51.1663 88.3266 51.2156C88.2077 51.2676 88.1223 51.3533 88.0732 51.4702C88.0215 51.5896 87.9956 51.7507 87.9956 51.9559V52.678Z" fill="white"/>
<path d="M91.9846 53.8259C91.8838 53.8259 91.8191 53.7791 91.7907 53.6882L90.8935 51.0337C90.8573 50.9246 90.8935 50.8545 90.9995 50.8207C91.1029 50.7895 91.1727 50.8233 91.2064 50.9272L92.0777 53.4934H91.9432L92.7758 50.9765C92.8042 50.8882 92.8689 50.8415 92.9671 50.8415C93.0654 50.8415 93.1197 50.8882 93.1481 50.9791L93.9264 53.4856H93.7868L94.7021 50.9272C94.7434 50.8181 94.8158 50.7843 94.9192 50.8207C95.0253 50.8623 95.0589 50.9324 95.0201 51.0389L94.0376 53.6908C94.004 53.7817 93.9367 53.8285 93.8411 53.8285C93.7325 53.8285 93.6652 53.7817 93.6368 53.6908L92.9154 51.3687H92.9801L92.1863 53.6908C92.1682 53.7454 92.1423 53.7791 92.1061 53.7999C92.0699 53.8181 92.0286 53.8285 91.9846 53.8285V53.8259Z" fill="white"/>
<path d="M96.5282 53.8259C96.2283 53.8259 96.0059 53.7558 95.8663 53.6156C95.7241 53.4753 95.6543 53.2545 95.6543 52.9532V49.561C95.6543 49.4493 95.7112 49.3948 95.8224 49.3948C95.9335 49.3948 95.9878 49.4493 95.9878 49.561V52.9532C95.9878 53.1584 96.0266 53.3013 96.1016 53.3766C96.1766 53.4519 96.3188 53.4909 96.5256 53.4909C96.6394 53.4909 96.6989 53.5454 96.6989 53.6571C96.6989 53.7688 96.6446 53.8259 96.5308 53.8259H96.5282Z" fill="white"/>
<path d="M97.5025 52.4467V52.6805C97.5025 52.9818 97.562 53.1922 97.6835 53.3117C97.8024 53.4311 98.0144 53.4935 98.3169 53.4935H98.8392C99.1055 53.4935 99.3021 53.4597 99.4236 53.3896C99.5451 53.3194 99.6175 53.2 99.6408 53.0311C99.6485 52.9766 99.6666 52.9376 99.6925 52.9091C99.7183 52.8805 99.7597 52.8675 99.814 52.8675C99.8683 52.8675 99.9122 52.8831 99.9407 52.9143C99.9691 52.9454 99.9795 52.9896 99.9743 53.0441C99.9459 53.3117 99.8399 53.5117 99.6537 53.6389C99.4675 53.7662 99.196 53.8311 98.8392 53.8311H98.3169C97.9214 53.8311 97.6292 53.7402 97.4456 53.5558C97.262 53.3714 97.1689 53.0805 97.1689 52.6857V51.9636C97.1689 51.561 97.262 51.2675 97.4456 51.0831C97.6292 50.8987 97.9214 50.8078 98.3169 50.813H98.8392C99.2348 50.813 99.5244 50.9039 99.708 51.0883C99.8916 51.2727 99.9821 51.5636 99.9821 51.961V52.2805C99.9821 52.3922 99.9278 52.4493 99.8166 52.4493H97.5025V52.4467ZM98.3169 51.1428C98.0144 51.1376 97.8024 51.1974 97.6835 51.3169C97.5645 51.4363 97.5025 51.6519 97.5025 51.9584V52.1117H99.6485V51.9584C99.6485 51.6545 99.589 51.4415 99.4701 51.322C99.3512 51.2026 99.1392 51.1428 98.8366 51.1428H98.3144H98.3169Z" fill="white"/>
<path d="M102.019 53.826C101.623 53.826 101.331 53.7325 101.148 53.5481C100.964 53.3637 100.871 53.0702 100.871 52.6728V51.9585C100.871 51.5611 100.964 51.2702 101.148 51.0858C101.331 50.9014 101.623 50.8104 102.019 50.8104H103.351V49.5637C103.351 49.452 103.408 49.3975 103.519 49.3975C103.63 49.3975 103.684 49.452 103.684 49.5637V53.6598C103.684 53.7715 103.63 53.8286 103.519 53.8286C103.408 53.8286 103.351 53.7715 103.351 53.6598V53.3845C103.26 53.5325 103.126 53.6416 102.95 53.7169C102.774 53.7923 102.544 53.8286 102.26 53.8286H102.019V53.826ZM102.019 53.491H102.26C102.591 53.491 102.854 53.439 103.053 53.3325C103.252 53.226 103.351 53.0676 103.351 52.8572V51.1403H102.019C101.717 51.1403 101.505 51.2001 101.386 51.3221C101.267 51.4442 101.205 51.6546 101.205 51.9559V52.6702C101.205 52.9741 101.264 53.1871 101.386 53.3066C101.507 53.426 101.717 53.4884 102.019 53.4884V53.491Z" fill="white"/>
<path d="M105.423 55.104C105.172 55.104 104.98 55.052 104.851 54.9481C104.719 54.8442 104.642 54.6832 104.618 54.4598C104.613 54.4053 104.624 54.3611 104.655 54.3299C104.686 54.2988 104.724 54.2832 104.779 54.2832C104.833 54.2832 104.872 54.2962 104.9 54.3247C104.929 54.3533 104.947 54.3949 104.955 54.4494C104.97 54.5715 105.014 54.6572 105.084 54.7014C105.156 54.7455 105.27 54.7689 105.425 54.7689H106.607C106.793 54.7689 106.92 54.7351 106.987 54.6676C107.054 54.6001 107.088 54.4728 107.088 54.2832V53.3689C106.989 53.517 106.852 53.6312 106.674 53.7092C106.496 53.7871 106.271 53.826 105.997 53.826H105.753C105.358 53.826 105.066 53.7351 104.882 53.5507C104.699 53.3663 104.605 53.0754 104.605 52.6806V51.9585C104.605 51.5559 104.696 51.265 104.88 51.0806C105.063 50.8962 105.353 50.8079 105.753 50.8079H106.276C106.483 50.8079 106.653 50.8364 106.783 50.891C106.912 50.9455 107.013 51.0338 107.088 51.1507V50.9741C107.088 50.8624 107.145 50.8079 107.256 50.8079C107.367 50.8079 107.421 50.8624 107.421 50.9741V54.2832C107.421 54.5637 107.357 54.7715 107.225 54.904C107.093 55.0364 106.889 55.104 106.607 55.104H105.425H105.423ZM105.753 53.491H105.997C106.327 53.491 106.591 53.439 106.79 53.3351C106.989 53.2312 107.088 53.0728 107.088 52.8598V51.7923C107.088 51.5507 107.02 51.3845 106.889 51.2884C106.754 51.1923 106.552 51.1455 106.278 51.1455H105.756C105.454 51.1455 105.242 51.2053 105.123 51.3221C105.004 51.439 104.942 51.652 104.942 51.9585V52.6806C104.942 52.9819 105.001 53.1923 105.123 53.3118C105.244 53.4312 105.454 53.4936 105.756 53.4936L105.753 53.491Z" fill="white"/>
<path d="M108.675 52.4467V52.6805C108.675 52.9818 108.734 53.1922 108.853 53.3117C108.972 53.4311 109.184 53.4935 109.487 53.4935H110.009C110.275 53.4935 110.472 53.4597 110.593 53.3896C110.715 53.3194 110.787 53.2 110.811 53.0311C110.818 52.9766 110.837 52.9376 110.862 52.9091C110.888 52.8805 110.93 52.8675 110.984 52.8675C111.038 52.8675 111.082 52.8831 111.111 52.9143C111.139 52.9454 111.149 52.9896 111.144 53.0441C111.116 53.3117 111.01 53.5117 110.824 53.6389C110.637 53.7662 110.366 53.8311 110.009 53.8311H109.487C109.091 53.8311 108.799 53.7402 108.616 53.5558C108.432 53.3714 108.339 53.0805 108.339 52.6857V51.9636C108.339 51.561 108.432 51.2675 108.616 51.0831C108.799 50.8987 109.091 50.8078 109.487 50.813H110.009C110.405 50.813 110.697 50.9039 110.878 51.0883C111.061 51.2727 111.152 51.5636 111.152 51.961V52.2805C111.152 52.3922 111.098 52.4493 110.987 52.4493H108.672L108.675 52.4467ZM109.489 51.1428C109.187 51.1376 108.975 51.1974 108.856 51.3169C108.737 51.4363 108.678 51.6519 108.678 51.9584V52.1117H110.824V51.9584C110.824 51.6545 110.764 51.4415 110.645 51.322C110.526 51.2026 110.314 51.1428 110.012 51.1428H109.489Z" fill="white"/>
<path d="M114.493 53.8259C114.162 53.8259 113.919 53.7479 113.766 53.5947C113.614 53.4415 113.536 53.1973 113.536 52.8648C113.536 52.5324 113.614 52.2882 113.769 52.1324C113.924 51.9765 114.164 51.8986 114.493 51.8986H115.941C115.936 51.6181 115.874 51.4207 115.752 51.309C115.63 51.1973 115.424 51.1402 115.131 51.1402H114.762C114.493 51.1402 114.296 51.1687 114.17 51.2259C114.045 51.283 113.968 51.3817 113.937 51.5194C113.921 51.5713 113.903 51.6103 113.877 51.6363C113.854 51.6596 113.815 51.6726 113.761 51.6726C113.707 51.6726 113.663 51.657 113.632 51.6259C113.601 51.5947 113.59 51.5531 113.598 51.4986C113.627 51.2544 113.735 51.0778 113.927 50.9687C114.118 50.857 114.395 50.8025 114.759 50.8025H115.129C115.524 50.8025 115.814 50.8934 115.998 51.0778C116.181 51.2622 116.272 51.5531 116.272 51.9505V53.6492C116.272 53.7609 116.217 53.8181 116.106 53.8181C115.995 53.8181 115.938 53.7609 115.938 53.6492V53.3324C115.734 53.657 115.372 53.8181 114.847 53.8181H114.49L114.493 53.8259ZM114.493 53.4908H114.85C115.054 53.4908 115.235 53.4674 115.393 53.4233C115.548 53.3765 115.674 53.3038 115.77 53.2025C115.866 53.1012 115.923 52.9635 115.943 52.7947V52.2389H114.495C114.26 52.2389 114.097 52.283 114.007 52.3739C113.916 52.4648 113.872 52.6285 113.872 52.8674C113.872 53.1064 113.916 53.2674 114.007 53.3583C114.097 53.4492 114.26 53.4934 114.495 53.4934L114.493 53.4908Z" fill="white"/>
<path d="M117.447 53.826C117.336 53.826 117.279 53.7689 117.279 53.6572V50.9741C117.279 50.8624 117.336 50.8079 117.447 50.8079C117.559 50.8079 117.613 50.8624 117.613 50.9741V51.2806C117.815 50.9663 118.179 50.8079 118.707 50.8079H118.885C119.281 50.8079 119.57 50.8988 119.754 51.0832C119.937 51.2676 120.028 51.5585 120.028 51.9559V53.6546C120.028 53.7663 119.973 53.8234 119.862 53.8234C119.751 53.8234 119.694 53.7663 119.694 53.6546V51.9559C119.694 51.652 119.635 51.439 119.516 51.3195C119.397 51.2001 119.185 51.1403 118.885 51.1403H118.707C118.378 51.1403 118.12 51.1923 117.931 51.2962C117.742 51.4001 117.636 51.5637 117.613 51.7845V53.6546C117.613 53.7663 117.559 53.8234 117.447 53.8234V53.826Z" fill="white"/>
<path d="M122.096 53.826C121.701 53.826 121.408 53.7325 121.225 53.5481C121.041 53.3637 120.948 53.0702 120.948 52.6728V51.9585C120.948 51.5611 121.041 51.2702 121.225 51.0858C121.408 50.9014 121.701 50.8104 122.096 50.8104H123.428V49.5637C123.428 49.452 123.485 49.3975 123.596 49.3975C123.707 49.3975 123.761 49.452 123.761 49.5637V53.6598C123.761 53.7715 123.707 53.8286 123.596 53.8286C123.485 53.8286 123.428 53.7715 123.428 53.6598V53.3845C123.337 53.5325 123.203 53.6416 123.027 53.7169C122.851 53.7923 122.621 53.8286 122.337 53.8286H122.096V53.826ZM122.096 53.491H122.337C122.668 53.491 122.931 53.439 123.13 53.3325C123.33 53.226 123.428 53.0676 123.428 52.8572V51.1403H122.096C121.794 51.1403 121.582 51.2001 121.463 51.3221C121.344 51.4442 121.282 51.6546 121.282 51.9559V52.6702C121.282 52.9741 121.341 53.1871 121.463 53.3066C121.584 53.426 121.794 53.4884 122.096 53.4884V53.491Z" fill="white"/>
<path d="M126.896 53.8207C126.634 53.8207 126.435 53.7636 126.298 53.6519C126.161 53.5402 126.079 53.3688 126.05 53.1376C126.045 53.0831 126.055 53.0389 126.086 53.0078C126.117 52.9766 126.159 52.961 126.216 52.961C126.267 52.961 126.309 52.974 126.335 53.0026C126.36 53.0311 126.378 53.0727 126.386 53.1272C126.404 53.2597 126.453 53.3506 126.531 53.4026C126.609 53.4545 126.73 53.4805 126.896 53.4805H127.938C128.134 53.4805 128.271 53.4441 128.344 53.3688C128.418 53.2935 128.455 53.1584 128.455 52.961C128.455 52.7636 128.418 52.6233 128.344 52.548C128.269 52.4727 128.134 52.4363 127.938 52.4363H126.906C126.629 52.4363 126.425 52.3688 126.291 52.2363C126.156 52.1039 126.089 51.8987 126.089 51.6207C126.089 51.3428 126.156 51.1298 126.288 50.9974C126.422 50.8649 126.627 50.7974 126.906 50.7974H127.904C128.382 50.7974 128.649 51.0103 128.703 51.4363C128.711 51.4909 128.7 51.535 128.669 51.5662C128.638 51.5974 128.597 51.6129 128.54 51.6129C128.483 51.6129 128.447 51.6 128.421 51.5714C128.395 51.5428 128.377 51.5039 128.367 51.4493C128.351 51.3298 128.31 51.2467 128.237 51.2026C128.165 51.1584 128.057 51.135 127.904 51.135H126.906C126.722 51.135 126.596 51.1688 126.526 51.2363C126.456 51.3039 126.422 51.4337 126.422 51.6233C126.422 51.8129 126.459 51.9298 126.528 52C126.598 52.0701 126.725 52.1039 126.906 52.1039H127.938C128.23 52.1039 128.444 52.174 128.584 52.3142C128.721 52.4545 128.791 52.6701 128.791 52.9636C128.791 53.2571 128.721 53.4701 128.584 53.6103C128.447 53.7506 128.23 53.8207 127.938 53.8207H126.896Z" fill="white"/>
<path d="M129.91 52.4467V52.6805C129.91 52.9818 129.969 53.1922 130.091 53.3117C130.212 53.4311 130.422 53.4935 130.724 53.4935H131.246C131.513 53.4935 131.709 53.4597 131.831 53.3896C131.952 53.3194 132.025 53.2 132.048 53.0311C132.056 52.9766 132.074 52.9376 132.1 52.9091C132.126 52.8805 132.167 52.8675 132.221 52.8675C132.276 52.8675 132.319 52.8831 132.348 52.9143C132.376 52.9454 132.387 52.9896 132.382 53.0441C132.353 53.3117 132.247 53.5117 132.061 53.6389C131.875 53.7662 131.603 53.8311 131.246 53.8311H130.724C130.329 53.8311 130.036 53.7402 129.853 53.5558C129.669 53.3714 129.576 53.0805 129.576 52.6857V51.9636C129.576 51.561 129.669 51.2675 129.853 51.0831C130.036 50.8987 130.329 50.8078 130.724 50.813H131.246C131.642 50.813 131.934 50.9039 132.115 51.0883C132.299 51.2727 132.389 51.5636 132.389 51.961V52.2805C132.389 52.3922 132.335 52.4493 132.224 52.4493H129.91V52.4467ZM130.724 51.1428C130.422 51.1376 130.21 51.1974 130.091 51.3169C129.972 51.4363 129.91 51.6519 129.91 51.9584V52.1117H132.056V51.9584C132.056 51.6545 131.996 51.4415 131.877 51.322C131.758 51.2026 131.546 51.1428 131.244 51.1428H130.722H130.724Z" fill="white"/>
<path d="M133.535 53.826C133.424 53.826 133.367 53.7689 133.367 53.6572V50.9741C133.367 50.8624 133.424 50.8079 133.535 50.8079C133.646 50.8079 133.701 50.8624 133.701 50.9741V51.465C133.812 51.252 133.97 51.0884 134.179 50.9767C134.388 50.8624 134.634 50.8079 134.921 50.8079C135.032 50.8079 135.089 50.8624 135.089 50.9741C135.089 51.0858 135.032 51.1429 134.921 51.1429C134.544 51.1429 134.251 51.2286 134.042 51.4001C133.835 51.5715 133.719 51.8157 133.698 52.1325V53.6572C133.698 53.7689 133.644 53.826 133.533 53.826H133.535Z" fill="white"/>
<path d="M136.793 53.6988C136.77 53.7507 136.742 53.7845 136.708 53.8001C136.675 53.8156 136.636 53.826 136.589 53.826C136.496 53.826 136.431 53.7819 136.393 53.6962L135.214 51.0416C135.17 50.9377 135.201 50.865 135.307 50.8234C135.405 50.7819 135.477 50.8104 135.524 50.9143L136.7 53.5585H136.496L137.75 50.9091C137.773 50.8598 137.804 50.8286 137.843 50.813C137.882 50.7975 137.926 50.8001 137.972 50.8234C138.076 50.8702 138.104 50.9455 138.058 51.0468L136.796 53.6988H136.793Z" fill="white"/>
<path d="M138.794 50.2234C138.647 50.2234 138.574 50.1481 138.574 49.9974V49.852C138.574 49.7065 138.647 49.6338 138.794 49.6338H138.934C139.078 49.6338 139.151 49.7065 139.151 49.852V49.9974C139.151 50.1481 139.078 50.2234 138.934 50.2234H138.794ZM138.864 53.826C138.753 53.826 138.696 53.7689 138.696 53.6572V50.974C138.696 50.8624 138.753 50.8078 138.864 50.8078C138.975 50.8078 139.029 50.8624 139.029 50.974V53.6572C139.029 53.7689 138.975 53.826 138.864 53.826Z" fill="white"/>
<path d="M141.152 53.826C140.756 53.826 140.464 53.7325 140.281 53.5481C140.097 53.3637 140.004 53.0702 140.004 52.6728V51.9507C140.004 51.5533 140.094 51.2598 140.278 51.078C140.462 50.8961 140.754 50.8026 141.152 50.8078H141.674C141.987 50.8078 142.225 50.8598 142.388 50.9663C142.553 51.0728 142.652 51.2364 142.683 51.4624C142.69 51.5195 142.677 51.5637 142.646 51.5922C142.615 51.6208 142.571 51.6364 142.517 51.6364C142.465 51.6364 142.429 51.6234 142.403 51.5974C142.377 51.5715 142.359 51.5325 142.346 51.4805C142.323 51.3585 142.261 51.2702 142.158 51.2182C142.054 51.1663 141.894 51.1403 141.674 51.1403H141.152C140.849 51.1351 140.637 51.1922 140.518 51.3117C140.399 51.4312 140.337 51.6416 140.337 51.9481V52.6702C140.337 52.9741 140.397 53.187 140.518 53.3065C140.64 53.426 140.849 53.4883 141.152 53.4883H141.674C141.894 53.4883 142.057 53.4624 142.158 53.4104C142.259 53.3585 142.323 53.2702 142.346 53.1455C142.359 53.0935 142.377 53.0546 142.403 53.0286C142.429 53.0026 142.468 52.9896 142.517 52.9896C142.571 52.9896 142.615 53.0052 142.646 53.0364C142.677 53.0676 142.69 53.1117 142.683 53.1663C142.652 53.3922 142.553 53.5585 142.388 53.665C142.222 53.7715 141.984 53.8234 141.674 53.8234H141.152V53.826Z" fill="white"/>
<path d="M143.844 52.4467V52.6805C143.844 52.9818 143.904 53.1922 144.025 53.3117C144.147 53.4311 144.356 53.4935 144.659 53.4935H145.181C145.447 53.4935 145.644 53.4597 145.765 53.3896C145.887 53.3194 145.959 53.2 145.983 53.0311C145.99 52.9766 146.008 52.9376 146.034 52.9091C146.06 52.8805 146.102 52.8675 146.156 52.8675C146.21 52.8675 146.251 52.8831 146.282 52.9143C146.314 52.9454 146.321 52.9896 146.316 53.0441C146.288 53.3117 146.182 53.5117 145.995 53.6389C145.809 53.7662 145.538 53.8311 145.181 53.8311H144.659C144.263 53.8311 143.971 53.7402 143.787 53.5558C143.604 53.3714 143.511 53.0805 143.511 52.6857V51.9636C143.511 51.561 143.604 51.2675 143.787 51.0831C143.971 50.8987 144.263 50.8078 144.659 50.813H145.181C145.577 50.813 145.869 50.9039 146.05 51.0883C146.233 51.2727 146.324 51.5636 146.324 51.961V52.2805C146.324 52.3922 146.27 52.4493 146.158 52.4493H143.844V52.4467ZM144.659 51.1428C144.356 51.1376 144.144 51.1974 144.025 51.3169C143.906 51.4363 143.844 51.6519 143.844 51.9584V52.1117H145.99V51.9584C145.99 51.6545 145.931 51.4415 145.812 51.322C145.693 51.2026 145.481 51.1428 145.178 51.1428H144.656H144.659Z" fill="white"/>
<path d="M147.957 53.8207C147.696 53.8207 147.497 53.7636 147.36 53.6519C147.223 53.5402 147.14 53.3688 147.112 53.1376C147.106 53.0831 147.117 53.0389 147.148 53.0078C147.176 52.9766 147.22 52.961 147.277 52.961C147.329 52.961 147.37 52.974 147.396 53.0026C147.422 53.0311 147.44 53.0727 147.448 53.1272C147.466 53.2597 147.515 53.3506 147.593 53.4026C147.67 53.4545 147.792 53.4805 147.957 53.4805H148.999C149.196 53.4805 149.333 53.4441 149.405 53.3688C149.48 53.2935 149.516 53.1584 149.516 52.961C149.516 52.7636 149.48 52.6233 149.405 52.548C149.33 52.4727 149.196 52.4363 148.999 52.4363H147.967C147.691 52.4363 147.487 52.3688 147.352 52.2363C147.218 52.1039 147.15 51.8987 147.15 51.6207C147.15 51.3428 147.218 51.1298 147.35 50.9974C147.484 50.8649 147.688 50.7974 147.967 50.7974H148.965C149.444 50.7974 149.71 51.0103 149.764 51.4363C149.772 51.4909 149.762 51.535 149.731 51.5662C149.7 51.5974 149.656 51.6129 149.602 51.6129C149.547 51.6129 149.508 51.6 149.483 51.5714C149.457 51.5428 149.439 51.5039 149.426 51.4493C149.41 51.3298 149.369 51.2467 149.296 51.2026C149.224 51.1584 149.115 51.135 148.963 51.135H147.965C147.781 51.135 147.655 51.1688 147.585 51.2363C147.515 51.3039 147.481 51.4337 147.481 51.6233C147.481 51.8129 147.518 51.9298 147.587 52C147.657 52.0701 147.784 52.1039 147.965 52.1039H148.997C149.289 52.1039 149.503 52.174 149.643 52.3142C149.78 52.4545 149.85 52.6701 149.85 52.9636C149.85 53.2571 149.78 53.4701 149.643 53.6103C149.506 53.7506 149.289 53.8207 148.997 53.8207H147.955H147.957Z" fill="white"/>
<path d="M80.8358 61.6389C80.7221 61.6389 80.6678 61.5818 80.6678 61.4701V58.9558H80.4015C80.2877 58.9558 80.2334 58.8987 80.2334 58.787C80.2334 58.6753 80.2903 58.6208 80.4015 58.6208H80.6678V58.3402C80.6678 57.948 80.7583 57.6623 80.9393 57.4805C81.1203 57.2987 81.4073 57.2078 81.7951 57.2078C81.9037 57.2078 81.958 57.2623 81.958 57.374C81.958 57.4857 81.9037 57.5428 81.7951 57.5428C81.4978 57.5428 81.2909 57.6 81.1746 57.7169C81.0582 57.8337 80.9987 58.0389 80.9987 58.3376V58.6182H81.7873C81.8985 58.6182 81.9554 58.6727 81.9554 58.7844C81.9554 58.8961 81.8985 58.9532 81.7873 58.9532H80.9987V61.4675C80.9987 61.5792 80.9444 61.6363 80.8333 61.6363L80.8358 61.6389Z" fill="white"/>
<path d="M83.4468 61.639C83.0512 61.639 82.7591 61.5481 82.5755 61.3637C82.3919 61.1793 82.2988 60.8883 82.2988 60.4935V59.7715C82.2988 59.3689 82.3919 59.0754 82.5755 58.8909C82.7591 58.7065 83.0512 58.6156 83.4468 58.6208H83.9691C84.3647 58.6208 84.6569 58.7117 84.8379 58.8961C85.0214 59.0806 85.1119 59.3715 85.1119 59.7689V60.4832C85.1119 60.8806 85.0214 61.1741 84.8379 61.3585C84.6543 61.5429 84.3647 61.6364 83.9691 61.6364H83.4468V61.639ZM82.6324 60.4909C82.6324 60.7922 82.6918 61.0026 82.8134 61.1221C82.9349 61.2416 83.1443 61.3039 83.4468 61.3039H83.9691C84.2716 61.3039 84.4836 61.2442 84.6026 61.1221C84.7215 61.0026 84.781 60.7896 84.781 60.4857V59.7715C84.781 59.4676 84.7215 59.2546 84.6026 59.1351C84.4836 59.0156 84.2716 58.9559 83.9691 58.9559H83.4468C83.2426 58.9559 83.0823 58.9793 82.9633 59.0286C82.8444 59.0806 82.7591 59.1663 82.7099 59.2832C82.6582 59.4026 82.6324 59.5637 82.6324 59.7689V60.4909Z" fill="white"/>
<path d="M86.2608 61.639C86.1497 61.639 86.0928 61.5819 86.0928 61.4702V58.7871C86.0928 58.6754 86.1497 58.6208 86.2608 58.6208C86.372 58.6208 86.4263 58.6754 86.4263 58.7871V59.278C86.5375 59.065 86.6952 58.9014 86.9046 58.7897C87.1141 58.6754 87.3623 58.6208 87.6467 58.6208C87.7579 58.6208 87.8148 58.6754 87.8148 58.7871C87.8148 58.8988 87.7579 58.9559 87.6467 58.9559C87.2692 58.9559 86.977 59.0416 86.7702 59.2131C86.5633 59.3845 86.447 59.6286 86.4263 59.9455V61.4702C86.4263 61.5819 86.372 61.639 86.2608 61.639Z" fill="white"/>
<path d="M91.0596 61.639C90.6692 61.639 90.3848 61.5481 90.2038 61.3663C90.0228 61.1844 89.9323 60.8987 89.9323 60.5091V58.9533H89.5548C89.441 58.9533 89.3867 58.8961 89.3867 58.7845C89.3867 58.6728 89.4436 58.6182 89.5548 58.6182H89.9323V57.9325C89.9323 57.8208 89.9866 57.7637 90.0978 57.7637C90.2089 57.7637 90.2658 57.8208 90.2658 57.9325V58.6182H91.0648C91.1759 58.6182 91.2302 58.6728 91.2302 58.7845C91.2302 58.8961 91.1759 58.9533 91.0648 58.9533H90.2658V60.5091C90.2658 60.8078 90.3227 61.013 90.4391 61.1299C90.5554 61.2442 90.7623 61.3013 91.057 61.3013C91.1191 61.3013 91.163 61.3143 91.1889 61.3429C91.2147 61.3715 91.2277 61.413 91.2277 61.4676C91.2277 61.5793 91.1708 61.6364 91.057 61.6364L91.0596 61.639Z" fill="white"/>
<path d="M92.1534 61.6389C92.0422 61.6389 91.9854 61.5818 91.9854 61.4701V57.374C91.9854 57.2623 92.0422 57.2078 92.1534 57.2078C92.2646 57.2078 92.3189 57.2623 92.3189 57.374V59.0935C92.5206 58.7792 92.8851 58.6208 93.4126 58.6208H93.591C93.9866 58.6208 94.2762 58.7117 94.4597 58.8961C94.6433 59.0805 94.7338 59.3714 94.7338 59.7688V61.4675C94.7338 61.5792 94.6795 61.6363 94.5683 61.6363C94.4572 61.6363 94.4003 61.5792 94.4003 61.4675V59.7688C94.4003 59.4649 94.3408 59.2519 94.2219 59.1324C94.1029 59.013 93.8909 58.9532 93.591 58.9532H93.4126C93.0842 58.9532 92.8257 59.0052 92.6369 59.1091C92.4482 59.213 92.3422 59.3766 92.3189 59.5974V61.4675C92.3189 61.5792 92.2646 61.6363 92.1534 61.6363V61.6389Z" fill="white"/>
<path d="M95.9878 60.2597V60.4935C95.9878 60.7948 96.0473 61.0052 96.1688 61.1246C96.2903 61.2441 96.4998 61.3065 96.8023 61.3065H97.3246C97.5909 61.3065 97.7874 61.2727 97.9089 61.2026C98.0304 61.1324 98.1028 61.013 98.1261 60.8441C98.1339 60.7896 98.152 60.7506 98.1778 60.722C98.2037 60.6935 98.245 60.6805 98.2993 60.6805C98.3536 60.6805 98.3976 60.6961 98.426 60.7272C98.4545 60.7584 98.4648 60.8026 98.4596 60.8571C98.4312 61.1246 98.3252 61.3246 98.139 61.4519C97.9529 61.5792 97.6814 61.6441 97.3246 61.6441H96.8023C96.4067 61.6441 96.1145 61.5532 95.9309 61.3688C95.7474 61.1844 95.6543 60.8935 95.6543 60.4987V59.7766C95.6543 59.374 95.7474 59.0805 95.9309 58.8961C96.1145 58.7117 96.4067 58.6207 96.8023 58.6259H97.3246C97.7202 58.6259 98.0123 58.7169 98.1933 58.9013C98.3769 59.0857 98.4674 59.3766 98.4674 59.774V60.0935C98.4674 60.2052 98.4131 60.2623 98.3019 60.2623H95.9878V60.2597ZM96.8023 58.9558C96.4998 58.9506 96.2878 59.0104 96.1688 59.1298C96.0499 59.2493 95.9878 59.4649 95.9878 59.7714V59.9246H98.1339V59.7714C98.1339 59.4675 98.0744 59.2545 97.9555 59.135C97.8365 59.0156 97.6245 58.9558 97.322 58.9558H96.7997H96.8023Z" fill="white"/>
<path d="M100.593 61.6233C100.492 61.5791 100.461 61.5038 100.5 61.3999L102.077 57.6518C102.11 57.5635 102.172 57.522 102.266 57.522H102.284C102.372 57.522 102.431 57.5687 102.467 57.6518L104.044 61.3999C104.086 61.5038 104.057 61.5791 103.956 61.6233C103.853 61.6648 103.781 61.6363 103.739 61.535L103.315 60.5298H101.231L100.807 61.535C100.766 61.6363 100.691 61.6674 100.587 61.6233H100.593ZM101.371 60.1921H103.178L102.276 58.0518L101.373 60.1921H101.371Z" fill="white"/>
<path d="M104.863 61.639C104.812 61.639 104.77 61.6234 104.739 61.5949C104.708 61.5663 104.695 61.5247 104.695 61.4702V57.6884C104.695 57.6364 104.711 57.5949 104.739 57.5637C104.768 57.5351 104.809 57.5195 104.863 57.5195C104.918 57.5195 104.954 57.5351 104.985 57.5637C105.013 57.5949 105.029 57.6338 105.029 57.6884V61.4702C105.029 61.5221 105.013 61.5637 104.985 61.5949C104.956 61.626 104.915 61.639 104.863 61.639Z" fill="white"/>
<path d="M108.624 61.639C108.228 61.639 107.936 61.5455 107.752 61.3611C107.569 61.1767 107.476 60.8831 107.476 60.4857V59.7637C107.476 59.3663 107.566 59.0728 107.75 58.8909C107.933 58.7091 108.225 58.6156 108.624 58.6208H109.146C109.459 58.6208 109.697 58.6728 109.859 58.7793C110.025 58.8857 110.123 59.0494 110.154 59.2754C110.162 59.3325 110.149 59.3767 110.118 59.4052C110.087 59.4338 110.043 59.4494 109.989 59.4494C109.937 59.4494 109.901 59.4364 109.875 59.4104C109.849 59.3844 109.831 59.3455 109.818 59.2935C109.795 59.1715 109.733 59.0831 109.629 59.0312C109.526 58.9793 109.366 58.9533 109.146 58.9533H108.624C108.321 58.9481 108.109 59.0052 107.99 59.1247C107.871 59.2442 107.812 59.4546 107.812 59.7611V60.4831C107.812 60.787 107.871 61 107.99 61.1195C108.109 61.239 108.321 61.3013 108.624 61.3013H109.146C109.366 61.3013 109.529 61.2754 109.629 61.2234C109.73 61.1715 109.795 61.0831 109.818 60.9585C109.831 60.9065 109.849 60.8676 109.875 60.8416C109.901 60.8156 109.94 60.8026 109.989 60.8026C110.043 60.8026 110.087 60.8182 110.118 60.8494C110.149 60.8806 110.162 60.9247 110.154 60.9793C110.123 61.2052 110.025 61.3715 109.859 61.478C109.694 61.5844 109.456 61.6364 109.146 61.6364H108.624V61.639Z" fill="white"/>
<path d="M112.127 61.639C111.731 61.639 111.439 61.5481 111.255 61.3637C111.072 61.1793 110.979 60.8883 110.979 60.4935V59.7715C110.979 59.3689 111.072 59.0754 111.255 58.8909C111.439 58.7065 111.731 58.6156 112.127 58.6208H112.649C113.044 58.6208 113.337 58.7117 113.518 58.8961C113.701 59.0806 113.792 59.3715 113.792 59.7689V60.4832C113.792 60.8806 113.701 61.1741 113.518 61.3585C113.334 61.5429 113.044 61.6364 112.649 61.6364H112.127V61.639ZM111.312 60.4909C111.312 60.7922 111.372 61.0026 111.493 61.1221C111.615 61.2416 111.824 61.3039 112.127 61.3039H112.649C112.951 61.3039 113.163 61.2442 113.282 61.1221C113.401 61.0026 113.461 60.7896 113.461 60.4857V59.7715C113.461 59.4676 113.401 59.2546 113.282 59.1351C113.163 59.0156 112.951 58.9559 112.649 58.9559H112.127C111.922 58.9559 111.762 58.9793 111.643 59.0286C111.524 59.0806 111.439 59.1663 111.39 59.2832C111.338 59.4026 111.312 59.5637 111.312 59.7689V60.4909Z" fill="white"/>
<path d="M118.138 58.6156C118.479 58.6156 118.724 58.7039 118.872 58.878C119.019 59.052 119.092 59.3403 119.092 59.7429V61.478C119.092 61.5897 119.037 61.6442 118.926 61.6442C118.815 61.6442 118.758 61.5897 118.758 61.478V59.7429C118.758 59.4624 118.712 59.2598 118.616 59.1351C118.52 59.0104 118.363 58.9507 118.138 58.9507H117.874C117.595 58.9507 117.398 59.013 117.277 59.1351C117.155 59.2572 117.096 59.4598 117.096 59.7429V61.478C117.096 61.5897 117.041 61.6442 116.93 61.6442C116.819 61.6442 116.762 61.5897 116.762 61.478V59.7429C116.762 59.4624 116.715 59.2598 116.62 59.1351C116.524 59.0104 116.366 58.9507 116.141 58.9507H115.878C115.601 58.9507 115.402 59.013 115.28 59.1351C115.159 59.2572 115.102 59.4598 115.102 59.7429V61.478C115.102 61.5897 115.048 61.6442 114.937 61.6442C114.825 61.6442 114.769 61.5897 114.769 61.478V58.7871C114.769 58.6754 114.825 58.6208 114.937 58.6208C115.048 58.6208 115.102 58.6754 115.102 58.7871V59.0364C115.195 58.8858 115.306 58.7767 115.436 58.7117C115.565 58.6468 115.725 58.613 115.924 58.613H116.144C116.366 58.613 116.545 58.652 116.679 58.7299C116.814 58.8078 116.92 58.9351 117 59.1117C117.093 58.9351 117.207 58.8078 117.344 58.7299C117.478 58.652 117.657 58.613 117.874 58.613H118.138V58.6156Z" fill="white"/>
<path d="M123.465 58.6156C123.806 58.6156 124.052 58.7039 124.199 58.878C124.346 59.052 124.419 59.3403 124.419 59.7429V61.478C124.419 61.5897 124.364 61.6442 124.253 61.6442C124.142 61.6442 124.085 61.5897 124.085 61.478V59.7429C124.085 59.4624 124.039 59.2598 123.943 59.1351C123.847 59.0104 123.69 58.9507 123.465 58.9507H123.201C122.922 58.9507 122.725 59.013 122.604 59.1351C122.482 59.2572 122.423 59.4598 122.423 59.7429V61.478C122.423 61.5897 122.368 61.6442 122.257 61.6442C122.146 61.6442 122.089 61.5897 122.089 61.478V59.7429C122.089 59.4624 122.043 59.2598 121.947 59.1351C121.851 59.0104 121.694 58.9507 121.469 58.9507H121.205C120.928 58.9507 120.729 59.013 120.608 59.1351C120.486 59.2572 120.429 59.4598 120.429 59.7429V61.478C120.429 61.5897 120.375 61.6442 120.264 61.6442C120.153 61.6442 120.096 61.5897 120.096 61.478V58.7871C120.096 58.6754 120.153 58.6208 120.264 58.6208C120.375 58.6208 120.429 58.6754 120.429 58.7871V59.0364C120.522 58.8858 120.634 58.7767 120.763 58.7117C120.892 58.6468 121.052 58.613 121.251 58.613H121.471C121.694 58.613 121.872 58.652 122.006 58.7299C122.141 58.8078 122.247 58.9351 122.327 59.1117C122.42 58.9351 122.534 58.8078 122.671 58.7299C122.805 58.652 122.984 58.613 123.201 58.613H123.465V58.6156Z" fill="white"/>
<path d="M127.948 58.6208C128.061 58.6208 128.116 58.678 128.116 58.7897V61.4728C128.116 61.5845 128.059 61.639 127.948 61.639C127.836 61.639 127.782 61.5845 127.782 61.4728V61.1663C127.58 61.4806 127.216 61.639 126.688 61.639H126.51C126.114 61.639 125.822 61.5481 125.641 61.3637C125.46 61.1793 125.367 60.8884 125.367 60.491V58.7923C125.367 58.678 125.421 58.6234 125.533 58.6234C125.644 58.6234 125.701 58.6806 125.701 58.7923V60.491C125.701 60.7949 125.76 61.0079 125.882 61.1273C126.001 61.2468 126.213 61.3066 126.513 61.3066H126.691C127.019 61.3066 127.278 61.2546 127.467 61.1507C127.655 61.0468 127.761 60.8832 127.785 60.6624V58.7923C127.785 58.678 127.839 58.6234 127.95 58.6234L127.948 58.6208Z" fill="white"/>
<path d="M129.349 61.639C129.235 61.639 129.181 61.5819 129.181 61.4702V58.7871C129.181 58.6754 129.238 58.6208 129.349 58.6208C129.46 58.6208 129.514 58.6754 129.514 58.7871V59.0936C129.716 58.7793 130.08 58.6208 130.608 58.6208H130.786C131.182 58.6208 131.474 58.7118 131.655 58.8962C131.839 59.0806 131.929 59.3715 131.929 59.7689V61.4676C131.929 61.5793 131.875 61.6364 131.764 61.6364C131.652 61.6364 131.596 61.5793 131.596 61.4676V59.7689C131.596 59.465 131.536 59.252 131.415 59.1325C131.296 59.0131 131.084 58.9533 130.784 58.9533H130.605C130.277 58.9533 130.018 59.0053 129.83 59.1092C129.641 59.2131 129.535 59.3767 129.512 59.5975V61.4676C129.512 61.5793 129.457 61.6364 129.346 61.6364L129.349 61.639Z" fill="white"/>
<path d="M133.033 58.0364C132.886 58.0364 132.813 57.9611 132.813 57.8104V57.665C132.813 57.5195 132.886 57.4468 133.033 57.4468H133.173C133.318 57.4468 133.39 57.5195 133.39 57.665V57.8104C133.39 57.9611 133.318 58.0364 133.173 58.0364H133.033ZM133.103 61.639C132.989 61.639 132.935 61.5818 132.935 61.4702V58.787C132.935 58.6753 132.992 58.6208 133.103 58.6208C133.214 58.6208 133.269 58.6753 133.269 58.787V61.4702C133.269 61.5818 133.214 61.639 133.103 61.639Z" fill="white"/>
<path d="M135.56 61.639C135.169 61.639 134.885 61.5481 134.704 61.3663C134.523 61.1844 134.432 60.8987 134.432 60.5091V58.9533H134.055C133.941 58.9533 133.887 58.8961 133.887 58.7845C133.887 58.6728 133.944 58.6182 134.055 58.6182H134.432V57.9325C134.432 57.8208 134.487 57.7637 134.598 57.7637C134.709 57.7637 134.766 57.8208 134.766 57.9325V58.6182H135.565C135.676 58.6182 135.73 58.6728 135.73 58.7845C135.73 58.8961 135.676 58.9533 135.565 58.9533H134.766V60.5091C134.766 60.8078 134.823 61.013 134.939 61.1299C135.055 61.2442 135.262 61.3013 135.557 61.3013C135.619 61.3013 135.663 61.3143 135.689 61.3429C135.715 61.3715 135.728 61.413 135.728 61.4676C135.728 61.5793 135.671 61.6364 135.557 61.6364L135.56 61.639Z" fill="white"/>
<path d="M137.24 62.9169C136.963 62.9169 136.756 62.8494 136.625 62.7169C136.493 62.5819 136.425 62.3741 136.425 62.091C136.425 61.9793 136.48 61.9247 136.591 61.9247C136.702 61.9247 136.759 61.9793 136.759 62.091C136.759 62.2832 136.793 62.413 136.86 62.4806C136.927 62.5481 137.054 62.5819 137.237 62.5819H138.339C138.525 62.5819 138.652 62.5481 138.721 62.4806C138.791 62.413 138.822 62.2832 138.822 62.091V61.213C138.701 61.3715 138.551 61.4858 138.367 61.5481C138.184 61.613 137.972 61.6442 137.729 61.6442H137.55C137.16 61.6442 136.875 61.5533 136.694 61.3715C136.513 61.1897 136.423 60.9065 136.423 60.5195V58.7845C136.423 58.6728 136.477 58.6156 136.588 58.6156C136.7 58.6156 136.756 58.6728 136.756 58.7845V60.5195C136.756 60.8156 136.813 61.0208 136.93 61.1351C137.046 61.2494 137.253 61.3065 137.548 61.3065H137.726C138.096 61.3065 138.372 61.2416 138.551 61.1091C138.729 60.9793 138.82 60.7819 138.82 60.5169V58.7819C138.82 58.6702 138.874 58.613 138.985 58.613C139.096 58.613 139.153 58.6702 139.153 58.7819V62.0884C139.153 62.3715 139.086 62.5793 138.954 62.7143C138.822 62.8494 138.615 62.9143 138.336 62.9143H137.235L137.24 62.9169Z" fill="white"/>
</g>
<defs>
<linearGradient id="paint0_linear_106_3762" x1="1.02906" y1="45.6519" x2="61.7396" y2="34.996" gradientUnits="userSpaceOnUse">
<stop stop-color="#0047BB"/>
<stop offset="0.46" stop-color="#0047BB"/>
<stop offset="0.53" stop-color="#6689C1"/>
<stop offset="0.58" stop-color="#AAB4C6"/>
<stop offset="0.61" stop-color="#C5C6C8"/>
<stop offset="0.84" stop-color="#E8DD4D"/>
<stop offset="1" stop-color="#FFED00"/>
</linearGradient>
<clipPath id="clip0_106_3762">
<rect width="150" height="75" fill="white"/>
</clipPath>
</defs>
</svg>
