<svg width="150" height="75" viewBox="0 0 150 75" fill="none" xmlns="http://www.w3.org/2000/svg">
<g clip-path="url(#clip0_106_3397)">
<path d="M28.0951 43.8804C27.5133 43.6545 27.3375 43.2519 27.5702 42.6726L32.7672 29.8155C32.987 29.3324 33.3283 29.0908 33.7937 29.0908H33.8376C34.3108 29.1116 34.6314 29.3532 34.7995 29.8155L40.0844 42.6726C40.3171 43.2493 40.149 43.6519 39.5828 43.8804C39.0088 44.1064 38.608 43.9402 38.3805 43.3765L37.2015 40.5038H30.3988L29.2741 43.3765C29.0491 43.948 28.6561 44.1142 28.0951 43.8804ZM31.1202 38.6596H36.4491L33.7316 32.0129L31.1228 38.6596H31.1202Z" fill="white"/>
<path d="M43.6679 43.9686C43.355 43.9686 43.1223 43.8933 42.9749 43.7427C42.825 43.592 42.75 43.3609 42.75 43.0466V30.0362C42.75 29.7141 42.825 29.4803 42.9749 29.3349C43.1249 29.1894 43.355 29.1167 43.6679 29.1167C43.9807 29.1167 44.2212 29.1894 44.366 29.3349C44.5108 29.4803 44.5832 29.7141 44.5832 30.0362V43.0466C44.5832 43.3609 44.5108 43.592 44.366 43.7427C44.2212 43.8933 43.9885 43.9686 43.6679 43.9686Z" fill="white"/>
<path d="M56.6344 43.9688C55.4554 43.9688 54.5789 43.683 54.0049 43.1116C53.4335 42.5402 53.1465 41.6649 53.1465 40.4856V38.4129C53.1465 37.2155 53.4335 36.3324 54.0049 35.7636C54.5763 35.1947 55.4528 34.9116 56.6344 34.9116H58.0927C59.2795 34.9116 60.156 35.1973 60.7248 35.7688C61.2937 36.3402 61.5781 37.2233 61.5781 38.4129V40.4675C61.5781 41.6519 61.2937 42.5324 60.7248 43.1064C60.156 43.6805 59.2769 43.9688 58.0927 43.9688H56.6344ZM54.641 40.4856C54.641 41.2545 54.7806 41.7766 55.0598 42.0545C55.3391 42.3324 55.8639 42.4701 56.6344 42.4701H58.0927C58.8684 42.4701 59.3958 42.3298 59.6725 42.0493C59.9491 41.7688 60.0862 41.2415 60.0862 40.4675V38.4129C60.0862 37.6337 59.9491 37.1038 59.6725 36.8259C59.3958 36.548 58.871 36.4103 58.0927 36.4103H56.6344C56.1173 36.4103 55.7166 36.4675 55.4296 36.5843C55.1426 36.7012 54.9383 36.9038 54.8194 37.1921C54.7004 37.4805 54.641 37.8882 54.641 38.4103V40.483V40.4856Z" fill="#0047BB"/>
<path d="M65.1183 43.9687C64.6219 43.9687 64.3711 43.7193 64.3711 43.218V35.6596C64.3711 35.1583 64.6193 34.9089 65.1183 34.9089C65.6173 34.9089 65.8656 35.1583 65.8656 35.6596V35.9557C66.4939 35.2596 67.4195 34.9115 68.6399 34.9115H69.1389C70.3257 34.9115 71.2022 35.1973 71.771 35.7687C72.3399 36.3401 72.6243 37.2232 72.6243 38.4128V43.2206C72.6243 43.7219 72.3761 43.9713 71.877 43.9713C71.378 43.9713 71.1298 43.7219 71.1298 43.2206V38.4128C71.1298 37.6336 70.9876 37.1037 70.7084 36.8258C70.4265 36.5479 69.9042 36.4102 69.1389 36.4102H68.6399C67.9289 36.4102 67.3083 36.4934 66.7809 36.657C66.2534 36.8206 65.9483 37.0778 65.8656 37.431V43.2206C65.8656 43.7219 65.6173 43.9713 65.1183 43.9713V43.9687Z" fill="#0047BB"/>
<path d="M81.5187 43.9687C81.0197 43.9687 80.7715 43.7193 80.7715 43.218V32.6025C80.7715 32.1012 81.0197 31.8518 81.5187 31.8518H85.8056C87.3544 31.8518 88.492 32.2206 89.2237 32.9557C89.9555 33.6908 90.3226 34.8362 90.3226 36.3921V39.431C90.3226 40.9869 89.9606 42.1297 89.2341 42.8674C88.5075 43.6025 87.3647 43.9713 85.8056 43.9713H81.5187V43.9687ZM82.266 42.4674H85.8056C86.5632 42.4674 87.1656 42.3739 87.6052 42.1869C88.0473 41.9999 88.3602 41.683 88.5489 41.2388C88.7351 40.7947 88.8307 40.1921 88.8307 39.4284V36.3895C88.8307 35.6336 88.7377 35.0336 88.5489 34.5895C88.3628 34.1453 88.0473 33.8284 87.6052 33.6388C87.163 33.4492 86.5632 33.3531 85.8056 33.3531H82.266V42.4674Z" fill="white"/>
<path d="M94.182 40.057V40.4855C94.182 41.2544 94.3216 41.7764 94.6008 42.0544C94.8801 42.3323 95.4049 42.4699 96.1754 42.4699H97.6337C98.2387 42.4699 98.686 42.4128 98.9756 42.3011C99.2652 42.1868 99.4591 41.9894 99.5548 41.7037C99.6194 41.4777 99.7099 41.3037 99.8263 41.1868C99.9426 41.0673 100.118 41.0076 100.356 41.0076C100.594 41.0076 100.796 41.0725 100.925 41.205C101.054 41.3349 101.096 41.5271 101.049 41.7764C100.92 42.5141 100.568 43.0673 99.9995 43.4284C99.4307 43.792 98.6421 43.9738 97.6337 43.9738H96.1754C94.9964 43.9738 94.1199 43.6881 93.5459 43.1167C92.9745 42.5453 92.6875 41.6699 92.6875 40.4907V38.418C92.6875 37.2076 92.9745 36.3193 93.5459 35.7505C94.1173 35.1816 94.9938 34.9037 96.1754 34.9141H97.6337C98.8205 34.9141 99.697 35.1998 100.266 35.766C100.835 36.3349 101.119 37.218 101.119 38.4154V39.3089C101.119 39.8102 100.871 40.0596 100.372 40.0596H94.182V40.057ZM96.1754 36.4128C95.4049 36.3998 94.8801 36.5349 94.6008 36.8154C94.3216 37.0959 94.182 37.6284 94.182 38.4154V38.5583H99.6246V38.4154C99.6246 37.6362 99.4876 37.1063 99.2109 36.8284C98.9343 36.5505 98.4094 36.4128 97.6311 36.4128H96.1729H96.1754Z" fill="white"/>
<path d="M113.784 34.9089C114.904 34.9089 115.711 35.1739 116.199 35.7037C116.688 36.2336 116.934 37.1115 116.934 38.3401V43.218C116.934 43.7193 116.686 43.9687 116.186 43.9687C115.687 43.9687 115.439 43.7193 115.439 43.218V38.3401C115.439 37.6622 115.31 37.1687 115.051 36.8648C114.793 36.5609 114.371 36.4102 113.784 36.4102H113.055C112.381 36.4102 111.897 36.5609 111.605 36.8648C111.315 37.1687 111.17 37.6596 111.17 38.3401V43.218C111.17 43.7193 110.922 43.9687 110.423 43.9687C109.924 43.9687 109.676 43.7193 109.676 43.218V38.3401C109.676 37.6622 109.547 37.1687 109.288 36.8648C109.03 36.5609 108.608 36.4102 108.021 36.4102H107.292C106.617 36.4102 106.134 36.5609 105.842 36.8648C105.552 37.1687 105.405 37.6596 105.405 38.3401V43.218C105.405 43.7193 105.156 43.9687 104.657 43.9687C104.158 43.9687 103.91 43.7193 103.91 43.218V35.6596C103.91 35.1583 104.158 34.9089 104.657 34.9089C105.156 34.9089 105.405 35.1583 105.405 35.6596V36.07C105.72 35.6596 106.064 35.3635 106.441 35.1817C106.819 34.9998 107.266 34.9089 107.789 34.9089H108.019C108.753 34.9089 109.332 35.0128 109.754 35.218C110.175 35.4232 110.496 35.7557 110.713 36.2154C111.028 35.7453 111.362 35.4102 111.713 35.2102C112.065 35.0102 112.512 34.9115 113.053 34.9115H113.782L113.784 34.9089Z" fill="white"/>
<path d="M122.394 43.9687C121.399 43.9687 120.657 43.7245 120.171 43.2362C119.684 42.7479 119.441 42.0024 119.441 41.0024C119.441 40.0024 119.682 39.257 120.165 38.7687C120.649 38.2804 121.391 38.0362 122.394 38.0362H126.156C126.12 37.4102 125.957 36.9843 125.667 36.7531C125.378 36.5245 124.879 36.4102 124.173 36.4102H123.141C122.549 36.4102 122.107 36.4492 121.815 36.5297C121.525 36.6102 121.321 36.7557 121.202 36.9635C121.096 37.2128 120.985 37.3869 120.874 37.483C120.763 37.5791 120.592 37.6258 120.367 37.6258C120.119 37.6258 119.922 37.5557 119.78 37.4154C119.638 37.2752 119.597 37.0882 119.656 36.857C119.834 36.1843 120.207 35.6908 120.773 35.3791C121.339 35.0674 122.13 34.9089 123.144 34.9089H124.176C125.362 34.9089 126.239 35.1947 126.808 35.7661C127.377 36.3375 127.661 37.2206 127.661 38.4102V43.218C127.661 43.7193 127.413 43.9687 126.914 43.9687C126.415 43.9687 126.167 43.7193 126.167 43.218V42.8154C125.53 43.5843 124.607 43.9687 123.392 43.9687H122.397H122.394ZM122.394 42.4674H123.39C123.829 42.4674 124.24 42.4284 124.625 42.3479C125.011 42.2674 125.342 42.1193 125.618 41.9063C125.892 41.6908 126.076 41.3843 126.167 40.9869V39.5401H122.397C121.81 39.5401 121.419 39.6388 121.225 39.8336C121.034 40.031 120.936 40.4206 120.936 41.005C120.936 41.5895 121.032 41.9869 121.225 42.1791C121.419 42.3739 121.807 42.47 122.397 42.47L122.394 42.4674Z" fill="white"/>
<path d="M131.446 43.9687C130.95 43.9687 130.699 43.7193 130.699 43.218V35.6596C130.699 35.1583 130.947 34.9089 131.446 34.9089C131.945 34.9089 132.194 35.1583 132.194 35.6596V35.9557C132.822 35.2596 133.748 34.9115 134.968 34.9115H135.467C136.654 34.9115 137.53 35.1973 138.099 35.7687C138.668 36.3401 138.952 37.2232 138.952 38.4128V43.2206C138.952 43.7219 138.704 43.9713 138.205 43.9713C137.706 43.9713 137.458 43.7219 137.458 43.2206V38.4128C137.458 37.6336 137.316 37.1037 137.036 36.8258C136.755 36.5479 136.232 36.4102 135.467 36.4102H134.968C134.257 36.4102 133.636 36.4934 133.109 36.657C132.582 36.8206 132.276 37.0778 132.194 37.431V43.2206C132.194 43.7219 131.945 43.9713 131.446 43.9713V43.9687Z" fill="white"/>
<path d="M145.054 43.9687C143.875 43.9687 142.999 43.6804 142.425 43.1064C141.853 42.5324 141.566 41.6518 141.566 40.4674V38.4129C141.566 37.2207 141.853 36.3401 142.425 35.7687C142.996 35.1973 143.873 34.9116 145.054 34.9116H148.504V32.1427C148.504 31.6414 148.752 31.3921 149.251 31.3921C149.75 31.3921 149.998 31.6414 149.998 32.1427V43.2207C149.998 43.722 149.75 43.9713 149.251 43.9713C148.752 43.9713 148.504 43.722 148.504 43.2207V43.096C148.224 43.3817 147.86 43.5999 147.41 43.7479C146.96 43.896 146.399 43.9713 145.729 43.9713H145.054V43.9687ZM145.054 42.4674H145.729C146.513 42.4674 147.169 42.3661 147.705 42.1635C148.24 41.9609 148.506 41.6518 148.506 41.2336V36.4103H145.057C144.286 36.4103 143.762 36.5505 143.482 36.8336C143.203 37.1168 143.063 37.6414 143.063 38.4103V40.4648C143.063 41.2388 143.206 41.7661 143.485 42.0466C143.767 42.3272 144.289 42.4674 145.054 42.4674Z" fill="white"/>
<path d="M63.552 63.1427C63.8131 62.8804 63.8209 62.4518 63.5572 62.1895L53.1347 51.7168C52.8735 51.4544 52.4366 51.4544 52.1858 51.7168C51.9246 51.9791 51.9169 52.4077 52.1806 52.67L62.6031 63.1427C62.7349 63.2752 62.9082 63.3401 63.0814 63.3401C63.2547 63.3401 63.4279 63.2752 63.5546 63.1427H63.552Z" fill="#C5C6C8"/>
<path d="M55.928 69.0208C56.2486 68.8338 56.3572 68.4208 56.1736 68.0988L48.7996 55.2702C48.6056 54.9455 48.1919 54.8364 47.8817 55.0234C47.5611 55.2104 47.4525 55.6234 47.636 55.9455L55.0101 68.7741C55.1368 68.9897 55.3618 69.1117 55.5919 69.1117C55.7082 69.1117 55.822 69.0832 55.928 69.0208Z" fill="#C5C6C8"/>
<path d="M47.0476 72.7143C47.4044 72.6182 47.619 72.2468 47.5259 71.8884L43.7096 57.5819C43.6088 57.2208 43.221 57.0026 42.8848 57.1039C42.528 57.2 42.3134 57.5715 42.4065 57.9299L46.2228 72.2364C46.3056 72.5403 46.5745 72.7377 46.8744 72.7377C46.9313 72.7377 46.9907 72.7299 47.0476 72.7143Z" fill="#C5C6C8"/>
<path d="M38.1883 73.2987V58.4883C38.1883 58.1169 37.8883 57.813 37.516 57.813C37.1437 57.813 36.8438 58.1169 36.8438 58.4883V73.2987C36.8438 73.6701 37.1437 73.974 37.516 73.974C37.8883 73.974 38.1883 73.6701 38.1883 73.2987Z" fill="#C5C6C8"/>
<path d="M28.814 72.2363L32.6303 57.9298C32.726 57.5713 32.5088 57.1999 32.152 57.1038C31.7952 57.0129 31.428 57.2207 31.3272 57.5817L27.5109 71.8882C27.4152 72.2467 27.6324 72.6181 27.9892 72.7142C28.0461 72.7298 28.1056 72.7376 28.1624 72.7376C28.4624 72.7376 28.7287 72.5402 28.814 72.2363Z" fill="#C5C6C8"/>
<path d="M20.0275 68.774L27.3964 55.9454C27.58 55.6208 27.4688 55.2104 27.1508 55.0233C26.8328 54.8363 26.4165 54.948 26.2329 55.2701L18.864 68.0987C18.6804 68.4233 18.7916 68.8337 19.1096 69.0208C19.2156 69.0805 19.3294 69.1117 19.4458 69.1117C19.6759 69.1117 19.9034 68.9896 20.0275 68.774Z" fill="#C5C6C8"/>
<path d="M12.4384 63.1427L22.8609 52.67C23.122 52.4077 23.1168 51.9791 22.8557 51.7168C22.6049 51.4544 22.1679 51.4544 21.9068 51.7168L11.4843 62.1895C11.2232 62.4518 11.2283 62.8804 11.4895 63.1427C11.6162 63.2752 11.7894 63.3401 11.9626 63.3401C12.1359 63.3401 12.3091 63.2752 12.441 63.1427H12.4384Z" fill="#C5C6C8"/>
<path d="M6.55002 55.7298L19.3202 48.3246C19.6408 48.1376 19.7494 47.7246 19.5658 47.4025C19.3771 47.0778 18.9582 46.9687 18.648 47.1558L5.87777 54.5609C5.55716 54.748 5.44856 55.1609 5.63214 55.483C5.75883 55.6986 5.98378 55.8207 6.21389 55.8207C6.33025 55.8207 6.44401 55.7921 6.55002 55.7298Z" fill="#C5C6C8"/>
<path d="M37.516 16.161C37.1437 16.161 36.8438 15.8571 36.8438 15.4857V0.675325C36.8438 0.303896 37.1437 0 37.516 0C37.8883 0 38.1883 0.303896 38.1883 0.675325V15.4857C38.1883 15.8571 37.8883 16.161 37.516 16.161Z" fill="#C5C6C8"/>
<path d="M43.7086 16.3922L47.5249 2.08568C47.6205 1.72723 47.4033 1.35581 47.0465 1.2597C46.6846 1.1636 46.3226 1.37918 46.2217 1.73762L42.4054 16.0441C42.3097 16.4026 42.5269 16.774 42.8837 16.8701C42.9406 16.8857 43.0001 16.8935 43.057 16.8935C43.3569 16.8935 43.6232 16.6961 43.7086 16.3922Z" fill="#C5C6C8"/>
<path d="M48.8009 18.7039L56.175 5.87533C56.3586 5.55325 56.2474 5.14026 55.9294 4.95325C55.6088 4.77143 55.2003 4.87533 55.0115 5.2L47.6374 18.0286C47.4539 18.3507 47.565 18.7636 47.8831 18.9507C47.9891 19.0104 48.1028 19.0416 48.2192 19.0416C48.4493 19.0416 48.6768 18.9195 48.8009 18.7039Z" fill="#C5C6C8"/>
<path d="M53.1317 22.2597L63.5542 11.787C63.8154 11.5246 63.8102 11.0961 63.5491 10.8337C63.2983 10.5714 62.8613 10.5714 62.6002 10.8337L52.1777 21.3064C51.9165 21.5688 51.9217 21.9974 52.1828 22.2597C52.3095 22.3922 52.4828 22.4571 52.656 22.4571C52.8292 22.4571 53.0025 22.3922 53.1343 22.2597H53.1317Z" fill="#C5C6C8"/>
<path d="M56.3918 26.8208L69.162 19.4156C69.4826 19.2286 69.5912 18.8156 69.4076 18.4936C69.2137 18.1689 68.8052 18.0598 68.4898 18.2468L55.7196 25.652C55.399 25.839 55.2904 26.252 55.4739 26.5741C55.6006 26.7897 55.8256 26.9118 56.0557 26.9118C56.172 26.9118 56.2858 26.8832 56.3918 26.8208Z" fill="#C5C6C8"/>
<path d="M2.77622 47.0364L17.015 43.2026C17.3718 43.1065 17.5864 42.7351 17.4934 42.3767C17.3925 42.013 17.0047 41.7948 16.6686 41.8987L2.42975 45.7325C2.07294 45.8286 1.85834 46.2 1.95142 46.5585C2.03416 46.8624 2.30306 47.0598 2.60298 47.0598C2.65987 47.0598 2.71934 47.052 2.77622 47.0364Z" fill="#C5C6C8"/>
<path d="M16.7899 36.9871C16.7899 36.6157 16.49 36.3118 16.1177 36.3118H1.36952C0.997193 36.3118 0.697266 36.6157 0.697266 36.9871C0.697266 37.3585 0.997193 37.6624 1.36952 37.6624H16.1177C16.49 37.6624 16.7899 37.3585 16.7899 36.9871Z" fill="#C5C6C8"/>
<path d="M17.4942 31.5949C17.5899 31.2364 17.3727 30.865 17.0159 30.7689L2.77709 26.9351C2.43062 26.8442 2.0583 27.052 1.95229 27.413C1.85662 27.7715 2.07381 28.1429 2.43062 28.239L16.6694 32.0728C16.7263 32.0884 16.7858 32.0962 16.8427 32.0962C17.1426 32.0962 17.4089 31.8988 17.4942 31.5949Z" fill="#C5C6C8"/>
<path d="M19.5672 26.574C19.7508 26.2519 19.6396 25.8389 19.3216 25.6519L6.55141 18.2467C6.2308 18.0597 5.82228 18.1714 5.63353 18.4935C5.44995 18.8156 5.56113 19.2286 5.87916 19.4156L18.6494 26.8208C18.7554 26.8805 18.8691 26.9117 18.9855 26.9117C19.2156 26.9117 19.4431 26.7896 19.5672 26.574Z" fill="#C5C6C8"/>
<path d="M22.8567 22.2597C23.1178 21.9974 23.1256 21.5688 22.8619 21.3064L12.4394 10.8337C12.1782 10.5714 11.7413 10.5714 11.4905 10.8337C11.2293 11.0961 11.2216 11.5246 11.4853 11.787L21.9078 22.2597C22.0396 22.3922 22.2129 22.4571 22.3861 22.4571C22.5593 22.4571 22.7326 22.3922 22.8593 22.2597H22.8567Z" fill="#C5C6C8"/>
<path d="M27.1514 18.9532C27.472 18.7662 27.5806 18.3558 27.397 18.0311L20.0281 5.20253C19.8342 4.87525 19.4256 4.77396 19.1102 4.95577C18.7896 5.14279 18.681 5.55318 18.8646 5.87785L26.2335 18.7064C26.3602 18.922 26.5851 19.0441 26.8152 19.0441C26.9316 19.0441 27.0453 19.0155 27.1514 18.9532Z" fill="#C5C6C8"/>
<path d="M32.1511 16.8701C32.5079 16.774 32.7225 16.4026 32.6295 16.0442L28.8131 1.73768C28.7123 1.37404 28.3296 1.15326 27.9883 1.25975C27.6315 1.35586 27.4169 1.72729 27.51 2.08573L31.3263 16.3922C31.4091 16.6961 31.678 16.8935 31.9779 16.8935C32.0348 16.8935 32.0942 16.8857 32.1511 16.8701Z" fill="#C5C6C8"/>
<path d="M43.0603 17.2181C42.9776 17.2181 42.8871 17.2077 42.8043 17.1844C42.2743 17.0415 41.9588 16.4935 42.101 15.961L44.0738 8.55319C44.216 8.02332 44.7564 7.69605 45.2916 7.8467C45.8217 7.98956 46.1371 8.53761 45.9949 9.07008L44.0221 16.4779C43.9006 16.9246 43.5024 17.2181 43.0629 17.2181H43.0603ZM49.0795 18.8649L52.0555 13.6883C52.3296 13.2103 52.1667 12.6025 51.6935 12.3246C51.2152 12.0441 50.6076 12.2129 50.3335 12.6909L47.3575 17.8675C47.0835 18.3454 47.2463 18.9532 47.7195 19.2311C47.8772 19.3246 48.0505 19.3662 48.2185 19.3662C48.5598 19.3662 48.896 19.187 49.0795 18.8649ZM53.2785 22.4129L56.5286 19.1506C56.8751 18.8025 56.8751 18.2389 56.5338 17.8909C56.1873 17.5428 55.6262 17.5428 55.2798 17.8909L52.0297 21.1532C51.6832 21.5012 51.6832 22.0649 52.0245 22.4129C52.1977 22.587 52.4279 22.6727 52.6554 22.6727C52.8829 22.6727 53.1079 22.587 53.2811 22.4129H53.2785ZM56.4691 26.961L59.4658 25.2233C59.864 24.9922 60.001 24.4805 59.7709 24.0805C59.546 23.6831 59.0366 23.5402 58.6384 23.774L55.6417 25.5116C55.2436 25.7428 55.1065 26.2545 55.3366 26.6545C55.4892 26.9246 55.7658 27.0701 56.0554 27.0701C56.1976 27.0701 56.3398 27.0363 56.4691 26.9584V26.961ZM64.3888 63.9818C65.1127 63.2545 65.1127 62.0727 64.3888 61.3454L53.9663 50.8727C53.2423 50.1454 52.0659 50.1454 51.3419 50.8727C50.618 51.6 50.618 52.7818 51.3419 53.509L61.7644 63.9818C62.1264 64.3454 62.6047 64.5272 63.0753 64.5272C63.5459 64.5272 64.0242 64.3454 64.3862 63.9818H64.3888ZM56.495 70C57.356 69.5013 57.6507 68.3948 57.1517 67.5298L49.7776 54.7013C49.2786 53.8285 48.1616 53.535 47.3162 54.0389C46.4552 54.5376 46.1604 55.6441 46.6594 56.509L54.0335 69.3376C54.3645 69.9168 54.9721 70.2415 55.5926 70.2415C55.9029 70.2415 56.2131 70.1662 56.495 70ZM47.3265 73.7558C48.2599 73.5064 48.8106 72.5428 48.5598 71.6077L44.7435 57.3013C44.503 56.3688 43.5671 55.8207 42.6078 56.0597C41.6744 56.309 41.1237 57.2727 41.3745 58.2077L45.1908 72.5142C45.3951 73.2987 46.1035 73.8155 46.8766 73.8155C47.024 73.8155 47.1765 73.7948 47.3291 73.7558H47.3265ZM39.2129 73.2961V58.4857C39.2129 57.548 38.4528 56.7844 37.5168 56.7844C36.5808 56.7844 35.8207 57.5454 35.8207 58.4857V73.2961C35.8207 74.2337 36.5808 74.9974 37.5168 74.9974C38.4528 74.9974 39.2129 74.2363 39.2129 73.2961ZM29.7497 72.4857L33.566 58.1792C33.7962 57.2987 33.2764 56.3974 32.4051 56.1636C31.5389 55.9298 30.6366 56.4493 30.3961 57.3272L26.5798 71.6337C26.3497 72.5142 26.8694 73.4155 27.7407 73.6493C27.8829 73.6883 28.0251 73.7064 28.1647 73.7064C28.8887 73.7064 29.5506 73.2207 29.7497 72.4857ZM20.8217 69.2259L28.1906 56.3974C28.625 55.6363 28.3638 54.6597 27.6088 54.2233C26.8487 53.787 25.8817 54.0389 25.4421 54.8051L18.0732 67.6337C17.6388 68.3948 17.9 69.3714 18.655 69.8077C18.9058 69.9532 19.1747 70.0207 19.4488 70.0207C19.9943 70.0207 20.5295 69.735 20.8243 69.2233L20.8217 69.2259ZM13.0443 63.748L23.4667 53.2753C24.064 52.6753 24.064 51.6987 23.4667 51.0987C22.8695 50.4987 21.9025 50.4987 21.3052 51.0987L10.8827 61.5714C10.2854 62.1714 10.2854 63.148 10.8827 63.748C11.1826 64.0493 11.5705 64.2 11.9635 64.2C12.3565 64.2 12.7443 64.0493 13.0443 63.748ZM6.95522 56.4233L19.7254 49.0181C20.4287 48.6077 20.6743 47.7012 20.2658 46.987C19.8573 46.2753 18.9549 46.0363 18.2439 46.4441L5.47368 53.8493C4.7704 54.2597 4.52477 55.1662 4.93329 55.8805C5.20736 56.3558 5.70379 56.6207 6.21315 56.6207C6.46396 56.6207 6.71734 56.5584 6.95263 56.4233H6.95522ZM2.97083 47.761L17.2096 43.9272C17.9698 43.7246 18.4223 42.9376 18.218 42.1766C18.0138 41.4129 17.2148 40.948 16.4753 41.1636L2.23653 44.9974C1.47637 45.2 1.02389 45.987 1.22815 46.748C1.39621 47.3896 1.9728 47.8103 2.60368 47.8103C2.7252 47.8103 2.84931 47.7948 2.97083 47.761ZM17.4889 36.9818C17.4889 36.2233 16.8735 35.6051 16.1185 35.6051H1.37036C0.615369 35.6051 0 36.2233 0 36.9818C0 37.7402 0.615369 38.3584 1.37036 38.3584H16.1185C16.8735 38.3584 17.4889 37.7402 17.4889 36.9818ZM18.1146 31.7584C18.3033 31.0519 17.8896 30.3272 17.1864 30.1376L2.94756 26.3038C2.20809 26.1194 1.52032 26.5376 1.33675 27.2389C1.148 27.9454 1.56169 28.6701 2.26497 28.8597L16.5038 32.6935C16.6201 32.722 16.7339 32.7376 16.8451 32.7376C17.4268 32.7376 17.9569 32.348 18.1146 31.7558V31.7584ZM20.077 26.8649C20.4287 26.2571 20.2193 25.4805 19.6142 25.1298L6.84145 17.7272C6.23384 17.374 5.46075 17.5818 5.11945 18.1922C4.76781 18.7999 4.97725 19.5766 5.58227 19.9272L18.355 27.3298C18.5541 27.4467 18.7687 27.4986 18.9859 27.4986C19.4203 27.4986 19.8469 27.2727 20.077 26.8649ZM23.2418 22.6363C23.715 22.161 23.715 21.3922 23.2418 20.9168L13.4735 11.1012C13.0003 10.6259 12.235 10.6259 11.7618 11.1012C11.2887 11.5766 11.2887 12.3454 11.7618 12.8207L21.5301 22.6363C21.7654 22.8727 22.0757 22.9922 22.386 22.9922C22.6962 22.9922 23.0065 22.8727 23.2418 22.6363ZM27.3942 19.3636C27.945 19.0441 28.1337 18.3324 27.8183 17.7792L21.5043 6.79215C21.1785 6.23631 20.4701 6.0467 19.9245 6.36878C19.3738 6.68826 19.185 7.39995 19.5005 7.95319L25.8145 18.9402C26.0291 19.3116 26.4169 19.5194 26.8177 19.5194C27.0168 19.5194 27.2107 19.4701 27.3942 19.3636ZM32.2655 17.2805C32.8524 17.122 33.204 16.5142 33.0463 15.922L30.1867 5.18956C30.029 4.59994 29.4265 4.25709 28.837 4.40774C28.2501 4.56618 27.8984 5.17397 28.0562 5.76618L30.9158 16.4986C31.0477 16.9922 31.4924 17.3194 31.9811 17.3194C32.0767 17.3194 32.1698 17.3064 32.2655 17.2831V17.2805ZM38.5691 15.4779V6.06228C38.5691 5.48046 38.096 5.01033 37.5194 5.01033C36.9428 5.01033 36.4696 5.48046 36.4696 6.06228V15.4857C36.4696 16.0675 36.9428 16.5376 37.5194 16.5376C38.096 16.5376 38.5691 16.0675 38.5691 15.4857V15.4779Z" fill="url(#paint0_linear_106_3397)"/>
<path d="M80.7833 53.8259C80.6695 53.8259 80.6152 53.7687 80.6152 53.6571V49.8778C80.6152 49.7661 80.6721 49.709 80.7833 49.709C80.8945 49.709 80.9488 49.7661 80.9488 49.8778V51.7142L82.8388 49.7687C82.9164 49.6908 82.9914 49.6882 83.0715 49.7661C83.1543 49.8441 83.1569 49.922 83.0767 50.0051L81.652 51.4726L83.3275 53.5609C83.3973 53.6493 83.3896 53.7272 83.3042 53.7973C83.2163 53.8674 83.1388 53.8596 83.0715 53.7739L81.4168 51.7142L80.9462 52.1973V53.6571C80.9462 53.7687 80.8919 53.8259 80.7807 53.8259H80.7833Z" fill="white"/>
<path d="M84.1602 53.826C84.0491 53.826 83.9922 53.7689 83.9922 53.6572V50.9741C83.9922 50.8624 84.0491 50.8079 84.1602 50.8079C84.2714 50.8079 84.3257 50.8624 84.3257 50.9741V51.2806C84.5274 50.9663 84.892 50.8079 85.4194 50.8079H85.5978C85.9934 50.8079 86.283 50.8988 86.4666 51.0832C86.6502 51.2676 86.7407 51.5585 86.7407 51.9559V53.6546C86.7407 53.7663 86.6864 53.8234 86.5752 53.8234C86.464 53.8234 86.4071 53.7663 86.4071 53.6546V51.9559C86.4071 51.652 86.3477 51.439 86.2287 51.3195C86.1098 51.2001 85.8978 51.1403 85.5978 51.1403H85.4194C85.0911 51.1403 84.8325 51.1923 84.6438 51.2962C84.455 51.4001 84.349 51.5637 84.3257 51.7845V53.6546C84.3257 53.7663 84.2714 53.8234 84.1602 53.8234V53.826Z" fill="white"/>
<path d="M88.8082 53.826C88.4126 53.826 88.1204 53.7351 87.9368 53.5507C87.7532 53.3663 87.6602 53.0754 87.6602 52.6806V51.9585C87.6602 51.5559 87.7532 51.2624 87.9368 51.078C88.1204 50.8935 88.4126 50.8026 88.8082 50.8078H89.3304C89.726 50.8078 90.0182 50.8987 90.1992 51.0832C90.3828 51.2676 90.4733 51.5585 90.4733 51.9559V52.6702C90.4733 53.0676 90.3828 53.3611 90.1992 53.5455C90.0156 53.7299 89.726 53.8234 89.3304 53.8234H88.8082V53.826ZM87.9937 52.678C87.9937 52.9793 88.0532 53.1896 88.1747 53.3091C88.2962 53.4286 88.5056 53.4909 88.8082 53.4909H89.3304C89.633 53.4909 89.845 53.4312 89.9639 53.3091C90.0828 53.1896 90.1423 52.9767 90.1423 52.6728V51.9585C90.1423 51.6546 90.0828 51.4416 89.9639 51.3221C89.845 51.2026 89.633 51.1429 89.3304 51.1429H88.8082C88.6039 51.1429 88.4436 51.1663 88.3246 51.2156C88.2057 51.2676 88.1204 51.3533 88.0713 51.4702C88.0196 51.5896 87.9937 51.7507 87.9937 51.9559V52.678Z" fill="white"/>
<path d="M91.9836 53.8259C91.8828 53.8259 91.8182 53.7791 91.7897 53.6882L90.8925 51.0337C90.8563 50.9246 90.8925 50.8545 90.9985 50.8207C91.102 50.7895 91.1718 50.8233 91.2054 50.9272L92.0767 53.4934H91.9423L92.7748 50.9765C92.8033 50.8882 92.8679 50.8415 92.9662 50.8415C93.0644 50.8415 93.1187 50.8882 93.1471 50.9791L93.9254 53.4856H93.7858L94.7011 50.9272C94.7424 50.8181 94.8148 50.7843 94.9183 50.8207C95.0243 50.8623 95.0579 50.9324 95.0191 51.0389L94.0366 53.6908C94.003 53.7817 93.9358 53.8285 93.8401 53.8285C93.7315 53.8285 93.6643 53.7817 93.6358 53.6908L92.9144 51.3687H92.9791L92.1853 53.6908C92.1672 53.7454 92.1414 53.7791 92.1052 53.7999C92.069 53.8181 92.0276 53.8285 91.9836 53.8285V53.8259Z" fill="white"/>
<path d="M96.5263 53.8259C96.2263 53.8259 96.004 53.7558 95.8644 53.6156C95.7221 53.4753 95.6523 53.2545 95.6523 52.9532V49.561C95.6523 49.4493 95.7092 49.3948 95.8204 49.3948C95.9316 49.3948 95.9859 49.4493 95.9859 49.561V52.9532C95.9859 53.1584 96.0247 53.3013 96.0996 53.3766C96.1746 53.4519 96.3168 53.4909 96.5237 53.4909C96.6374 53.4909 96.6969 53.5454 96.6969 53.6571C96.6969 53.7688 96.6426 53.8259 96.5289 53.8259H96.5263Z" fill="white"/>
<path d="M97.5015 52.4467V52.6805C97.5015 52.9818 97.561 53.1922 97.6825 53.3117C97.8014 53.4311 98.0135 53.4935 98.316 53.4935H98.8383C99.1046 53.4935 99.3011 53.4597 99.4226 53.3896C99.5441 53.3194 99.6165 53.2 99.6398 53.0311C99.6475 52.9766 99.6656 52.9376 99.6915 52.9091C99.7174 52.8805 99.7587 52.8675 99.813 52.8675C99.8673 52.8675 99.9113 52.8831 99.9397 52.9143C99.9682 52.9454 99.9785 52.9896 99.9733 53.0441C99.9449 53.3117 99.8389 53.5117 99.6527 53.6389C99.4666 53.7662 99.1951 53.8311 98.8383 53.8311H98.316C97.9204 53.8311 97.6282 53.7402 97.4446 53.5558C97.2611 53.3714 97.168 53.0805 97.168 52.6857V51.9636C97.168 51.561 97.2611 51.2675 97.4446 51.0831C97.6282 50.8987 97.9204 50.8078 98.316 50.813H98.8383C99.2338 50.813 99.5234 50.9039 99.707 51.0883C99.8906 51.2727 99.9811 51.5636 99.9811 51.961V52.2805C99.9811 52.3922 99.9268 52.4493 99.8156 52.4493H97.5015V52.4467ZM98.316 51.1428C98.0135 51.1376 97.8014 51.1974 97.6825 51.3169C97.5636 51.4363 97.5015 51.6519 97.5015 51.9584V52.1117H99.6475V51.9584C99.6475 51.6545 99.5881 51.4415 99.4691 51.322C99.3502 51.2026 99.1382 51.1428 98.8357 51.1428H98.3134H98.316Z" fill="white"/>
<path d="M102.019 53.826C101.623 53.826 101.331 53.7325 101.148 53.5481C100.964 53.3637 100.871 53.0702 100.871 52.6728V51.9585C100.871 51.5611 100.964 51.2702 101.148 51.0858C101.331 50.9014 101.623 50.8104 102.019 50.8104H103.351V49.5637C103.351 49.452 103.408 49.3975 103.519 49.3975C103.63 49.3975 103.684 49.452 103.684 49.5637V53.6598C103.684 53.7715 103.63 53.8286 103.519 53.8286C103.408 53.8286 103.351 53.7715 103.351 53.6598V53.3845C103.26 53.5325 103.126 53.6416 102.95 53.7169C102.774 53.7923 102.544 53.8286 102.26 53.8286H102.019V53.826ZM102.019 53.491H102.26C102.591 53.491 102.854 53.439 103.053 53.3325C103.252 53.226 103.351 53.0676 103.351 52.8572V51.1403H102.019C101.717 51.1403 101.505 51.2001 101.386 51.3221C101.267 51.4442 101.205 51.6546 101.205 51.9559V52.6702C101.205 52.9741 101.264 53.1871 101.386 53.3066C101.507 53.426 101.717 53.4884 102.019 53.4884V53.491Z" fill="white"/>
<path d="M105.421 55.104C105.17 55.104 104.978 55.052 104.849 54.9481C104.717 54.8442 104.64 54.6832 104.616 54.4598C104.611 54.4053 104.622 54.3611 104.653 54.3299C104.684 54.2988 104.722 54.2832 104.777 54.2832C104.831 54.2832 104.87 54.2962 104.898 54.3247C104.927 54.3533 104.945 54.3949 104.953 54.4494C104.968 54.5715 105.012 54.6572 105.082 54.7014C105.154 54.7455 105.268 54.7689 105.423 54.7689H106.605C106.791 54.7689 106.918 54.7351 106.985 54.6676C107.052 54.6001 107.086 54.4728 107.086 54.2832V53.3689C106.987 53.517 106.85 53.6312 106.672 53.7092C106.494 53.7871 106.269 53.826 105.995 53.826H105.752C105.356 53.826 105.064 53.7351 104.88 53.5507C104.697 53.3663 104.604 53.0754 104.604 52.6806V51.9585C104.604 51.5559 104.694 51.265 104.878 51.0806C105.061 50.8962 105.351 50.8079 105.752 50.8079H106.274C106.481 50.8079 106.651 50.8364 106.781 50.891C106.91 50.9455 107.011 51.0338 107.086 51.1507V50.9741C107.086 50.8624 107.143 50.8079 107.254 50.8079C107.365 50.8079 107.419 50.8624 107.419 50.9741V54.2832C107.419 54.5637 107.355 54.7715 107.223 54.904C107.091 55.0364 106.887 55.104 106.605 55.104H105.423H105.421ZM105.752 53.491H105.995C106.326 53.491 106.589 53.439 106.788 53.3351C106.987 53.2312 107.086 53.0728 107.086 52.8598V51.7923C107.086 51.5507 107.018 51.3845 106.887 51.2884C106.752 51.1923 106.55 51.1455 106.276 51.1455H105.754C105.452 51.1455 105.24 51.2053 105.121 51.3221C105.002 51.439 104.94 51.652 104.94 51.9585V52.6806C104.94 52.9819 104.999 53.1923 105.121 53.3118C105.242 53.4312 105.452 53.4936 105.754 53.4936L105.752 53.491Z" fill="white"/>
<path d="M108.674 52.4467V52.6805C108.674 52.9818 108.733 53.1922 108.852 53.3117C108.971 53.4311 109.183 53.4935 109.486 53.4935H110.008C110.274 53.4935 110.471 53.4597 110.593 53.3896C110.714 53.3194 110.786 53.2 110.81 53.0311C110.817 52.9766 110.836 52.9376 110.861 52.9091C110.887 52.8805 110.929 52.8675 110.983 52.8675C111.037 52.8675 111.081 52.8831 111.11 52.9143C111.138 52.9454 111.148 52.9896 111.143 53.0441C111.115 53.3117 111.009 53.5117 110.823 53.6389C110.636 53.7662 110.365 53.8311 110.008 53.8311H109.486C109.09 53.8311 108.798 53.7402 108.615 53.5558C108.431 53.3714 108.338 53.0805 108.338 52.6857V51.9636C108.338 51.561 108.431 51.2675 108.615 51.0831C108.798 50.8987 109.09 50.8078 109.486 50.813H110.008C110.404 50.813 110.696 50.9039 110.877 51.0883C111.061 51.2727 111.151 51.5636 111.151 51.961V52.2805C111.151 52.3922 111.097 52.4493 110.986 52.4493H108.671L108.674 52.4467ZM109.488 51.1428C109.186 51.1376 108.974 51.1974 108.855 51.3169C108.736 51.4363 108.677 51.6519 108.677 51.9584V52.1117H110.823V51.9584C110.823 51.6545 110.763 51.4415 110.644 51.322C110.525 51.2026 110.313 51.1428 110.011 51.1428H109.488Z" fill="white"/>
<path d="M114.492 53.8259C114.161 53.8259 113.918 53.7479 113.765 53.5947C113.613 53.4415 113.535 53.1973 113.535 52.8648C113.535 52.5324 113.613 52.2882 113.768 52.1324C113.923 51.9765 114.163 51.8986 114.492 51.8986H115.94C115.935 51.6181 115.873 51.4207 115.751 51.309C115.629 51.1973 115.423 51.1402 115.13 51.1402H114.761C114.492 51.1402 114.295 51.1687 114.169 51.2259C114.045 51.283 113.967 51.3817 113.936 51.5194C113.92 51.5713 113.902 51.6103 113.876 51.6363C113.853 51.6596 113.814 51.6726 113.76 51.6726C113.706 51.6726 113.662 51.657 113.631 51.6259C113.6 51.5947 113.589 51.5531 113.597 51.4986C113.626 51.2544 113.734 51.0778 113.926 50.9687C114.117 50.857 114.394 50.8025 114.758 50.8025H115.128C115.523 50.8025 115.813 50.8934 115.997 51.0778C116.18 51.2622 116.271 51.5531 116.271 51.9505V53.6492C116.271 53.7609 116.216 53.8181 116.105 53.8181C115.994 53.8181 115.937 53.7609 115.937 53.6492V53.3324C115.733 53.657 115.371 53.8181 114.846 53.8181H114.489L114.492 53.8259ZM114.492 53.4908H114.849C115.053 53.4908 115.234 53.4674 115.392 53.4233C115.547 53.3765 115.673 53.3038 115.769 53.2025C115.865 53.1012 115.922 52.9635 115.942 52.7947V52.2389H114.494C114.259 52.2389 114.096 52.283 114.006 52.3739C113.915 52.4648 113.871 52.6285 113.871 52.8674C113.871 53.1064 113.915 53.2674 114.006 53.3583C114.096 53.4492 114.259 53.4934 114.494 53.4934L114.492 53.4908Z" fill="white"/>
<path d="M117.447 53.826C117.336 53.826 117.279 53.7689 117.279 53.6572V50.9741C117.279 50.8624 117.336 50.8079 117.447 50.8079C117.559 50.8079 117.613 50.8624 117.613 50.9741V51.2806C117.815 50.9663 118.179 50.8079 118.707 50.8079H118.885C119.281 50.8079 119.57 50.8988 119.754 51.0832C119.937 51.2676 120.028 51.5585 120.028 51.9559V53.6546C120.028 53.7663 119.973 53.8234 119.862 53.8234C119.751 53.8234 119.694 53.7663 119.694 53.6546V51.9559C119.694 51.652 119.635 51.439 119.516 51.3195C119.397 51.2001 119.185 51.1403 118.885 51.1403H118.707C118.378 51.1403 118.12 51.1923 117.931 51.2962C117.742 51.4001 117.636 51.5637 117.613 51.7845V53.6546C117.613 53.7663 117.559 53.8234 117.447 53.8234V53.826Z" fill="white"/>
<path d="M122.095 53.826C121.7 53.826 121.408 53.7325 121.224 53.5481C121.04 53.3637 120.947 53.0702 120.947 52.6728V51.9585C120.947 51.5611 121.04 51.2702 121.224 51.0858C121.408 50.9014 121.7 50.8104 122.095 50.8104H123.427V49.5637C123.427 49.452 123.484 49.3975 123.595 49.3975C123.706 49.3975 123.76 49.452 123.76 49.5637V53.6598C123.76 53.7715 123.706 53.8286 123.595 53.8286C123.484 53.8286 123.427 53.7715 123.427 53.6598V53.3845C123.336 53.5325 123.202 53.6416 123.026 53.7169C122.85 53.7923 122.62 53.8286 122.336 53.8286H122.095V53.826ZM122.095 53.491H122.336C122.667 53.491 122.93 53.439 123.129 53.3325C123.329 53.226 123.427 53.0676 123.427 52.8572V51.1403H122.095C121.793 51.1403 121.581 51.2001 121.462 51.3221C121.343 51.4442 121.281 51.6546 121.281 51.9559V52.6702C121.281 52.9741 121.34 53.1871 121.462 53.3066C121.583 53.426 121.793 53.4884 122.095 53.4884V53.491Z" fill="white"/>
<path d="M126.894 53.8207C126.632 53.8207 126.433 53.7636 126.296 53.6519C126.159 53.5402 126.077 53.3688 126.048 53.1376C126.043 53.0831 126.053 53.0389 126.084 53.0078C126.115 52.9766 126.157 52.961 126.214 52.961C126.265 52.961 126.307 52.974 126.333 53.0026C126.358 53.0311 126.377 53.0727 126.384 53.1272C126.402 53.2597 126.451 53.3506 126.529 53.4026C126.607 53.4545 126.728 53.4805 126.894 53.4805H127.936C128.132 53.4805 128.269 53.4441 128.342 53.3688C128.417 53.2935 128.453 53.1584 128.453 52.961C128.453 52.7636 128.417 52.6233 128.342 52.548C128.267 52.4727 128.132 52.4363 127.936 52.4363H126.904C126.627 52.4363 126.423 52.3688 126.289 52.2363C126.154 52.1039 126.087 51.8987 126.087 51.6207C126.087 51.3428 126.154 51.1298 126.286 50.9974C126.42 50.8649 126.625 50.7974 126.904 50.7974H127.902C128.38 50.7974 128.647 51.0103 128.701 51.4363C128.709 51.4909 128.698 51.535 128.667 51.5662C128.636 51.5974 128.595 51.6129 128.538 51.6129C128.481 51.6129 128.445 51.6 128.419 51.5714C128.393 51.5428 128.375 51.5039 128.365 51.4493C128.349 51.3298 128.308 51.2467 128.236 51.2026C128.163 51.1584 128.055 51.135 127.902 51.135H126.904C126.72 51.135 126.594 51.1688 126.524 51.2363C126.454 51.3039 126.42 51.4337 126.42 51.6233C126.42 51.8129 126.457 51.9298 126.526 52C126.596 52.0701 126.723 52.1039 126.904 52.1039H127.936C128.228 52.1039 128.442 52.174 128.582 52.3142C128.719 52.4545 128.789 52.6701 128.789 52.9636C128.789 53.2571 128.719 53.4701 128.582 53.6103C128.445 53.7506 128.228 53.8207 127.936 53.8207H126.894Z" fill="white"/>
<path d="M129.91 52.4467V52.6805C129.91 52.9818 129.969 53.1922 130.091 53.3117C130.212 53.4311 130.422 53.4935 130.724 53.4935H131.246C131.513 53.4935 131.709 53.4597 131.831 53.3896C131.952 53.3194 132.025 53.2 132.048 53.0311C132.056 52.9766 132.074 52.9376 132.1 52.9091C132.126 52.8805 132.167 52.8675 132.221 52.8675C132.276 52.8675 132.319 52.8831 132.348 52.9143C132.376 52.9454 132.387 52.9896 132.382 53.0441C132.353 53.3117 132.247 53.5117 132.061 53.6389C131.875 53.7662 131.603 53.8311 131.246 53.8311H130.724C130.329 53.8311 130.036 53.7402 129.853 53.5558C129.669 53.3714 129.576 53.0805 129.576 52.6857V51.9636C129.576 51.561 129.669 51.2675 129.853 51.0831C130.036 50.8987 130.329 50.8078 130.724 50.813H131.246C131.642 50.813 131.934 50.9039 132.115 51.0883C132.299 51.2727 132.389 51.5636 132.389 51.961V52.2805C132.389 52.3922 132.335 52.4493 132.224 52.4493H129.91V52.4467ZM130.724 51.1428C130.422 51.1376 130.21 51.1974 130.091 51.3169C129.972 51.4363 129.91 51.6519 129.91 51.9584V52.1117H132.056V51.9584C132.056 51.6545 131.996 51.4415 131.877 51.322C131.758 51.2026 131.546 51.1428 131.244 51.1428H130.722H130.724Z" fill="white"/>
<path d="M133.533 53.826C133.422 53.826 133.365 53.7689 133.365 53.6572V50.9741C133.365 50.8624 133.422 50.8079 133.533 50.8079C133.644 50.8079 133.699 50.8624 133.699 50.9741V51.465C133.81 51.252 133.968 51.0884 134.177 50.9767C134.387 50.8624 134.632 50.8079 134.919 50.8079C135.03 50.8079 135.087 50.8624 135.087 50.9741C135.087 51.0858 135.03 51.1429 134.919 51.1429C134.542 51.1429 134.249 51.2286 134.04 51.4001C133.833 51.5715 133.717 51.8157 133.696 52.1325V53.6572C133.696 53.7689 133.642 53.826 133.531 53.826H133.533Z" fill="white"/>
<path d="M136.792 53.6988C136.769 53.7507 136.741 53.7845 136.707 53.8001C136.674 53.8156 136.635 53.826 136.588 53.826C136.495 53.826 136.43 53.7819 136.392 53.6962L135.213 51.0416C135.169 50.9377 135.2 50.865 135.306 50.8234C135.404 50.7819 135.476 50.8104 135.523 50.9143L136.699 53.5585H136.495L137.749 50.9091C137.772 50.8598 137.803 50.8286 137.842 50.813C137.881 50.7975 137.925 50.8001 137.971 50.8234C138.075 50.8702 138.103 50.9455 138.057 51.0468L136.795 53.6988H136.792Z" fill="white"/>
<path d="M138.794 50.2234C138.647 50.2234 138.574 50.1481 138.574 49.9974V49.852C138.574 49.7065 138.647 49.6338 138.794 49.6338H138.934C139.078 49.6338 139.151 49.7065 139.151 49.852V49.9974C139.151 50.1481 139.078 50.2234 138.934 50.2234H138.794ZM138.864 53.826C138.753 53.826 138.696 53.7689 138.696 53.6572V50.974C138.696 50.8624 138.753 50.8078 138.864 50.8078C138.975 50.8078 139.029 50.8624 139.029 50.974V53.6572C139.029 53.7689 138.975 53.826 138.864 53.826Z" fill="white"/>
<path d="M141.152 53.826C140.756 53.826 140.464 53.7325 140.281 53.5481C140.097 53.3637 140.004 53.0702 140.004 52.6728V51.9507C140.004 51.5533 140.094 51.2598 140.278 51.078C140.462 50.8961 140.754 50.8026 141.152 50.8078H141.674C141.987 50.8078 142.225 50.8598 142.388 50.9663C142.553 51.0728 142.652 51.2364 142.683 51.4624C142.69 51.5195 142.677 51.5637 142.646 51.5922C142.615 51.6208 142.571 51.6364 142.517 51.6364C142.465 51.6364 142.429 51.6234 142.403 51.5974C142.377 51.5715 142.359 51.5325 142.346 51.4805C142.323 51.3585 142.261 51.2702 142.158 51.2182C142.054 51.1663 141.894 51.1403 141.674 51.1403H141.152C140.849 51.1351 140.637 51.1922 140.518 51.3117C140.399 51.4312 140.337 51.6416 140.337 51.9481V52.6702C140.337 52.9741 140.397 53.187 140.518 53.3065C140.64 53.426 140.849 53.4883 141.152 53.4883H141.674C141.894 53.4883 142.057 53.4624 142.158 53.4104C142.259 53.3585 142.323 53.2702 142.346 53.1455C142.359 53.0935 142.377 53.0546 142.403 53.0286C142.429 53.0026 142.468 52.9896 142.517 52.9896C142.571 52.9896 142.615 53.0052 142.646 53.0364C142.677 53.0676 142.69 53.1117 142.683 53.1663C142.652 53.3922 142.553 53.5585 142.388 53.665C142.222 53.7715 141.984 53.8234 141.674 53.8234H141.152V53.826Z" fill="white"/>
<path d="M143.843 52.4467V52.6805C143.843 52.9818 143.903 53.1922 144.024 53.3117C144.146 53.4311 144.355 53.4935 144.658 53.4935H145.18C145.446 53.4935 145.643 53.4597 145.764 53.3896C145.886 53.3194 145.958 53.2 145.982 53.0311C145.989 52.9766 146.007 52.9376 146.033 52.9091C146.059 52.8805 146.101 52.8675 146.155 52.8675C146.209 52.8675 146.25 52.8831 146.282 52.9143C146.313 52.9454 146.32 52.9896 146.315 53.0441C146.287 53.3117 146.181 53.5117 145.995 53.6389C145.808 53.7662 145.537 53.8311 145.18 53.8311H144.658C144.262 53.8311 143.97 53.7402 143.786 53.5558C143.603 53.3714 143.51 53.0805 143.51 52.6857V51.9636C143.51 51.561 143.603 51.2675 143.786 51.0831C143.97 50.8987 144.262 50.8078 144.658 50.813H145.18C145.576 50.813 145.868 50.9039 146.049 51.0883C146.232 51.2727 146.323 51.5636 146.323 51.961V52.2805C146.323 52.3922 146.269 52.4493 146.157 52.4493H143.843V52.4467ZM144.658 51.1428C144.355 51.1376 144.143 51.1974 144.024 51.3169C143.905 51.4363 143.843 51.6519 143.843 51.9584V52.1117H145.989V51.9584C145.989 51.6545 145.93 51.4415 145.811 51.322C145.692 51.2026 145.48 51.1428 145.177 51.1428H144.655H144.658Z" fill="white"/>
<path d="M147.956 53.8207C147.695 53.8207 147.496 53.7636 147.359 53.6519C147.222 53.5402 147.139 53.3688 147.111 53.1376C147.105 53.0831 147.116 53.0389 147.147 53.0078C147.175 52.9766 147.219 52.961 147.276 52.961C147.328 52.961 147.369 52.974 147.395 53.0026C147.421 53.0311 147.439 53.0727 147.447 53.1272C147.465 53.2597 147.514 53.3506 147.592 53.4026C147.669 53.4545 147.791 53.4805 147.956 53.4805H148.998C149.195 53.4805 149.332 53.4441 149.404 53.3688C149.479 53.2935 149.515 53.1584 149.515 52.961C149.515 52.7636 149.479 52.6233 149.404 52.548C149.329 52.4727 149.195 52.4363 148.998 52.4363H147.966C147.69 52.4363 147.486 52.3688 147.351 52.2363C147.217 52.1039 147.149 51.8987 147.149 51.6207C147.149 51.3428 147.217 51.1298 147.349 50.9974C147.483 50.8649 147.687 50.7974 147.966 50.7974H148.965C149.443 50.7974 149.709 51.0103 149.763 51.4363C149.771 51.4909 149.761 51.535 149.73 51.5662C149.699 51.5974 149.655 51.6129 149.601 51.6129C149.546 51.6129 149.507 51.6 149.482 51.5714C149.456 51.5428 149.438 51.5039 149.425 51.4493C149.409 51.3298 149.368 51.2467 149.295 51.2026C149.223 51.1584 149.114 51.135 148.962 51.135H147.964C147.78 51.135 147.654 51.1688 147.584 51.2363C147.514 51.3039 147.48 51.4337 147.48 51.6233C147.48 51.8129 147.517 51.9298 147.586 52C147.656 52.0701 147.783 52.1039 147.964 52.1039H148.996C149.288 52.1039 149.502 52.174 149.642 52.3142C149.779 52.4545 149.849 52.6701 149.849 52.9636C149.849 53.2571 149.779 53.4701 149.642 53.6103C149.505 53.7506 149.288 53.8207 148.996 53.8207H147.954H147.956Z" fill="white"/>
<path d="M80.8349 61.6389C80.7211 61.6389 80.6668 61.5818 80.6668 61.4701V58.9558H80.4005C80.2867 58.9558 80.2324 58.8987 80.2324 58.787C80.2324 58.6753 80.2893 58.6208 80.4005 58.6208H80.6668V58.3402C80.6668 57.948 80.7573 57.6623 80.9383 57.4805C81.1193 57.2987 81.4063 57.2078 81.7941 57.2078C81.9027 57.2078 81.957 57.2623 81.957 57.374C81.957 57.4857 81.9027 57.5428 81.7941 57.5428C81.4968 57.5428 81.2899 57.6 81.1736 57.7169C81.0572 57.8337 80.9978 58.0389 80.9978 58.3376V58.6182H81.7864C81.8975 58.6182 81.9544 58.6727 81.9544 58.7844C81.9544 58.8961 81.8975 58.9532 81.7864 58.9532H80.9978V61.4675C80.9978 61.5792 80.9435 61.6363 80.8323 61.6363L80.8349 61.6389Z" fill="white"/>
<path d="M83.4468 61.639C83.0512 61.639 82.7591 61.5481 82.5755 61.3637C82.3919 61.1793 82.2988 60.8883 82.2988 60.4935V59.7715C82.2988 59.3689 82.3919 59.0754 82.5755 58.8909C82.7591 58.7065 83.0512 58.6156 83.4468 58.6208H83.9691C84.3647 58.6208 84.6569 58.7117 84.8379 58.8961C85.0214 59.0806 85.1119 59.3715 85.1119 59.7689V60.4832C85.1119 60.8806 85.0214 61.1741 84.8379 61.3585C84.6543 61.5429 84.3647 61.6364 83.9691 61.6364H83.4468V61.639ZM82.6324 60.4909C82.6324 60.7922 82.6918 61.0026 82.8134 61.1221C82.9349 61.2416 83.1443 61.3039 83.4468 61.3039H83.9691C84.2716 61.3039 84.4836 61.2442 84.6026 61.1221C84.7215 61.0026 84.781 60.7896 84.781 60.4857V59.7715C84.781 59.4676 84.7215 59.2546 84.6026 59.1351C84.4836 59.0156 84.2716 58.9559 83.9691 58.9559H83.4468C83.2426 58.9559 83.0823 58.9793 82.9633 59.0286C82.8444 59.0806 82.7591 59.1663 82.7099 59.2832C82.6582 59.4026 82.6324 59.5637 82.6324 59.7689V60.4909Z" fill="white"/>
<path d="M86.2599 61.639C86.1487 61.639 86.0918 61.5819 86.0918 61.4702V58.7871C86.0918 58.6754 86.1487 58.6208 86.2599 58.6208C86.371 58.6208 86.4253 58.6754 86.4253 58.7871V59.278C86.5365 59.065 86.6942 58.9014 86.9037 58.7897C87.1131 58.6754 87.3613 58.6208 87.6457 58.6208C87.7569 58.6208 87.8138 58.6754 87.8138 58.7871C87.8138 58.8988 87.7569 58.9559 87.6457 58.9559C87.2682 58.9559 86.9761 59.0416 86.7692 59.2131C86.5624 59.3845 86.446 59.6286 86.4253 59.9455V61.4702C86.4253 61.5819 86.371 61.639 86.2599 61.639Z" fill="white"/>
<path d="M91.0576 61.639C90.6672 61.639 90.3828 61.5481 90.2018 61.3663C90.0208 61.1844 89.9303 60.8987 89.9303 60.5091V58.9533H89.5528C89.4391 58.9533 89.3848 58.8961 89.3848 58.7845C89.3848 58.6728 89.4416 58.6182 89.5528 58.6182H89.9303V57.9325C89.9303 57.8208 89.9846 57.7637 90.0958 57.7637C90.207 57.7637 90.2639 57.8208 90.2639 57.9325V58.6182H91.0628C91.174 58.6182 91.2283 58.6728 91.2283 58.7845C91.2283 58.8961 91.174 58.9533 91.0628 58.9533H90.2639V60.5091C90.2639 60.8078 90.3207 61.013 90.4371 61.1299C90.5535 61.2442 90.7603 61.3013 91.0551 61.3013C91.1171 61.3013 91.1611 61.3143 91.1869 61.3429C91.2128 61.3715 91.2257 61.413 91.2257 61.4676C91.2257 61.5793 91.1688 61.6364 91.0551 61.6364L91.0576 61.639Z" fill="white"/>
<path d="M92.1524 61.6389C92.0413 61.6389 91.9844 61.5818 91.9844 61.4701V57.374C91.9844 57.2623 92.0413 57.2078 92.1524 57.2078C92.2636 57.2078 92.3179 57.2623 92.3179 57.374V59.0935C92.5196 58.7792 92.8842 58.6208 93.4116 58.6208H93.59C93.9856 58.6208 94.2752 58.7117 94.4588 58.8961C94.6423 59.0805 94.7329 59.3714 94.7329 59.7688V61.4675C94.7329 61.5792 94.6785 61.6363 94.5674 61.6363C94.4562 61.6363 94.3993 61.5792 94.3993 61.4675V59.7688C94.3993 59.4649 94.3398 59.2519 94.2209 59.1324C94.102 59.013 93.8899 58.9532 93.59 58.9532H93.4116C93.0832 58.9532 92.8247 59.0052 92.6359 59.1091C92.4472 59.213 92.3412 59.3766 92.3179 59.5974V61.4675C92.3179 61.5792 92.2636 61.6363 92.1524 61.6363V61.6389Z" fill="white"/>
<path d="M95.9859 60.2597V60.4935C95.9859 60.7948 96.0453 61.0052 96.1669 61.1246C96.2884 61.2441 96.4978 61.3065 96.8003 61.3065H97.3226C97.5889 61.3065 97.7854 61.2727 97.907 61.2026C98.0285 61.1324 98.1009 61.013 98.1242 60.8441C98.1319 60.7896 98.15 60.7506 98.1759 60.722C98.2017 60.6935 98.2431 60.6805 98.2974 60.6805C98.3517 60.6805 98.3956 60.6961 98.4241 60.7272C98.4525 60.7584 98.4629 60.8026 98.4577 60.8571C98.4293 61.1246 98.3232 61.3246 98.1371 61.4519C97.9509 61.5792 97.6794 61.6441 97.3226 61.6441H96.8003C96.4047 61.6441 96.1126 61.5532 95.929 61.3688C95.7454 61.1844 95.6523 60.8935 95.6523 60.4987V59.7766C95.6523 59.374 95.7454 59.0805 95.929 58.8961C96.1126 58.7117 96.4047 58.6207 96.8003 58.6259H97.3226C97.7182 58.6259 98.0104 58.7169 98.1914 58.9013C98.375 59.0857 98.4655 59.3766 98.4655 59.774V60.0935C98.4655 60.2052 98.4112 60.2623 98.3 60.2623H95.9859V60.2597ZM96.8003 58.9558C96.4978 58.9506 96.2858 59.0104 96.1669 59.1298C96.0479 59.2493 95.9859 59.4649 95.9859 59.7714V59.9246H98.1319V59.7714C98.1319 59.4675 98.0724 59.2545 97.9535 59.135C97.8346 59.0156 97.6226 58.9558 97.32 58.9558H96.7978H96.8003Z" fill="white"/>
<path d="M100.592 61.6233C100.491 61.5791 100.46 61.5038 100.499 61.3999L102.076 57.6518C102.109 57.5635 102.171 57.522 102.265 57.522H102.283C102.371 57.522 102.43 57.5687 102.466 57.6518L104.043 61.3999C104.085 61.5038 104.056 61.5791 103.956 61.6233C103.852 61.6648 103.78 61.6363 103.738 61.535L103.314 60.5298H101.23L100.806 61.535C100.765 61.6363 100.69 61.6674 100.586 61.6233H100.592ZM101.37 60.1921H103.177L102.275 58.0518L101.373 60.1921H101.37Z" fill="white"/>
<path d="M104.863 61.639C104.812 61.639 104.77 61.6234 104.739 61.5949C104.708 61.5663 104.695 61.5247 104.695 61.4702V57.6884C104.695 57.6364 104.711 57.5949 104.739 57.5637C104.768 57.5351 104.809 57.5195 104.863 57.5195C104.918 57.5195 104.954 57.5351 104.985 57.5637C105.013 57.5949 105.029 57.6338 105.029 57.6884V61.4702C105.029 61.5221 105.013 61.5637 104.985 61.5949C104.956 61.626 104.915 61.639 104.863 61.639Z" fill="white"/>
<path d="M108.623 61.639C108.227 61.639 107.935 61.5455 107.751 61.3611C107.568 61.1767 107.475 60.8831 107.475 60.4857V59.7637C107.475 59.3663 107.565 59.0728 107.749 58.8909C107.932 58.7091 108.224 58.6156 108.623 58.6208H109.145C109.458 58.6208 109.696 58.6728 109.859 58.7793C110.024 58.8857 110.122 59.0494 110.153 59.2754C110.161 59.3325 110.148 59.3767 110.117 59.4052C110.086 59.4338 110.042 59.4494 109.988 59.4494C109.936 59.4494 109.9 59.4364 109.874 59.4104C109.848 59.3844 109.83 59.3455 109.817 59.2935C109.794 59.1715 109.732 59.0831 109.628 59.0312C109.525 58.9793 109.365 58.9533 109.145 58.9533H108.623C108.32 58.9481 108.108 59.0052 107.989 59.1247C107.87 59.2442 107.811 59.4546 107.811 59.7611V60.4831C107.811 60.787 107.87 61 107.989 61.1195C108.108 61.239 108.32 61.3013 108.623 61.3013H109.145C109.365 61.3013 109.528 61.2754 109.628 61.2234C109.729 61.1715 109.794 61.0831 109.817 60.9585C109.83 60.9065 109.848 60.8676 109.874 60.8416C109.9 60.8156 109.939 60.8026 109.988 60.8026C110.042 60.8026 110.086 60.8182 110.117 60.8494C110.148 60.8806 110.161 60.9247 110.153 60.9793C110.122 61.2052 110.024 61.3715 109.859 61.478C109.693 61.5844 109.455 61.6364 109.145 61.6364H108.623V61.639Z" fill="white"/>
<path d="M112.127 61.639C111.731 61.639 111.439 61.5481 111.255 61.3637C111.072 61.1793 110.979 60.8883 110.979 60.4935V59.7715C110.979 59.3689 111.072 59.0754 111.255 58.8909C111.439 58.7065 111.731 58.6156 112.127 58.6208H112.649C113.044 58.6208 113.337 58.7117 113.518 58.8961C113.701 59.0806 113.792 59.3715 113.792 59.7689V60.4832C113.792 60.8806 113.701 61.1741 113.518 61.3585C113.334 61.5429 113.044 61.6364 112.649 61.6364H112.127V61.639ZM111.312 60.4909C111.312 60.7922 111.372 61.0026 111.493 61.1221C111.615 61.2416 111.824 61.3039 112.127 61.3039H112.649C112.951 61.3039 113.163 61.2442 113.282 61.1221C113.401 61.0026 113.461 60.7896 113.461 60.4857V59.7715C113.461 59.4676 113.401 59.2546 113.282 59.1351C113.163 59.0156 112.951 58.9559 112.649 58.9559H112.127C111.922 58.9559 111.762 58.9793 111.643 59.0286C111.524 59.0806 111.439 59.1663 111.39 59.2832C111.338 59.4026 111.312 59.5637 111.312 59.7689V60.4909Z" fill="white"/>
<path d="M118.137 58.6156C118.478 58.6156 118.724 58.7039 118.871 58.878C119.018 59.052 119.091 59.3403 119.091 59.7429V61.478C119.091 61.5897 119.036 61.6442 118.925 61.6442C118.814 61.6442 118.757 61.5897 118.757 61.478V59.7429C118.757 59.4624 118.711 59.2598 118.615 59.1351C118.519 59.0104 118.362 58.9507 118.137 58.9507H117.873C117.594 58.9507 117.397 59.013 117.276 59.1351C117.154 59.2572 117.095 59.4598 117.095 59.7429V61.478C117.095 61.5897 117.04 61.6442 116.929 61.6442C116.818 61.6442 116.761 61.5897 116.761 61.478V59.7429C116.761 59.4624 116.715 59.2598 116.619 59.1351C116.523 59.0104 116.365 58.9507 116.141 58.9507H115.877C115.6 58.9507 115.401 59.013 115.28 59.1351C115.158 59.2572 115.101 59.4598 115.101 59.7429V61.478C115.101 61.5897 115.047 61.6442 114.936 61.6442C114.824 61.6442 114.768 61.5897 114.768 61.478V58.7871C114.768 58.6754 114.824 58.6208 114.936 58.6208C115.047 58.6208 115.101 58.6754 115.101 58.7871V59.0364C115.194 58.8858 115.305 58.7767 115.435 58.7117C115.564 58.6468 115.724 58.613 115.923 58.613H116.143C116.365 58.613 116.544 58.652 116.678 58.7299C116.813 58.8078 116.919 58.9351 116.999 59.1117C117.092 58.9351 117.206 58.8078 117.343 58.7299C117.477 58.652 117.656 58.613 117.873 58.613H118.137V58.6156Z" fill="white"/>
<path d="M123.463 58.6156C123.804 58.6156 124.05 58.7039 124.197 58.878C124.344 59.052 124.417 59.3403 124.417 59.7429V61.478C124.417 61.5897 124.363 61.6442 124.251 61.6442C124.14 61.6442 124.083 61.5897 124.083 61.478V59.7429C124.083 59.4624 124.037 59.2598 123.941 59.1351C123.845 59.0104 123.688 58.9507 123.463 58.9507H123.199C122.92 58.9507 122.723 59.013 122.602 59.1351C122.48 59.2572 122.421 59.4598 122.421 59.7429V61.478C122.421 61.5897 122.366 61.6442 122.255 61.6442C122.144 61.6442 122.087 61.5897 122.087 61.478V59.7429C122.087 59.4624 122.041 59.2598 121.945 59.1351C121.849 59.0104 121.692 58.9507 121.467 58.9507H121.203C120.926 58.9507 120.727 59.013 120.606 59.1351C120.484 59.2572 120.427 59.4598 120.427 59.7429V61.478C120.427 61.5897 120.373 61.6442 120.262 61.6442C120.151 61.6442 120.094 61.5897 120.094 61.478V58.7871C120.094 58.6754 120.151 58.6208 120.262 58.6208C120.373 58.6208 120.427 58.6754 120.427 58.7871V59.0364C120.52 58.8858 120.632 58.7767 120.761 58.7117C120.89 58.6468 121.05 58.613 121.25 58.613H121.469C121.692 58.613 121.87 58.652 122.004 58.7299C122.139 58.8078 122.245 58.9351 122.325 59.1117C122.418 58.9351 122.532 58.8078 122.669 58.7299C122.803 58.652 122.982 58.613 123.199 58.613H123.463V58.6156Z" fill="white"/>
<path d="M127.948 58.6208C128.061 58.6208 128.116 58.678 128.116 58.7897V61.4728C128.116 61.5845 128.059 61.639 127.948 61.639C127.836 61.639 127.782 61.5845 127.782 61.4728V61.1663C127.58 61.4806 127.216 61.639 126.688 61.639H126.51C126.114 61.639 125.822 61.5481 125.641 61.3637C125.46 61.1793 125.367 60.8884 125.367 60.491V58.7923C125.367 58.678 125.421 58.6234 125.533 58.6234C125.644 58.6234 125.701 58.6806 125.701 58.7923V60.491C125.701 60.7949 125.76 61.0079 125.882 61.1273C126.001 61.2468 126.213 61.3066 126.513 61.3066H126.691C127.019 61.3066 127.278 61.2546 127.467 61.1507C127.655 61.0468 127.761 60.8832 127.785 60.6624V58.7923C127.785 58.678 127.839 58.6234 127.95 58.6234L127.948 58.6208Z" fill="white"/>
<path d="M129.348 61.639C129.234 61.639 129.18 61.5819 129.18 61.4702V58.7871C129.18 58.6754 129.237 58.6208 129.348 58.6208C129.459 58.6208 129.513 58.6754 129.513 58.7871V59.0936C129.715 58.7793 130.079 58.6208 130.607 58.6208H130.785C131.181 58.6208 131.473 58.7118 131.654 58.8962C131.838 59.0806 131.928 59.3715 131.928 59.7689V61.4676C131.928 61.5793 131.874 61.6364 131.763 61.6364C131.652 61.6364 131.595 61.5793 131.595 61.4676V59.7689C131.595 59.465 131.535 59.252 131.414 59.1325C131.295 59.0131 131.083 58.9533 130.783 58.9533H130.604C130.276 58.9533 130.017 59.0053 129.829 59.1092C129.64 59.2131 129.534 59.3767 129.511 59.5975V61.4676C129.511 61.5793 129.456 61.6364 129.345 61.6364L129.348 61.639Z" fill="white"/>
<path d="M133.032 58.0364C132.885 58.0364 132.812 57.9611 132.812 57.8104V57.665C132.812 57.5195 132.885 57.4468 133.032 57.4468H133.172C133.317 57.4468 133.389 57.5195 133.389 57.665V57.8104C133.389 57.9611 133.317 58.0364 133.172 58.0364H133.032ZM133.102 61.639C132.988 61.639 132.934 61.5818 132.934 61.4702V58.787C132.934 58.6753 132.991 58.6208 133.102 58.6208C133.213 58.6208 133.268 58.6753 133.268 58.787V61.4702C133.268 61.5818 133.213 61.639 133.102 61.639Z" fill="white"/>
<path d="M135.56 61.639C135.169 61.639 134.885 61.5481 134.704 61.3663C134.523 61.1844 134.432 60.8987 134.432 60.5091V58.9533H134.055C133.941 58.9533 133.887 58.8961 133.887 58.7845C133.887 58.6728 133.944 58.6182 134.055 58.6182H134.432V57.9325C134.432 57.8208 134.487 57.7637 134.598 57.7637C134.709 57.7637 134.766 57.8208 134.766 57.9325V58.6182H135.565C135.676 58.6182 135.73 58.6728 135.73 58.7845C135.73 58.8961 135.676 58.9533 135.565 58.9533H134.766V60.5091C134.766 60.8078 134.823 61.013 134.939 61.1299C135.055 61.2442 135.262 61.3013 135.557 61.3013C135.619 61.3013 135.663 61.3143 135.689 61.3429C135.715 61.3715 135.728 61.413 135.728 61.4676C135.728 61.5793 135.671 61.6364 135.557 61.6364L135.56 61.639Z" fill="white"/>
<path d="M137.239 62.9169C136.962 62.9169 136.755 62.8494 136.624 62.7169C136.492 62.5819 136.424 62.3741 136.424 62.091C136.424 61.9793 136.479 61.9247 136.59 61.9247C136.701 61.9247 136.758 61.9793 136.758 62.091C136.758 62.2832 136.792 62.413 136.859 62.4806C136.926 62.5481 137.053 62.5819 137.236 62.5819H138.338C138.524 62.5819 138.651 62.5481 138.72 62.4806C138.79 62.413 138.821 62.2832 138.821 62.091V61.213C138.7 61.3715 138.55 61.4858 138.366 61.5481C138.183 61.613 137.971 61.6442 137.728 61.6442H137.549C137.159 61.6442 136.874 61.5533 136.693 61.3715C136.512 61.1897 136.422 60.9065 136.422 60.5195V58.7845C136.422 58.6728 136.476 58.6156 136.587 58.6156C136.699 58.6156 136.755 58.6728 136.755 58.7845V60.5195C136.755 60.8156 136.812 61.0208 136.929 61.1351C137.045 61.2494 137.252 61.3065 137.547 61.3065H137.725C138.095 61.3065 138.371 61.2416 138.55 61.1091C138.728 60.9793 138.819 60.7819 138.819 60.5169V58.7819C138.819 58.6702 138.873 58.613 138.984 58.613C139.095 58.613 139.152 58.6702 139.152 58.7819V62.0884C139.152 62.3715 139.085 62.5793 138.953 62.7143C138.821 62.8494 138.614 62.9143 138.335 62.9143H137.234L137.239 62.9169Z" fill="white"/>
</g>
<defs>
<linearGradient id="paint0_linear_106_3397" x1="1.02906" y1="45.6519" x2="61.7396" y2="34.996" gradientUnits="userSpaceOnUse">
<stop stop-color="#0047BB"/>
<stop offset="0.46" stop-color="#0047BB"/>
<stop offset="0.53" stop-color="#6689C1"/>
<stop offset="0.58" stop-color="#AAB4C6"/>
<stop offset="0.61" stop-color="#C5C6C8"/>
<stop offset="0.84" stop-color="#E8DD4D"/>
<stop offset="1" stop-color="#FFED00"/>
</linearGradient>
<clipPath id="clip0_106_3397">
<rect width="150" height="75" fill="white"/>
</clipPath>
</defs>
</svg>
