<svg width="79" height="44" viewBox="0 0 79 44" fill="none" xmlns="http://www.w3.org/2000/svg">
<path d="M17.925 27C17.5797 27 17.407 26.8273 17.407 26.482V18.18C17.407 17.8347 17.5797 17.662 17.925 17.662H23.021C23.3663 17.662 23.539 17.8347 23.539 18.18C23.539 18.5207 23.3663 18.691 23.021 18.691H18.436V21.771H21.369C21.7143 21.771 21.887 21.9413 21.887 22.282C21.887 22.6273 21.7143 22.8 21.369 22.8H18.436V25.971H23.021C23.3663 25.971 23.539 26.1413 23.539 26.482C23.539 26.8273 23.3663 27 23.021 27H17.925ZM27.7856 26.615C27.7296 26.7503 27.6526 26.8483 27.5546 26.909C27.4566 26.9697 27.3353 27 27.1906 27C26.9246 27 26.7356 26.8647 26.6236 26.594L24.1736 20.791C24.0289 20.469 24.1199 20.245 24.4466 20.119C24.7499 19.979 24.9739 20.07 25.1186 20.392L27.4636 25.943H26.9526L29.4936 20.371C29.5636 20.231 29.6569 20.1377 29.7736 20.091C29.8949 20.0443 30.0303 20.0537 30.1796 20.119C30.4876 20.2637 30.5716 20.4923 30.4316 20.805L27.7856 26.615ZM32.8053 23.948V24.34C32.8053 24.9607 32.9219 25.3877 33.1553 25.621C33.3886 25.8543 33.8203 25.971 34.4503 25.971H35.5983C36.1116 25.971 36.4873 25.9173 36.7253 25.81C36.9679 25.698 37.1243 25.5043 37.1943 25.229C37.2316 25.075 37.2899 24.956 37.3693 24.872C37.4533 24.788 37.5769 24.746 37.7403 24.746C37.9129 24.746 38.0436 24.7927 38.1323 24.886C38.2209 24.9747 38.2513 25.1053 38.2233 25.278C38.1346 25.8613 37.8709 26.2953 37.4323 26.58C36.9983 26.86 36.3869 27 35.5983 27H34.4503C33.5403 27 32.8659 26.783 32.4273 26.349C31.9933 25.915 31.7763 25.2453 31.7763 24.34V22.73C31.7763 21.806 31.9933 21.1293 32.4273 20.7C32.8659 20.266 33.5403 20.0537 34.4503 20.063H35.5983C36.5083 20.063 37.1803 20.28 37.6143 20.714C38.0483 21.1433 38.2653 21.8153 38.2653 22.73V23.43C38.2653 23.7753 38.0949 23.948 37.7543 23.948H32.8053ZM34.4503 21.092C33.8203 21.0827 33.3886 21.1947 33.1553 21.428C32.9219 21.6613 32.8053 22.0953 32.8053 22.73V22.919H37.2363V22.73C37.2363 22.1 37.1196 21.6707 36.8863 21.442C36.6576 21.2087 36.2283 21.092 35.5983 21.092H34.4503ZM41.3039 27C40.9586 27 40.7859 26.8273 40.7859 26.482V20.574C40.7859 20.2333 40.9586 20.063 41.3039 20.063C41.6446 20.063 41.8149 20.2333 41.8149 20.574V20.952C42.2909 20.3593 43.0446 20.063 44.0759 20.063H44.4679C45.3779 20.063 46.0499 20.28 46.4839 20.714C46.9179 21.148 47.1349 21.82 47.1349 22.73V26.482C47.1349 26.8273 46.9646 27 46.6239 27C46.2786 27 46.1059 26.8273 46.1059 26.482V22.73C46.1059 22.1 45.9869 21.6707 45.7489 21.442C45.5156 21.2087 45.0886 21.092 44.4679 21.092H44.0759C43.4599 21.092 42.9442 21.1737 42.5289 21.337C42.1136 21.4957 41.8756 21.7477 41.8149 22.093V26.482C41.8149 26.8273 41.6446 27 41.3039 27ZM52.7073 27C51.8067 27 51.144 26.7877 50.7193 26.363C50.2947 25.9383 50.0823 25.278 50.0823 24.382V21.092H49.3473C49.002 21.092 48.8293 20.9193 48.8293 20.574C48.8293 20.2333 49.002 20.063 49.3473 20.063H50.0823V18.88C50.0823 18.5347 50.2527 18.362 50.5933 18.362C50.9387 18.362 51.1113 18.5347 51.1113 18.88V20.063H52.7703C53.111 20.063 53.2813 20.2333 53.2813 20.574C53.2813 20.9193 53.111 21.092 52.7703 21.092H51.1113V24.382C51.1113 24.998 51.2233 25.418 51.4473 25.642C51.676 25.8613 52.096 25.971 52.7073 25.971C52.8753 25.971 53.0037 26.013 53.0923 26.097C53.181 26.1763 53.2253 26.3047 53.2253 26.482C53.2253 26.8273 53.0527 27 52.7073 27ZM56.9971 26.993C56.4091 26.993 55.9495 26.8717 55.6181 26.629C55.2868 26.3817 55.0791 26.0107 54.9951 25.516C54.9671 25.348 54.9998 25.215 55.0931 25.117C55.1911 25.019 55.3265 24.97 55.4991 24.97C55.6625 24.97 55.7815 25.012 55.8561 25.096C55.9355 25.18 55.9985 25.306 56.0451 25.474C56.0965 25.6653 56.1945 25.796 56.3391 25.866C56.4838 25.9313 56.7031 25.964 56.9971 25.964H59.2931C59.6805 25.964 59.9418 25.8987 60.0771 25.768C60.2171 25.6327 60.2871 25.3667 60.2871 24.97C60.2871 24.5733 60.2171 24.3073 60.0771 24.172C59.9418 24.0367 59.6805 23.969 59.2931 23.969H57.0321C56.3835 23.969 55.8958 23.808 55.5691 23.486C55.2425 23.1593 55.0791 22.6717 55.0791 22.023C55.0791 21.3603 55.2378 20.868 55.5551 20.546C55.8771 20.2193 56.3695 20.056 57.0321 20.056H59.2231C60.3058 20.056 60.9335 20.5203 61.1061 21.449C61.1341 21.6217 61.0991 21.7547 61.0011 21.848C60.9078 21.9413 60.7748 21.988 60.6021 21.988C60.4435 21.988 60.3245 21.946 60.2451 21.862C60.1658 21.778 60.1051 21.659 60.0631 21.505C60.0165 21.3417 59.9278 21.232 59.7971 21.176C59.6711 21.1153 59.4798 21.085 59.2231 21.085H57.0321C56.6588 21.085 56.4115 21.1457 56.2901 21.267C56.1688 21.3883 56.1081 21.6403 56.1081 22.023C56.1081 22.3777 56.1711 22.6203 56.2971 22.751C56.4278 22.877 56.6728 22.94 57.0321 22.94H59.2931C59.9745 22.94 60.4808 23.108 60.8121 23.444C61.1481 23.78 61.3161 24.2887 61.3161 24.97C61.3161 25.6513 61.1481 26.16 60.8121 26.496C60.4808 26.8273 59.9745 26.993 59.2931 26.993H56.9971Z" fill="white"/>
</svg>
