<svg width="106" height="44" viewBox="0 0 106 44" fill="none" xmlns="http://www.w3.org/2000/svg">
<path d="M20.186 27C19.136 27 18.3613 26.7527 17.862 26.258C17.3673 25.7587 17.12 24.984 17.12 23.934V20.728C17.12 19.6687 17.3673 18.8917 17.862 18.397C18.3567 17.9023 19.1267 17.6573 20.172 17.662H21.866C22.734 17.662 23.392 17.844 23.84 18.208C24.288 18.5673 24.5447 19.1367 24.61 19.916C24.6333 20.0887 24.6007 20.2217 24.512 20.315C24.4233 20.4037 24.2927 20.448 24.12 20.448C23.8073 20.448 23.6277 20.2753 23.581 19.93C23.539 19.454 23.3873 19.1297 23.126 18.957C22.8647 18.7797 22.4447 18.691 21.866 18.691H20.172C19.6633 18.691 19.262 18.754 18.968 18.88C18.674 19.0013 18.464 19.2113 18.338 19.51C18.212 19.804 18.149 20.21 18.149 20.728V23.934C18.149 24.4473 18.212 24.8533 18.338 25.152C18.464 25.446 18.674 25.656 18.968 25.782C19.2667 25.908 19.6727 25.971 20.186 25.971H21.866C22.4447 25.971 22.8647 25.8847 23.126 25.712C23.3873 25.5347 23.539 25.208 23.581 24.732C23.6277 24.3867 23.8073 24.214 24.12 24.214C24.2927 24.214 24.4233 24.2607 24.512 24.354C24.6007 24.4427 24.6333 24.5733 24.61 24.746C24.5447 25.53 24.288 26.1017 23.84 26.461C23.392 26.8203 22.734 27 21.866 27H20.186ZM28.8311 27C27.9211 27 27.2468 26.783 26.8081 26.349C26.3741 25.915 26.1571 25.2453 26.1571 24.34V22.73C26.1571 21.8107 26.3741 21.1363 26.8081 20.707C27.2468 20.273 27.9211 20.0583 28.8311 20.063H29.9791C30.8891 20.063 31.5611 20.28 31.9951 20.714C32.4291 21.148 32.6461 21.82 32.6461 22.73V24.326C32.6461 25.236 32.4291 25.9103 31.9951 26.349C31.5611 26.783 30.8891 27 29.9791 27H28.8311ZM27.1861 24.34C27.1861 24.9607 27.3028 25.3877 27.5361 25.621C27.7694 25.8543 28.2011 25.971 28.8311 25.971H29.9791C30.6091 25.971 31.0384 25.8543 31.2671 25.621C31.5004 25.3877 31.6171 24.956 31.6171 24.326V22.73C31.6171 22.1 31.5004 21.6707 31.2671 21.442C31.0384 21.2087 30.6091 21.092 29.9791 21.092H28.8311C28.4111 21.092 28.0821 21.141 27.8441 21.239C27.6061 21.337 27.4358 21.505 27.3331 21.743C27.2351 21.981 27.1861 22.31 27.1861 22.73V24.34ZM35.6848 27C35.3394 27 35.1668 26.8273 35.1668 26.482V20.574C35.1668 20.2333 35.3394 20.063 35.6848 20.063C36.0254 20.063 36.1958 20.2333 36.1958 20.574V20.952C36.6718 20.3593 37.4254 20.063 38.4568 20.063H38.8488C39.7588 20.063 40.4308 20.28 40.8648 20.714C41.2988 21.148 41.5158 21.82 41.5158 22.73V26.482C41.5158 26.8273 41.3454 27 41.0048 27C40.6594 27 40.4868 26.8273 40.4868 26.482V22.73C40.4868 22.1 40.3678 21.6707 40.1298 21.442C39.8964 21.2087 39.4694 21.092 38.8488 21.092H38.4568C37.8408 21.092 37.3251 21.1737 36.9098 21.337C36.4944 21.4957 36.2564 21.7477 36.1958 22.093V26.482C36.1958 26.8273 36.0254 27 35.6848 27ZM47.0882 27C46.1875 27 45.5249 26.7877 45.1002 26.363C44.6755 25.9383 44.4632 25.278 44.4632 24.382V21.092H43.7282C43.3829 21.092 43.2102 20.9193 43.2102 20.574C43.2102 20.2333 43.3829 20.063 43.7282 20.063H44.4632V18.88C44.4632 18.5347 44.6335 18.362 44.9742 18.362C45.3195 18.362 45.4922 18.5347 45.4922 18.88V20.063H47.1512C47.4919 20.063 47.6622 20.2333 47.6622 20.574C47.6622 20.9193 47.4919 21.092 47.1512 21.092H45.4922V24.382C45.4922 24.998 45.6042 25.418 45.8282 25.642C46.0569 25.8613 46.4769 25.971 47.0882 25.971C47.2562 25.971 47.3845 26.013 47.4732 26.097C47.5619 26.1763 47.6062 26.3047 47.6062 26.482C47.6062 26.8273 47.4335 27 47.0882 27ZM50.3 27C49.9547 27 49.782 26.8273 49.782 26.482V20.574C49.782 20.2333 49.9547 20.063 50.3 20.063C50.6407 20.063 50.811 20.2333 50.811 20.574V21.302C51.077 20.896 51.427 20.588 51.861 20.378C52.2997 20.168 52.8083 20.063 53.387 20.063C53.7323 20.063 53.905 20.2333 53.905 20.574C53.905 20.9193 53.7323 21.092 53.387 21.092C52.5703 21.092 51.945 21.2553 51.511 21.582C51.077 21.904 50.8437 22.345 50.811 22.905V26.482C50.811 26.8273 50.6407 27 50.3 27ZM55.8532 18.873C55.4519 18.873 55.2512 18.6677 55.2512 18.257V17.879C55.2512 17.4777 55.4519 17.277 55.8532 17.277H56.2312C56.6185 17.277 56.8122 17.4777 56.8122 17.879V18.257C56.8122 18.6677 56.6185 18.873 56.2312 18.873H55.8532ZM56.0422 27C55.6969 27 55.5242 26.8273 55.5242 26.482V20.574C55.5242 20.2333 55.6969 20.063 56.0422 20.063C56.3829 20.063 56.5532 20.2333 56.5532 20.574V26.482C56.5532 26.8273 56.3829 27 56.0422 27ZM59.884 27C59.5387 27 59.366 26.8273 59.366 26.482V17.704C59.366 17.3633 59.5387 17.193 59.884 17.193C60.2247 17.193 60.395 17.3633 60.395 17.704V20.889C60.6283 20.6137 60.9293 20.406 61.298 20.266C61.6713 20.126 62.124 20.056 62.656 20.056H63.188C64.098 20.056 64.77 20.273 65.204 20.707C65.638 21.141 65.855 21.8153 65.855 22.73V24.326C65.855 25.236 65.638 25.9103 65.204 26.349C64.77 26.783 64.098 27 63.188 27H62.656C62.124 27 61.6713 26.93 61.298 26.79C60.9293 26.65 60.6283 26.4447 60.395 26.174V26.482C60.395 26.8273 60.2247 27 59.884 27ZM62.656 25.971H63.188C63.818 25.971 64.2473 25.8543 64.476 25.621C64.7093 25.383 64.826 24.9513 64.826 24.326V22.73C64.826 22.1 64.707 21.6683 64.469 21.435C64.2357 21.2017 63.8087 21.085 63.188 21.085H62.656C62.0027 21.085 61.4613 21.176 61.032 21.358C60.6073 21.54 60.395 21.8177 60.395 22.191V24.872C60.3997 25.2407 60.6143 25.516 61.039 25.698C61.4637 25.88 62.0027 25.971 62.656 25.971ZM74.0738 20.063C74.4191 20.063 74.5918 20.2333 74.5918 20.574V26.482C74.5918 26.8273 74.4191 27 74.0738 27C73.7331 27 73.5628 26.8273 73.5628 26.482V26.111C73.0821 26.7037 72.3284 27 71.3018 27H70.9098C69.9998 27 69.3278 26.783 68.8938 26.349C68.4598 25.9103 68.2428 25.236 68.2428 24.326V20.574C68.2428 20.2333 68.4131 20.063 68.7538 20.063C69.0991 20.063 69.2718 20.2333 69.2718 20.574V24.326C69.2718 24.956 69.3884 25.3877 69.6218 25.621C69.8598 25.8543 70.2891 25.971 70.9098 25.971H71.3018C71.9178 25.971 72.4334 25.8893 72.8488 25.726C73.2641 25.558 73.5021 25.3037 73.5628 24.963V20.574C73.5628 20.2333 73.7331 20.063 74.0738 20.063ZM80.2972 27C79.3965 27 78.7339 26.7877 78.3092 26.363C77.8845 25.9383 77.6722 25.278 77.6722 24.382V21.092H76.9372C76.5919 21.092 76.4192 20.9193 76.4192 20.574C76.4192 20.2333 76.5919 20.063 76.9372 20.063H77.6722V18.88C77.6722 18.5347 77.8425 18.362 78.1832 18.362C78.5285 18.362 78.7012 18.5347 78.7012 18.88V20.063H80.3602C80.7009 20.063 80.8712 20.2333 80.8712 20.574C80.8712 20.9193 80.7009 21.092 80.3602 21.092H78.7012V24.382C78.7012 24.998 78.8132 25.418 79.0372 25.642C79.2659 25.8613 79.6859 25.971 80.2972 25.971C80.4652 25.971 80.5935 26.013 80.6822 26.097C80.7709 26.1763 80.8152 26.3047 80.8152 26.482C80.8152 26.8273 80.6425 27 80.2972 27ZM83.1724 23.948V24.34C83.1724 24.9607 83.2891 25.3877 83.5224 25.621C83.7558 25.8543 84.1874 25.971 84.8174 25.971H85.9654C86.4788 25.971 86.8544 25.9173 87.0924 25.81C87.3351 25.698 87.4914 25.5043 87.5614 25.229C87.5988 25.075 87.6571 24.956 87.7364 24.872C87.8204 24.788 87.9441 24.746 88.1074 24.746C88.2801 24.746 88.4108 24.7927 88.4994 24.886C88.5881 24.9747 88.6184 25.1053 88.5904 25.278C88.5018 25.8613 88.2381 26.2953 87.7994 26.58C87.3654 26.86 86.7541 27 85.9654 27H84.8174C83.9074 27 83.2331 26.783 82.7944 26.349C82.3604 25.915 82.1434 25.2453 82.1434 24.34V22.73C82.1434 21.806 82.3604 21.1293 82.7944 20.7C83.2331 20.266 83.9074 20.0537 84.8174 20.063H85.9654C86.8754 20.063 87.5474 20.28 87.9814 20.714C88.4154 21.1433 88.6324 21.8153 88.6324 22.73V23.43C88.6324 23.7753 88.4621 23.948 88.1214 23.948H83.1724ZM84.8174 21.092C84.1874 21.0827 83.7558 21.1947 83.5224 21.428C83.2891 21.6613 83.1724 22.0953 83.1724 22.73V22.919H87.6034V22.73C87.6034 22.1 87.4868 21.6707 87.2534 21.442C87.0248 21.2087 86.5954 21.092 85.9654 21.092H84.8174Z" fill="white"/>
</svg>
