<svg width="135" height="44" viewBox="0 0 135 44" fill="none" xmlns="http://www.w3.org/2000/svg">
<path d="M19.952 27C18.9553 27 18.2187 26.766 17.742 26.298C17.274 25.8213 17.04 25.0847 17.04 24.088V21.085C17.04 20.0883 17.2783 19.356 17.755 18.888C18.2317 18.4113 18.964 18.1773 19.952 18.186H21.512C22.5087 18.186 23.241 18.4243 23.709 18.901C24.1857 19.369 24.424 20.1013 24.424 21.098V24.088C24.424 25.0847 24.1857 25.8213 23.709 26.298C23.241 26.766 22.5087 27 21.512 27H19.952ZM21.512 25.908C21.9887 25.908 22.3527 25.8517 22.604 25.739C22.864 25.6263 23.0503 25.4443 23.163 25.193C23.2757 24.933 23.332 24.5647 23.332 24.088V21.098C23.332 20.63 23.2757 20.266 23.163 20.006C23.0503 19.746 22.864 19.5597 22.604 19.447C22.344 19.3343 21.98 19.278 21.512 19.278H19.952C19.484 19.2693 19.12 19.3213 18.86 19.434C18.6 19.5467 18.4137 19.733 18.301 19.993C18.1883 20.253 18.132 20.617 18.132 21.085V24.088C18.132 24.5647 18.1883 24.933 18.301 25.193C18.4137 25.4443 18.5957 25.6263 18.847 25.739C19.107 25.8517 19.4753 25.908 19.952 25.908H21.512ZM30.398 18.186C31.1953 18.186 31.802 18.3983 32.218 18.823C32.6427 19.239 32.855 19.8457 32.855 20.643V21.033C32.855 21.8217 32.6427 22.4283 32.218 22.853C31.802 23.2777 31.1953 23.49 30.398 23.49H27.902V26.454C27.902 26.6273 27.8543 26.7617 27.759 26.857C27.6637 26.9523 27.5293 27 27.356 27C27.1827 27 27.0483 26.9523 26.953 26.857C26.8577 26.7617 26.81 26.6273 26.81 26.454V18.732C26.81 18.5587 26.8577 18.4243 26.953 18.329C27.0483 18.2337 27.1827 18.186 27.356 18.186H30.398ZM31.763 20.643C31.763 20.1577 31.659 19.811 31.451 19.603C31.243 19.3863 30.892 19.278 30.398 19.278H27.902V22.398H30.398C30.892 22.398 31.243 22.294 31.451 22.086C31.659 21.878 31.763 21.527 31.763 21.033V20.643ZM38.3707 18.186C39.168 18.186 39.7747 18.3983 40.1907 18.823C40.6153 19.239 40.8277 19.8457 40.8277 20.643V21.033C40.8277 21.8217 40.6153 22.4283 40.1907 22.853C39.7747 23.2777 39.168 23.49 38.3707 23.49H35.8747V26.454C35.8747 26.6273 35.827 26.7617 35.7317 26.857C35.6363 26.9523 35.502 27 35.3287 27C35.1553 27 35.021 26.9523 34.9257 26.857C34.8303 26.7617 34.7827 26.6273 34.7827 26.454V18.732C34.7827 18.5587 34.8303 18.4243 34.9257 18.329C35.021 18.2337 35.1553 18.186 35.3287 18.186H38.3707ZM39.7357 20.643C39.7357 20.1577 39.6317 19.811 39.4237 19.603C39.2157 19.3863 38.8647 19.278 38.3707 19.278H35.8747V22.398H38.3707C38.8647 22.398 39.2157 22.294 39.4237 22.086C39.6317 21.878 39.7357 21.527 39.7357 21.033V20.643ZM45.3553 27C44.3587 27 43.622 26.766 43.1453 26.298C42.6773 25.8213 42.4433 25.0847 42.4433 24.088V21.085C42.4433 20.0883 42.6817 19.356 43.1583 18.888C43.635 18.4113 44.3673 18.1773 45.3553 18.186H46.9153C47.912 18.186 48.6443 18.4243 49.1123 18.901C49.589 19.369 49.8273 20.1013 49.8273 21.098V24.088C49.8273 25.0847 49.589 25.8213 49.1123 26.298C48.6443 26.766 47.912 27 46.9153 27H45.3553ZM46.9153 25.908C47.392 25.908 47.756 25.8517 48.0073 25.739C48.2673 25.6263 48.4537 25.4443 48.5663 25.193C48.679 24.933 48.7353 24.5647 48.7353 24.088V21.098C48.7353 20.63 48.679 20.266 48.5663 20.006C48.4537 19.746 48.2673 19.5597 48.0073 19.447C47.7473 19.3343 47.3833 19.278 46.9153 19.278H45.3553C44.8873 19.2693 44.5233 19.3213 44.2633 19.434C44.0033 19.5467 43.817 19.733 43.7043 19.993C43.5917 20.253 43.5353 20.617 43.5353 21.085V24.088C43.5353 24.5647 43.5917 24.933 43.7043 25.193C43.817 25.4443 43.999 25.6263 44.2503 25.739C44.5103 25.8517 44.8787 25.908 45.3553 25.908H46.9153ZM58.2583 21.033C58.2583 21.7177 58.098 22.268 57.7773 22.684C57.4567 23.1 56.993 23.3557 56.3863 23.451L58.0893 26.285C58.1413 26.3717 58.1673 26.467 58.1673 26.571C58.1673 26.7617 58.072 26.9133 57.8813 27.026C57.7687 27.0953 57.669 27.13 57.5823 27.13C57.409 27.13 57.2617 27.0347 57.1403 26.844L55.1643 23.555L55.1253 23.49H53.3053V26.454C53.3053 26.6273 53.2577 26.7617 53.1623 26.857C53.067 26.9523 52.9327 27 52.7593 27C52.586 27 52.4517 26.9523 52.3563 26.857C52.261 26.7617 52.2133 26.6273 52.2133 26.454V18.732C52.2133 18.5587 52.261 18.4243 52.3563 18.329C52.4517 18.2337 52.586 18.186 52.7593 18.186H55.8013C56.5987 18.186 57.2053 18.3983 57.6213 18.823C58.046 19.239 58.2583 19.8457 58.2583 20.643V21.033ZM57.1663 20.643C57.1663 20.1577 57.0623 19.811 56.8543 19.603C56.6463 19.3863 56.2953 19.278 55.8013 19.278H53.3053V22.398H55.8013C56.2953 22.398 56.6463 22.294 56.8543 22.086C57.0623 21.878 57.1663 21.527 57.1663 21.033V20.643ZM62.7234 27C62.3594 27 62.1774 26.818 62.1774 26.454V19.291H59.6554C59.2914 19.291 59.1094 19.109 59.1094 18.745C59.1094 18.381 59.2914 18.199 59.6554 18.199H65.7914C66.1554 18.199 66.3374 18.381 66.3374 18.745C66.3374 19.109 66.1554 19.291 65.7914 19.291H63.2694V26.454C63.2694 26.6273 63.2218 26.7617 63.1264 26.857C63.0311 26.9523 62.8968 27 62.7234 27ZM70.8518 27C69.8551 27 69.1184 26.766 68.6418 26.298C68.1738 25.8213 67.9398 25.0847 67.9398 24.088V18.732C67.9398 18.368 68.1218 18.186 68.4858 18.186C68.8498 18.186 69.0318 18.368 69.0318 18.732V24.088C69.0318 24.5647 69.0881 24.933 69.2008 25.193C69.3134 25.4443 69.4954 25.6263 69.7468 25.739C70.0068 25.8517 70.3751 25.908 70.8518 25.908H72.4118C72.8884 25.908 73.2524 25.8517 73.5038 25.739C73.7638 25.6263 73.9501 25.4443 74.0628 25.193C74.1754 24.933 74.2318 24.5647 74.2318 24.088V18.732C74.2318 18.368 74.4138 18.186 74.7778 18.186C75.1418 18.186 75.3238 18.368 75.3238 18.732V24.088C75.3238 25.0847 75.0854 25.8213 74.6088 26.298C74.1408 26.766 73.4084 27 72.4118 27H70.8518ZM84.4869 18.186C84.6603 18.186 84.7946 18.2337 84.8899 18.329C84.9853 18.4243 85.0329 18.5587 85.0329 18.732V26.454C85.0329 26.6273 84.9853 26.7617 84.8899 26.857C84.7946 26.9523 84.6603 27 84.4869 27C84.3829 27 84.2876 26.974 84.2009 26.922C84.1143 26.87 84.0276 26.7877 83.9409 26.675L78.9879 20.292V26.454C78.9879 26.6273 78.9403 26.7617 78.8449 26.857C78.7496 26.9523 78.6153 27 78.4419 27C78.2686 27 78.1343 26.9523 78.0389 26.857C77.9436 26.7617 77.8959 26.6273 77.8959 26.454V18.732C77.8959 18.5587 77.9436 18.4243 78.0389 18.329C78.1343 18.2337 78.2686 18.186 78.4419 18.186C78.5459 18.186 78.6369 18.212 78.7149 18.264C78.8016 18.316 78.8926 18.3983 78.9879 18.511L83.9409 24.894V18.732C83.9409 18.5587 83.9886 18.4243 84.0839 18.329C84.1793 18.2337 84.3136 18.186 84.4869 18.186ZM88.2808 27C88.0901 27 87.9515 26.9567 87.8648 26.87C87.7781 26.7833 87.7348 26.6447 87.7348 26.454V18.745C87.7348 18.5543 87.7781 18.4157 87.8648 18.329C87.9515 18.2423 88.0901 18.199 88.2808 18.199C88.4715 18.199 88.6101 18.2423 88.6968 18.329C88.7835 18.4157 88.8268 18.5543 88.8268 18.745V26.454C88.8268 26.6447 88.7835 26.7833 88.6968 26.87C88.6101 26.9567 88.4715 27 88.2808 27ZM94.1697 27C93.8057 27 93.6237 26.818 93.6237 26.454V19.291H91.1017C90.7377 19.291 90.5557 19.109 90.5557 18.745C90.5557 18.381 90.7377 18.199 91.1017 18.199H97.2377C97.6017 18.199 97.7837 18.381 97.7837 18.745C97.7837 19.109 97.6017 19.291 97.2377 19.291H94.7157V26.454C94.7157 26.6273 94.668 26.7617 94.5727 26.857C94.4774 26.9523 94.343 27 94.1697 27ZM100.062 27C99.8714 27 99.7327 26.9567 99.6461 26.87C99.5594 26.7833 99.5161 26.6447 99.5161 26.454V18.745C99.5161 18.5543 99.5594 18.4157 99.6461 18.329C99.7327 18.2423 99.8714 18.199 100.062 18.199C100.253 18.199 100.391 18.2423 100.478 18.329C100.565 18.4157 100.608 18.5543 100.608 18.745V26.454C100.608 26.6447 100.565 26.7833 100.478 26.87C100.391 26.9567 100.253 27 100.062 27ZM108.525 25.908C108.698 25.908 108.833 25.9557 108.928 26.051C109.023 26.1463 109.071 26.2807 109.071 26.454C109.071 26.6273 109.023 26.7617 108.928 26.857C108.833 26.9523 108.698 27 108.525 27H103.858C103.685 27 103.55 26.9523 103.455 26.857C103.36 26.7617 103.312 26.6273 103.312 26.454V18.732C103.312 18.5587 103.36 18.4243 103.455 18.329C103.55 18.2337 103.685 18.186 103.858 18.186H108.525C108.698 18.186 108.833 18.2337 108.928 18.329C109.023 18.4243 109.071 18.5587 109.071 18.732C109.071 18.9053 109.023 19.0397 108.928 19.135C108.833 19.2303 108.698 19.278 108.525 19.278H104.404V22.008H106.991C107.164 22.008 107.299 22.0557 107.394 22.151C107.489 22.2463 107.537 22.3807 107.537 22.554C107.537 22.7273 107.489 22.8617 107.394 22.957C107.299 23.0523 107.164 23.1 106.991 23.1H104.404V25.908H108.525ZM113.342 27C112.597 27 112.016 26.8527 111.6 26.558C111.193 26.2547 110.937 25.791 110.833 25.167C110.816 24.985 110.855 24.8463 110.95 24.751C111.045 24.647 111.184 24.595 111.366 24.595C111.539 24.595 111.669 24.6383 111.756 24.725C111.843 24.803 111.903 24.9373 111.938 25.128C111.999 25.4227 112.133 25.6263 112.341 25.739C112.558 25.8517 112.891 25.908 113.342 25.908H115.214C115.595 25.908 115.886 25.8647 116.085 25.778C116.293 25.6913 116.44 25.5483 116.527 25.349C116.614 25.141 116.657 24.8507 116.657 24.478C116.657 23.9233 116.553 23.542 116.345 23.334C116.137 23.126 115.76 23.022 115.214 23.022H113.602C112.787 23.022 112.181 22.8227 111.782 22.424C111.383 22.0253 111.184 21.4143 111.184 20.591C111.184 19.7763 111.379 19.174 111.769 18.784C112.168 18.3853 112.774 18.186 113.589 18.186H115.136C116.505 18.186 117.294 18.758 117.502 19.902C117.528 20.084 117.493 20.227 117.398 20.331C117.303 20.4263 117.16 20.474 116.969 20.474C116.796 20.474 116.666 20.4307 116.579 20.344C116.492 20.2573 116.436 20.123 116.41 19.941C116.341 19.6897 116.211 19.5163 116.02 19.421C115.829 19.3257 115.535 19.278 115.136 19.278H113.589C113.234 19.278 112.961 19.317 112.77 19.395C112.588 19.473 112.458 19.6073 112.38 19.798C112.311 19.98 112.276 20.2443 112.276 20.591C112.276 20.9463 112.315 21.2193 112.393 21.41C112.471 21.592 112.601 21.7263 112.783 21.813C112.974 21.891 113.247 21.93 113.602 21.93H115.214C116.072 21.93 116.709 22.138 117.125 22.554C117.541 22.97 117.749 23.6113 117.749 24.478C117.749 25.336 117.541 25.973 117.125 26.389C116.709 26.7963 116.072 27 115.214 27H113.342Z" fill="white"/>
</svg>
