<svg width="129" height="44" viewBox="0 0 129 44" fill="none" xmlns="http://www.w3.org/2000/svg">
<path d="M20.186 27C19.136 27 18.3613 26.7527 17.862 26.258C17.3673 25.7587 17.12 24.984 17.12 23.934V20.714C17.12 19.6547 17.3673 18.88 17.862 18.39C18.3613 17.8953 19.1337 17.6527 20.179 17.662H21.866C22.916 17.662 23.6883 17.9093 24.183 18.404C24.6777 18.8987 24.925 19.6733 24.925 20.728V23.934C24.925 24.984 24.6777 25.7587 24.183 26.258C23.6883 26.7527 22.916 27 21.866 27H20.186ZM20.186 25.971H21.866C22.3747 25.971 22.776 25.908 23.07 25.782C23.3687 25.656 23.581 25.446 23.707 25.152C23.833 24.8533 23.896 24.4473 23.896 23.934V20.728C23.896 20.2193 23.833 19.818 23.707 19.524C23.581 19.2253 23.3687 19.013 23.07 18.887C22.776 18.7563 22.3747 18.691 21.866 18.691H20.179C19.6703 18.6863 19.269 18.747 18.975 18.873C18.681 18.9943 18.4687 19.2043 18.338 19.503C18.212 19.797 18.149 20.2007 18.149 20.714V23.934C18.149 24.4473 18.212 24.8533 18.338 25.152C18.464 25.446 18.674 25.656 18.968 25.782C19.2667 25.908 19.6727 25.971 20.186 25.971ZM27.9738 29.8C27.6285 29.8 27.4558 29.6273 27.4558 29.282V20.574C27.4558 20.2333 27.6285 20.063 27.9738 20.063C28.3145 20.063 28.4848 20.2333 28.4848 20.574V20.903C28.7228 20.623 29.0308 20.413 29.4088 20.273C29.7868 20.133 30.2325 20.063 30.7458 20.063H31.2778C32.1878 20.063 32.8598 20.28 33.2938 20.714C33.7278 21.148 33.9448 21.82 33.9448 22.73V24.326C33.9448 25.236 33.7278 25.9103 33.2938 26.349C32.8598 26.783 32.1878 27 31.2778 27H28.4848V29.282C28.4848 29.6273 28.3145 29.8 27.9738 29.8ZM28.4848 25.971H31.2778C31.9078 25.971 32.3372 25.8543 32.5658 25.621C32.7992 25.3877 32.9158 24.956 32.9158 24.326V22.73C32.9158 22.1 32.7992 21.6707 32.5658 21.442C32.3372 21.2087 31.9078 21.092 31.2778 21.092H30.7458C30.1065 21.092 29.5792 21.1783 29.1638 21.351C28.7485 21.519 28.5222 21.785 28.4848 22.149V25.971ZM36.9836 29.8C36.6383 29.8 36.4656 29.6273 36.4656 29.282V20.574C36.4656 20.2333 36.6383 20.063 36.9836 20.063C37.3243 20.063 37.4946 20.2333 37.4946 20.574V20.903C37.7326 20.623 38.0406 20.413 38.4186 20.273C38.7966 20.133 39.2423 20.063 39.7556 20.063H40.2876C41.1976 20.063 41.8696 20.28 42.3036 20.714C42.7376 21.148 42.9546 21.82 42.9546 22.73V24.326C42.9546 25.236 42.7376 25.9103 42.3036 26.349C41.8696 26.783 41.1976 27 40.2876 27H37.4946V29.282C37.4946 29.6273 37.3243 29.8 36.9836 29.8ZM37.4946 25.971H40.2876C40.9176 25.971 41.3469 25.8543 41.5756 25.621C41.8089 25.3877 41.9256 24.956 41.9256 24.326V22.73C41.9256 22.1 41.8089 21.6707 41.5756 21.442C41.3469 21.2087 40.9176 21.092 40.2876 21.092H39.7556C39.1163 21.092 38.5889 21.1783 38.1736 21.351C37.7583 21.519 37.5319 21.785 37.4946 22.149V25.971ZM47.8624 27C46.9524 27 46.278 26.783 45.8394 26.349C45.4054 25.915 45.1884 25.2453 45.1884 24.34V22.73C45.1884 21.8107 45.4054 21.1363 45.8394 20.707C46.278 20.273 46.9524 20.0583 47.8624 20.063H49.0104C49.9204 20.063 50.5924 20.28 51.0264 20.714C51.4604 21.148 51.6774 21.82 51.6774 22.73V24.326C51.6774 25.236 51.4604 25.9103 51.0264 26.349C50.5924 26.783 49.9204 27 49.0104 27H47.8624ZM46.2174 24.34C46.2174 24.9607 46.334 25.3877 46.5674 25.621C46.8007 25.8543 47.2324 25.971 47.8624 25.971H49.0104C49.6404 25.971 50.0697 25.8543 50.2984 25.621C50.5317 25.3877 50.6484 24.956 50.6484 24.326V22.73C50.6484 22.1 50.5317 21.6707 50.2984 21.442C50.0697 21.2087 49.6404 21.092 49.0104 21.092H47.8624C47.4424 21.092 47.1134 21.141 46.8754 21.239C46.6374 21.337 46.467 21.505 46.3644 21.743C46.2664 21.981 46.2174 22.31 46.2174 22.73V24.34ZM54.716 27C54.3707 27 54.198 26.8273 54.198 26.482V20.574C54.198 20.2333 54.3707 20.063 54.716 20.063C55.0567 20.063 55.227 20.2333 55.227 20.574V21.302C55.493 20.896 55.843 20.588 56.277 20.378C56.7157 20.168 57.2243 20.063 57.803 20.063C58.1483 20.063 58.321 20.2333 58.321 20.574C58.321 20.9193 58.1483 21.092 57.803 21.092C56.9863 21.092 56.361 21.2553 55.927 21.582C55.493 21.904 55.2597 22.345 55.227 22.905V26.482C55.227 26.8273 55.0567 27 54.716 27ZM62.8382 27C61.9375 27 61.2749 26.7877 60.8502 26.363C60.4255 25.9383 60.2132 25.278 60.2132 24.382V21.092H59.4782C59.1329 21.092 58.9602 20.9193 58.9602 20.574C58.9602 20.2333 59.1329 20.063 59.4782 20.063H60.2132V18.88C60.2132 18.5347 60.3835 18.362 60.7242 18.362C61.0695 18.362 61.2422 18.5347 61.2422 18.88V20.063H62.9012C63.2419 20.063 63.4122 20.2333 63.4122 20.574C63.4122 20.9193 63.2419 21.092 62.9012 21.092H61.2422V24.382C61.2422 24.998 61.3542 25.418 61.5782 25.642C61.8069 25.8613 62.2269 25.971 62.8382 25.971C63.0062 25.971 63.1345 26.013 63.2232 26.097C63.3119 26.1763 63.3562 26.3047 63.3562 26.482C63.3562 26.8273 63.1835 27 62.8382 27ZM71.23 20.063C71.5753 20.063 71.748 20.2333 71.748 20.574V26.482C71.748 26.8273 71.5753 27 71.23 27C70.8893 27 70.719 26.8273 70.719 26.482V26.111C70.2383 26.7037 69.4847 27 68.458 27H68.066C67.156 27 66.484 26.783 66.05 26.349C65.616 25.9103 65.399 25.236 65.399 24.326V20.574C65.399 20.2333 65.5693 20.063 65.91 20.063C66.2553 20.063 66.428 20.2333 66.428 20.574V24.326C66.428 24.956 66.5447 25.3877 66.778 25.621C67.016 25.8543 67.4453 25.971 68.066 25.971H68.458C69.074 25.971 69.5897 25.8893 70.005 25.726C70.4203 25.558 70.6583 25.3037 70.719 24.963V20.574C70.719 20.2333 70.8893 20.063 71.23 20.063ZM75.0734 27C74.7281 27 74.5554 26.8273 74.5554 26.482V20.574C74.5554 20.2333 74.7281 20.063 75.0734 20.063C75.4141 20.063 75.5844 20.2333 75.5844 20.574V20.952C76.0604 20.3593 76.8141 20.063 77.8454 20.063H78.2374C79.1474 20.063 79.8194 20.28 80.2534 20.714C80.6874 21.148 80.9044 21.82 80.9044 22.73V26.482C80.9044 26.8273 80.7341 27 80.3934 27C80.0481 27 79.8754 26.8273 79.8754 26.482V22.73C79.8754 22.1 79.7564 21.6707 79.5184 21.442C79.2851 21.2087 78.8581 21.092 78.2374 21.092H77.8454C77.2294 21.092 76.7138 21.1737 76.2984 21.337C75.8831 21.4957 75.6451 21.7477 75.5844 22.093V26.482C75.5844 26.8273 75.4141 27 75.0734 27ZM83.9079 18.873C83.5065 18.873 83.3059 18.6677 83.3059 18.257V17.879C83.3059 17.4777 83.5065 17.277 83.9079 17.277H84.2859C84.6732 17.277 84.8669 17.4777 84.8669 17.879V18.257C84.8669 18.6677 84.6732 18.873 84.2859 18.873H83.9079ZM84.0969 27C83.7515 27 83.5789 26.8273 83.5789 26.482V20.574C83.5789 20.2333 83.7515 20.063 84.0969 20.063C84.4375 20.063 84.6079 20.2333 84.6079 20.574V26.482C84.6079 26.8273 84.4375 27 84.0969 27ZM90.3187 27C89.418 27 88.7553 26.7877 88.3307 26.363C87.906 25.9383 87.6937 25.278 87.6937 24.382V21.092H86.9587C86.6133 21.092 86.4407 20.9193 86.4407 20.574C86.4407 20.2333 86.6133 20.063 86.9587 20.063H87.6937V18.88C87.6937 18.5347 87.864 18.362 88.2047 18.362C88.55 18.362 88.7227 18.5347 88.7227 18.88V20.063H90.3817C90.7223 20.063 90.8927 20.2333 90.8927 20.574C90.8927 20.9193 90.7223 21.092 90.3817 21.092H88.7227V24.382C88.7227 24.998 88.8347 25.418 89.0587 25.642C89.2873 25.8613 89.7073 25.971 90.3187 25.971C90.4867 25.971 90.615 26.013 90.7037 26.097C90.7923 26.1763 90.8367 26.3047 90.8367 26.482C90.8367 26.8273 90.664 27 90.3187 27ZM93.3415 18.873C92.9401 18.873 92.7395 18.6677 92.7395 18.257V17.879C92.7395 17.4777 92.9401 17.277 93.3415 17.277H93.7195C94.1068 17.277 94.3005 17.4777 94.3005 17.879V18.257C94.3005 18.6677 94.1068 18.873 93.7195 18.873H93.3415ZM93.5305 27C93.1851 27 93.0125 26.8273 93.0125 26.482V20.574C93.0125 20.2333 93.1851 20.063 93.5305 20.063C93.8711 20.063 94.0415 20.2333 94.0415 20.574V26.482C94.0415 26.8273 93.8711 27 93.5305 27ZM97.5963 23.948V24.34C97.5963 24.9607 97.7129 25.3877 97.9463 25.621C98.1796 25.8543 98.6113 25.971 99.2413 25.971H100.389C100.903 25.971 101.278 25.9173 101.516 25.81C101.759 25.698 101.915 25.5043 101.985 25.229C102.023 25.075 102.081 24.956 102.16 24.872C102.244 24.788 102.368 24.746 102.531 24.746C102.704 24.746 102.835 24.7927 102.923 24.886C103.012 24.9747 103.042 25.1053 103.014 25.278C102.926 25.8613 102.662 26.2953 102.223 26.58C101.789 26.86 101.178 27 100.389 27H99.2413C98.3313 27 97.6569 26.783 97.2183 26.349C96.7843 25.915 96.5673 25.2453 96.5673 24.34V22.73C96.5673 21.806 96.7843 21.1293 97.2183 20.7C97.6569 20.266 98.3313 20.0537 99.2413 20.063H100.389C101.299 20.063 101.971 20.28 102.405 20.714C102.839 21.1433 103.056 21.8153 103.056 22.73V23.43C103.056 23.7753 102.886 23.948 102.545 23.948H97.5963ZM99.2413 21.092C98.6113 21.0827 98.1796 21.1947 97.9463 21.428C97.7129 21.6613 97.5963 22.0953 97.5963 22.73V22.919H102.027V22.73C102.027 22.1 101.911 21.6707 101.677 21.442C101.449 21.2087 101.019 21.092 100.389 21.092H99.2413ZM107.173 26.993C106.585 26.993 106.125 26.8717 105.794 26.629C105.463 26.3817 105.255 26.0107 105.171 25.516C105.143 25.348 105.176 25.215 105.269 25.117C105.367 25.019 105.502 24.97 105.675 24.97C105.838 24.97 105.957 25.012 106.032 25.096C106.111 25.18 106.174 25.306 106.221 25.474C106.272 25.6653 106.37 25.796 106.515 25.866C106.66 25.9313 106.879 25.964 107.173 25.964H109.469C109.856 25.964 110.118 25.8987 110.253 25.768C110.393 25.6327 110.463 25.3667 110.463 24.97C110.463 24.5733 110.393 24.3073 110.253 24.172C110.118 24.0367 109.856 23.969 109.469 23.969H107.208C106.559 23.969 106.072 23.808 105.745 23.486C105.418 23.1593 105.255 22.6717 105.255 22.023C105.255 21.3603 105.414 20.868 105.731 20.546C106.053 20.2193 106.545 20.056 107.208 20.056H109.399C110.482 20.056 111.109 20.5203 111.282 21.449C111.31 21.6217 111.275 21.7547 111.177 21.848C111.084 21.9413 110.951 21.988 110.778 21.988C110.619 21.988 110.5 21.946 110.421 21.862C110.342 21.778 110.281 21.659 110.239 21.505C110.192 21.3417 110.104 21.232 109.973 21.176C109.847 21.1153 109.656 21.085 109.399 21.085H107.208C106.835 21.085 106.587 21.1457 106.466 21.267C106.345 21.3883 106.284 21.6403 106.284 22.023C106.284 22.3777 106.347 22.6203 106.473 22.751C106.604 22.877 106.849 22.94 107.208 22.94H109.469C110.15 22.94 110.657 23.108 110.988 23.444C111.324 23.78 111.492 24.2887 111.492 24.97C111.492 25.6513 111.324 26.16 110.988 26.496C110.657 26.8273 110.15 26.993 109.469 26.993H107.173Z" fill="white"/>
</svg>
