<svg width="70" height="44" viewBox="0 0 70 44" fill="none" xmlns="http://www.w3.org/2000/svg">
<path d="M23.943 18.186C24.1163 18.186 24.2507 18.2337 24.346 18.329C24.4413 18.4243 24.489 18.5587 24.489 18.732V26.454C24.489 26.6273 24.4413 26.7617 24.346 26.857C24.2507 26.9523 24.1163 27 23.943 27C23.839 27 23.7437 26.974 23.657 26.922C23.5703 26.87 23.4837 26.7877 23.397 26.675L18.444 20.292V26.454C18.444 26.6273 18.3963 26.7617 18.301 26.857C18.2057 26.9523 18.0713 27 17.898 27C17.7247 27 17.5903 26.9523 17.495 26.857C17.3997 26.7617 17.352 26.6273 17.352 26.454V18.732C17.352 18.5587 17.3997 18.4243 17.495 18.329C17.5903 18.2337 17.7247 18.186 17.898 18.186C18.002 18.186 18.093 18.212 18.171 18.264C18.2577 18.316 18.3487 18.3983 18.444 18.511L23.397 24.894V18.732C23.397 18.5587 23.4447 18.4243 23.54 18.329C23.6353 18.2337 23.7697 18.186 23.943 18.186ZM32.4039 25.908C32.5772 25.908 32.7115 25.9557 32.8069 26.051C32.9022 26.1463 32.9499 26.2807 32.9499 26.454C32.9499 26.6273 32.9022 26.7617 32.8069 26.857C32.7115 26.9523 32.5772 27 32.4039 27H27.7369C27.5635 27 27.4292 26.9523 27.3339 26.857C27.2385 26.7617 27.1909 26.6273 27.1909 26.454V18.732C27.1909 18.5587 27.2385 18.4243 27.3339 18.329C27.4292 18.2337 27.5635 18.186 27.7369 18.186H32.4039C32.5772 18.186 32.7115 18.2337 32.8069 18.329C32.9022 18.4243 32.9499 18.5587 32.9499 18.732C32.9499 18.9053 32.9022 19.0397 32.8069 19.135C32.7115 19.2303 32.5772 19.278 32.4039 19.278H28.2829V22.008H30.8699C31.0432 22.008 31.1775 22.0557 31.2729 22.151C31.3682 22.2463 31.4159 22.3807 31.4159 22.554C31.4159 22.7273 31.3682 22.8617 31.2729 22.957C31.1775 23.0523 31.0432 23.1 30.8699 23.1H28.2829V25.908H32.4039ZM44.6829 18.238C44.9169 18.3507 45.0339 18.5023 45.0339 18.693C45.0339 18.7623 45.0209 18.836 44.9949 18.914L42.5899 26.532C42.5292 26.688 42.4555 26.805 42.3689 26.883C42.2822 26.961 42.1652 27 42.0179 27H41.9919C41.7145 27 41.5239 26.844 41.4199 26.532L39.4179 20.071L39.4309 20.331L37.5069 26.532C37.4462 26.6967 37.3725 26.818 37.2859 26.896C37.2079 26.9653 37.0909 27 36.9349 27C36.8049 27 36.7009 26.9653 36.6229 26.896C36.5449 26.818 36.4799 26.6967 36.4279 26.532L34.0229 18.914C33.9969 18.8187 33.9839 18.7407 33.9839 18.68C33.9839 18.5847 34.0099 18.5023 34.0619 18.433C34.1225 18.3637 34.2135 18.2987 34.3349 18.238C34.4389 18.1947 34.5255 18.173 34.5949 18.173C34.8029 18.173 34.9545 18.3117 35.0499 18.589L37.0259 24.868L38.8979 18.654C38.9499 18.498 39.0235 18.381 39.1189 18.303C39.2229 18.225 39.3572 18.186 39.5219 18.186C39.8252 18.1947 40.0245 18.3507 40.1199 18.654L41.9919 24.868L43.9679 18.589C44.0545 18.3203 44.2062 18.186 44.4229 18.186C44.4749 18.186 44.5615 18.2033 44.6829 18.238ZM48.507 27C47.7617 27 47.181 26.8527 46.765 26.558C46.3577 26.2547 46.102 25.791 45.998 25.167C45.9807 24.985 46.0197 24.8463 46.115 24.751C46.2103 24.647 46.349 24.595 46.531 24.595C46.7043 24.595 46.8343 24.6383 46.921 24.725C47.0077 24.803 47.0683 24.9373 47.103 25.128C47.1637 25.4227 47.298 25.6263 47.506 25.739C47.7227 25.8517 48.0563 25.908 48.507 25.908H50.379C50.7603 25.908 51.0507 25.8647 51.25 25.778C51.458 25.6913 51.6053 25.5483 51.692 25.349C51.7787 25.141 51.822 24.8507 51.822 24.478C51.822 23.9233 51.718 23.542 51.51 23.334C51.302 23.126 50.925 23.022 50.379 23.022H48.767C47.9523 23.022 47.3457 22.8227 46.947 22.424C46.5483 22.0253 46.349 21.4143 46.349 20.591C46.349 19.7763 46.544 19.174 46.934 18.784C47.3327 18.3853 47.9393 18.186 48.754 18.186H50.301C51.6703 18.186 52.459 18.758 52.667 19.902C52.693 20.084 52.6583 20.227 52.563 20.331C52.4677 20.4263 52.3247 20.474 52.134 20.474C51.9607 20.474 51.8307 20.4307 51.744 20.344C51.6573 20.2573 51.601 20.123 51.575 19.941C51.5057 19.6897 51.3757 19.5163 51.185 19.421C50.9943 19.3257 50.6997 19.278 50.301 19.278H48.754C48.3987 19.278 48.1257 19.317 47.935 19.395C47.753 19.473 47.623 19.6073 47.545 19.798C47.4757 19.98 47.441 20.2443 47.441 20.591C47.441 20.9463 47.48 21.2193 47.558 21.41C47.636 21.592 47.766 21.7263 47.948 21.813C48.1387 21.891 48.4117 21.93 48.767 21.93H50.379C51.237 21.93 51.874 22.138 52.29 22.554C52.706 22.97 52.914 23.6113 52.914 24.478C52.914 25.336 52.706 25.973 52.29 26.389C51.874 26.7963 51.237 27 50.379 27H48.507Z" fill="white"/>
</svg>
