<svg width="115" height="44" viewBox="0 0 115 44" fill="none" xmlns="http://www.w3.org/2000/svg">
<path d="M19.952 27C18.9553 27 18.2187 26.766 17.742 26.298C17.274 25.8213 17.04 25.0847 17.04 24.088V21.098C17.04 20.1013 17.274 19.3647 17.742 18.888C18.2187 18.4113 18.951 18.1773 19.939 18.186H21.512C22.3267 18.186 22.9463 18.355 23.371 18.693C23.8043 19.031 24.0557 19.5597 24.125 20.279C24.151 20.461 24.1163 20.5997 24.021 20.695C23.9257 20.7903 23.787 20.838 23.605 20.838C23.4317 20.838 23.2973 20.7947 23.202 20.708C23.1153 20.6127 23.059 20.474 23.033 20.292C22.9897 19.902 22.8553 19.6377 22.63 19.499C22.4047 19.3517 22.032 19.278 21.512 19.278H19.939C19.471 19.2693 19.107 19.3213 18.847 19.434C18.587 19.5467 18.4007 19.733 18.288 19.993C18.184 20.253 18.132 20.6213 18.132 21.098V24.088C18.132 24.5647 18.1883 24.933 18.301 25.193C18.4137 25.4443 18.5957 25.6263 18.847 25.739C19.107 25.8517 19.4753 25.908 19.952 25.908H21.512C22.032 25.908 22.4047 25.8387 22.63 25.7C22.8553 25.5527 22.9897 25.284 23.033 24.894C23.059 24.712 23.1153 24.5777 23.202 24.491C23.2973 24.3957 23.4317 24.348 23.605 24.348C23.787 24.348 23.9257 24.3957 24.021 24.491C24.1163 24.5863 24.151 24.725 24.125 24.907C24.0557 25.6263 23.8043 26.155 23.371 26.493C22.9463 26.831 22.3267 27 21.512 27H19.952ZM29.0038 27C28.0071 27 27.2704 26.766 26.7938 26.298C26.3258 25.8213 26.0918 25.0847 26.0918 24.088V21.085C26.0918 20.0883 26.3301 19.356 26.8068 18.888C27.2834 18.4113 28.0158 18.1773 29.0038 18.186H30.5638C31.5604 18.186 32.2928 18.4243 32.7608 18.901C33.2374 19.369 33.4758 20.1013 33.4758 21.098V24.088C33.4758 25.0847 33.2374 25.8213 32.7608 26.298C32.2928 26.766 31.5604 27 30.5638 27H29.0038ZM30.5638 25.908C31.0404 25.908 31.4044 25.8517 31.6558 25.739C31.9158 25.6263 32.1021 25.4443 32.2148 25.193C32.3274 24.933 32.3838 24.5647 32.3838 24.088V21.098C32.3838 20.63 32.3274 20.266 32.2148 20.006C32.1021 19.746 31.9158 19.5597 31.6558 19.447C31.3958 19.3343 31.0318 19.278 30.5638 19.278H29.0038C28.5358 19.2693 28.1718 19.3213 27.9118 19.434C27.6518 19.5467 27.4654 19.733 27.3528 19.993C27.2401 20.253 27.1838 20.617 27.1838 21.085V24.088C27.1838 24.5647 27.2401 24.933 27.3528 25.193C27.4654 25.4443 27.6474 25.6263 27.8988 25.739C28.1588 25.8517 28.5271 25.908 29.0038 25.908H30.5638ZM42.4528 18.186C42.6261 18.186 42.7604 18.2337 42.8558 18.329C42.9511 18.4243 42.9988 18.5587 42.9988 18.732V26.454C42.9988 26.6273 42.9511 26.7617 42.8558 26.857C42.7604 26.9523 42.6261 27 42.4528 27C42.3488 27 42.2534 26.974 42.1668 26.922C42.0801 26.87 41.9934 26.7877 41.9068 26.675L36.9538 20.292V26.454C36.9538 26.6273 36.9061 26.7617 36.8108 26.857C36.7154 26.9523 36.5811 27 36.4078 27C36.2344 27 36.1001 26.9523 36.0048 26.857C35.9094 26.7617 35.8618 26.6273 35.8618 26.454V18.732C35.8618 18.5587 35.9094 18.4243 36.0048 18.329C36.1001 18.2337 36.2344 18.186 36.4078 18.186C36.5118 18.186 36.6028 18.212 36.6808 18.264C36.7674 18.316 36.8584 18.3983 36.9538 18.511L41.9068 24.894V18.732C41.9068 18.5587 41.9544 18.4243 42.0498 18.329C42.1451 18.2337 42.2794 18.186 42.4528 18.186ZM48.3396 27C47.9756 27 47.7936 26.818 47.7936 26.454V19.291H45.2716C44.9076 19.291 44.7256 19.109 44.7256 18.745C44.7256 18.381 44.9076 18.199 45.2716 18.199H51.4076C51.7716 18.199 51.9536 18.381 51.9536 18.745C51.9536 19.109 51.7716 19.291 51.4076 19.291H48.8856V26.454C48.8856 26.6273 48.838 26.7617 48.7426 26.857C48.6473 26.9523 48.513 27 48.3396 27ZM59.731 21.033C59.731 21.7177 59.5707 22.268 59.25 22.684C58.9293 23.1 58.4657 23.3557 57.859 23.451L59.562 26.285C59.614 26.3717 59.64 26.467 59.64 26.571C59.64 26.7617 59.5447 26.9133 59.354 27.026C59.2413 27.0953 59.1417 27.13 59.055 27.13C58.8817 27.13 58.7343 27.0347 58.613 26.844L56.637 23.555L56.598 23.49H54.778V26.454C54.778 26.6273 54.7303 26.7617 54.635 26.857C54.5397 26.9523 54.4053 27 54.232 27C54.0587 27 53.9243 26.9523 53.829 26.857C53.7337 26.7617 53.686 26.6273 53.686 26.454V18.732C53.686 18.5587 53.7337 18.4243 53.829 18.329C53.9243 18.2337 54.0587 18.186 54.232 18.186H57.274C58.0713 18.186 58.678 18.3983 59.094 18.823C59.5187 19.239 59.731 19.8457 59.731 20.643V21.033ZM58.639 20.643C58.639 20.1577 58.535 19.811 58.327 19.603C58.119 19.3863 57.768 19.278 57.274 19.278H54.778V22.398H57.274C57.768 22.398 58.119 22.294 58.327 22.086C58.535 21.878 58.639 21.527 58.639 21.033V20.643ZM62.357 27C62.1663 27 62.0277 26.9567 61.941 26.87C61.8543 26.7833 61.811 26.6447 61.811 26.454V18.745C61.811 18.5543 61.8543 18.4157 61.941 18.329C62.0277 18.2423 62.1663 18.199 62.357 18.199C62.5477 18.199 62.6863 18.2423 62.773 18.329C62.8597 18.4157 62.903 18.5543 62.903 18.745V26.454C62.903 26.6447 62.8597 26.7833 62.773 26.87C62.6863 26.9567 62.5477 27 62.357 27ZM71.1449 21.995C71.8295 22.3937 72.1719 23.1 72.1719 24.114V24.556C72.1719 25.3533 71.9595 25.96 71.5349 26.376C71.1189 26.792 70.5122 27 69.7149 27H66.1529C65.9795 27 65.8452 26.9523 65.7499 26.857C65.6545 26.7617 65.6069 26.6273 65.6069 26.454V18.732C65.6069 18.5587 65.6545 18.4243 65.7499 18.329C65.8452 18.2337 65.9795 18.186 66.1529 18.186H69.5459C70.2305 18.186 70.7592 18.368 71.1319 18.732C71.5045 19.096 71.6909 19.616 71.6909 20.292V20.643C71.6909 20.9203 71.6432 21.176 71.5479 21.41C71.4525 21.644 71.3182 21.839 71.1449 21.995ZM66.6989 21.683H69.7149H69.9489C70.1742 21.657 70.3389 21.553 70.4429 21.371C70.5469 21.1803 70.5989 20.9377 70.5989 20.643V20.292C70.5989 19.9193 70.5209 19.6593 70.3649 19.512C70.2089 19.356 69.9359 19.278 69.5459 19.278H66.6989V21.683ZM71.0799 24.114C71.0799 23.6287 70.9759 23.2863 70.7679 23.087C70.5599 22.879 70.2089 22.775 69.7149 22.775H66.6989V25.908H69.7149C70.2002 25.908 70.5469 25.804 70.7549 25.596C70.9715 25.388 71.0799 25.0413 71.0799 24.556V24.114ZM77.136 27C76.1393 27 75.4026 26.766 74.926 26.298C74.458 25.8213 74.224 25.0847 74.224 24.088V18.732C74.224 18.368 74.406 18.186 74.77 18.186C75.134 18.186 75.316 18.368 75.316 18.732V24.088C75.316 24.5647 75.3723 24.933 75.485 25.193C75.5976 25.4443 75.7796 25.6263 76.031 25.739C76.291 25.8517 76.6593 25.908 77.136 25.908H78.696C79.1726 25.908 79.5366 25.8517 79.788 25.739C80.048 25.6263 80.2343 25.4443 80.347 25.193C80.4596 24.933 80.516 24.5647 80.516 24.088V18.732C80.516 18.368 80.698 18.186 81.062 18.186C81.426 18.186 81.608 18.368 81.608 18.732V24.088C81.608 25.0847 81.3696 25.8213 80.893 26.298C80.425 26.766 79.6926 27 78.696 27H77.136ZM86.8191 27C86.4551 27 86.2731 26.818 86.2731 26.454V19.291H83.7511C83.3871 19.291 83.2051 19.109 83.2051 18.745C83.2051 18.381 83.3871 18.199 83.7511 18.199H89.8871C90.2511 18.199 90.4331 18.381 90.4331 18.745C90.4331 19.109 90.2511 19.291 89.8871 19.291H87.3651V26.454C87.3651 26.6273 87.3175 26.7617 87.2221 26.857C87.1268 26.9523 86.9925 27 86.8191 27ZM97.3785 25.908C97.5518 25.908 97.6861 25.9557 97.7815 26.051C97.8768 26.1463 97.9245 26.2807 97.9245 26.454C97.9245 26.6273 97.8768 26.7617 97.7815 26.857C97.6861 26.9523 97.5518 27 97.3785 27H92.7115C92.5381 27 92.4038 26.9523 92.3085 26.857C92.2131 26.7617 92.1655 26.6273 92.1655 26.454V18.732C92.1655 18.5587 92.2131 18.4243 92.3085 18.329C92.4038 18.2337 92.5381 18.186 92.7115 18.186H97.3785C97.5518 18.186 97.6861 18.2337 97.7815 18.329C97.8768 18.4243 97.9245 18.5587 97.9245 18.732C97.9245 18.9053 97.8768 19.0397 97.7815 19.135C97.6861 19.2303 97.5518 19.278 97.3785 19.278H93.2575V22.008H95.8445C96.0178 22.008 96.1521 22.0557 96.2475 22.151C96.3428 22.2463 96.3905 22.3807 96.3905 22.554C96.3905 22.7273 96.3428 22.8617 96.2475 22.957C96.1521 23.0523 96.0178 23.1 95.8445 23.1H93.2575V25.908H97.3785Z" fill="white"/>
</svg>
