<svg width="89" height="44" viewBox="0 0 89 44" fill="none" xmlns="http://www.w3.org/2000/svg">
<path d="M17.925 27C17.5797 27 17.407 26.8273 17.407 26.482V18.18C17.407 17.8347 17.5797 17.662 17.925 17.662H21.201C22.0363 17.662 22.6733 17.8837 23.112 18.327C23.5507 18.7657 23.77 19.4027 23.77 20.238V20.658C23.77 21.4933 23.5507 22.1303 23.112 22.569C22.6733 23.0077 22.0363 23.227 21.201 23.227H18.436V26.482C18.436 26.8273 18.2657 27 17.925 27ZM18.436 22.198H21.201C21.7517 22.198 22.146 22.079 22.384 21.841C22.622 21.603 22.741 21.2087 22.741 20.658V20.238C22.741 19.6873 22.622 19.293 22.384 19.055C22.146 18.8123 21.7517 18.691 21.201 18.691H18.436V22.198ZM25.9914 27C25.6461 27 25.4734 26.8273 25.4734 26.482V20.574C25.4734 20.2333 25.6461 20.063 25.9914 20.063C26.3321 20.063 26.5024 20.2333 26.5024 20.574V21.302C26.7684 20.896 27.1184 20.588 27.5524 20.378C27.9911 20.168 28.4997 20.063 29.0784 20.063C29.4237 20.063 29.5964 20.2333 29.5964 20.574C29.5964 20.9193 29.4237 21.092 29.0784 21.092C28.2617 21.092 27.6364 21.2553 27.2024 21.582C26.7684 21.904 26.5351 22.345 26.5024 22.905V26.482C26.5024 26.8273 26.3321 27 25.9914 27ZM33.3292 27C32.4192 27 31.7448 26.783 31.3062 26.349C30.8722 25.915 30.6552 25.2453 30.6552 24.34V22.73C30.6552 21.8107 30.8722 21.1363 31.3062 20.707C31.7448 20.273 32.4192 20.0583 33.3292 20.063H34.4772C35.3872 20.063 36.0592 20.28 36.4932 20.714C36.9272 21.148 37.1442 21.82 37.1442 22.73V24.326C37.1442 25.236 36.9272 25.9103 36.4932 26.349C36.0592 26.783 35.3872 27 34.4772 27H33.3292ZM31.6842 24.34C31.6842 24.9607 31.8008 25.3877 32.0342 25.621C32.2675 25.8543 32.6992 25.971 33.3292 25.971H34.4772C35.1072 25.971 35.5365 25.8543 35.7652 25.621C35.9985 25.3877 36.1152 24.956 36.1152 24.326V22.73C36.1152 22.1 35.9985 21.6707 35.7652 21.442C35.5365 21.2087 35.1072 21.092 34.4772 21.092H33.3292C32.9092 21.092 32.5802 21.141 32.3422 21.239C32.1042 21.337 31.9338 21.505 31.8312 21.743C31.7332 21.981 31.6842 22.31 31.6842 22.73V24.34ZM40.0078 18.873C39.6065 18.873 39.4058 18.6677 39.4058 18.257V17.879C39.4058 17.4777 39.6065 17.277 40.0078 17.277H40.3858C40.7731 17.277 40.9668 17.4777 40.9668 17.879V18.257C40.9668 18.6677 40.7731 18.873 40.3858 18.873H40.0078ZM38.6428 29.8C38.4701 29.8 38.3418 29.7557 38.2578 29.667C38.1738 29.5783 38.1318 29.45 38.1318 29.282C38.1318 29.114 38.1761 28.9857 38.2648 28.897C38.3535 28.813 38.4795 28.771 38.6428 28.771C39.0441 28.771 39.3148 28.6987 39.4548 28.554C39.5948 28.414 39.6648 28.1433 39.6648 27.742V20.574C39.6648 20.2333 39.8375 20.063 40.1828 20.063C40.5235 20.063 40.6938 20.2333 40.6938 20.574V27.742C40.6938 28.442 40.5258 28.96 40.1898 29.296C39.8585 29.632 39.3428 29.8 38.6428 29.8ZM44.2486 23.948V24.34C44.2486 24.9607 44.3653 25.3877 44.5986 25.621C44.8319 25.8543 45.2636 25.971 45.8936 25.971H47.0416C47.5549 25.971 47.9306 25.9173 48.1686 25.81C48.4113 25.698 48.5676 25.5043 48.6376 25.229C48.6749 25.075 48.7333 24.956 48.8126 24.872C48.8966 24.788 49.0203 24.746 49.1836 24.746C49.3563 24.746 49.4869 24.7927 49.5756 24.886C49.6643 24.9747 49.6946 25.1053 49.6666 25.278C49.5779 25.8613 49.3143 26.2953 48.8756 26.58C48.4416 26.86 47.8303 27 47.0416 27H45.8936C44.9836 27 44.3093 26.783 43.8706 26.349C43.4366 25.915 43.2196 25.2453 43.2196 24.34V22.73C43.2196 21.806 43.4366 21.1293 43.8706 20.7C44.3093 20.266 44.9836 20.0537 45.8936 20.063H47.0416C47.9516 20.063 48.6236 20.28 49.0576 20.714C49.4916 21.1433 49.7086 21.8153 49.7086 22.73V23.43C49.7086 23.7753 49.5383 23.948 49.1976 23.948H44.2486ZM45.8936 21.092C45.2636 21.0827 44.8319 21.1947 44.5986 21.428C44.3653 21.6613 44.2486 22.0953 44.2486 22.73V22.919H48.6796V22.73C48.6796 22.1 48.5629 21.6707 48.3296 21.442C48.1009 21.2087 47.6716 21.092 47.0416 21.092H45.8936ZM54.6163 27C53.7063 27 53.0319 26.783 52.5933 26.349C52.1593 25.9103 51.9423 25.236 51.9423 24.326V22.716C51.9423 21.806 52.1569 21.134 52.5863 20.7C53.0203 20.266 53.6969 20.0537 54.6163 20.063H55.7643C56.4549 20.063 56.9939 20.1797 57.3813 20.413C57.7686 20.6463 58.0113 21.0057 58.1093 21.491C58.1419 21.6637 58.1093 21.7967 58.0113 21.89C57.9179 21.9833 57.7826 22.03 57.6053 22.03C57.4466 22.03 57.3299 21.9903 57.2553 21.911C57.1806 21.827 57.1153 21.7103 57.0593 21.561C56.9939 21.3883 56.8609 21.267 56.6603 21.197C56.4643 21.127 56.1656 21.092 55.7643 21.092H54.6163C53.9909 21.0827 53.5593 21.1947 53.3213 21.428C53.0879 21.6567 52.9713 22.086 52.9713 22.716V24.326C52.9713 24.956 53.0879 25.3877 53.3213 25.621C53.5593 25.8543 53.9909 25.971 54.6163 25.971H55.7643C56.1656 25.971 56.4643 25.936 56.6603 25.866C56.8609 25.796 56.9939 25.6723 57.0593 25.495C57.1153 25.341 57.1806 25.2243 57.2553 25.145C57.3299 25.0657 57.4489 25.026 57.6123 25.026C57.7849 25.026 57.9179 25.075 58.0113 25.173C58.1093 25.2663 58.1419 25.397 58.1093 25.565C58.0113 26.0503 57.7686 26.412 57.3813 26.65C56.9939 26.8833 56.4549 27 55.7643 27H54.6163ZM63.3988 27C62.4981 27 61.8354 26.7877 61.4108 26.363C60.9861 25.9383 60.7738 25.278 60.7738 24.382V21.092H60.0388C59.6934 21.092 59.5208 20.9193 59.5208 20.574C59.5208 20.2333 59.6934 20.063 60.0388 20.063H60.7738V18.88C60.7738 18.5347 60.9441 18.362 61.2848 18.362C61.6301 18.362 61.8028 18.5347 61.8028 18.88V20.063H63.4618C63.8024 20.063 63.9728 20.2333 63.9728 20.574C63.9728 20.9193 63.8024 21.092 63.4618 21.092H61.8028V24.382C61.8028 24.998 61.9148 25.418 62.1388 25.642C62.3674 25.8613 62.7874 25.971 63.3988 25.971C63.5668 25.971 63.6951 26.013 63.7838 26.097C63.8724 26.1763 63.9168 26.3047 63.9168 26.482C63.9168 26.8273 63.7441 27 63.3988 27ZM67.6885 26.993C67.1005 26.993 66.6409 26.8717 66.3095 26.629C65.9782 26.3817 65.7705 26.0107 65.6865 25.516C65.6585 25.348 65.6912 25.215 65.7845 25.117C65.8825 25.019 66.0179 24.97 66.1905 24.97C66.3539 24.97 66.4729 25.012 66.5475 25.096C66.6269 25.18 66.6899 25.306 66.7365 25.474C66.7879 25.6653 66.8859 25.796 67.0305 25.866C67.1752 25.9313 67.3945 25.964 67.6885 25.964H69.9845C70.3719 25.964 70.6332 25.8987 70.7685 25.768C70.9085 25.6327 70.9785 25.3667 70.9785 24.97C70.9785 24.5733 70.9085 24.3073 70.7685 24.172C70.6332 24.0367 70.3719 23.969 69.9845 23.969H67.7235C67.0749 23.969 66.5872 23.808 66.2605 23.486C65.9339 23.1593 65.7705 22.6717 65.7705 22.023C65.7705 21.3603 65.9292 20.868 66.2465 20.546C66.5685 20.2193 67.0609 20.056 67.7235 20.056H69.9145C70.9972 20.056 71.6249 20.5203 71.7975 21.449C71.8255 21.6217 71.7905 21.7547 71.6925 21.848C71.5992 21.9413 71.4662 21.988 71.2935 21.988C71.1349 21.988 71.0159 21.946 70.9365 21.862C70.8572 21.778 70.7965 21.659 70.7545 21.505C70.7079 21.3417 70.6192 21.232 70.4885 21.176C70.3625 21.1153 70.1712 21.085 69.9145 21.085H67.7235C67.3502 21.085 67.1029 21.1457 66.9815 21.267C66.8602 21.3883 66.7995 21.6403 66.7995 22.023C66.7995 22.3777 66.8625 22.6203 66.9885 22.751C67.1192 22.877 67.3642 22.94 67.7235 22.94H69.9845C70.6659 22.94 71.1722 23.108 71.5035 23.444C71.8395 23.78 72.0075 24.2887 72.0075 24.97C72.0075 25.6513 71.8395 26.16 71.5035 26.496C71.1722 26.8273 70.6659 26.993 69.9845 26.993H67.6885Z" fill="white"/>
</svg>
