<svg width="70" height="44" viewBox="0 0 70 44" fill="none" xmlns="http://www.w3.org/2000/svg">
<path d="M17.925 27C17.5797 27 17.407 26.8273 17.407 26.482V18.18C17.407 17.8347 17.5797 17.662 17.925 17.662C18.1023 17.662 18.275 17.7647 18.443 17.97L24.169 25.341H23.917V18.18C23.917 17.8347 24.0897 17.662 24.435 17.662C24.7757 17.662 24.946 17.8347 24.946 18.18V26.482C24.946 26.8273 24.7757 27 24.435 27C24.2483 27 24.0757 26.8973 23.917 26.692L18.184 19.321H18.436V26.482C18.436 26.8273 18.2657 27 17.925 27ZM28.4986 23.948V24.34C28.4986 24.9607 28.6153 25.3877 28.8486 25.621C29.0819 25.8543 29.5136 25.971 30.1436 25.971H31.2916C31.8049 25.971 32.1806 25.9173 32.4186 25.81C32.6613 25.698 32.8176 25.5043 32.8876 25.229C32.9249 25.075 32.9833 24.956 33.0626 24.872C33.1466 24.788 33.2703 24.746 33.4336 24.746C33.6063 24.746 33.7369 24.7927 33.8256 24.886C33.9143 24.9747 33.9446 25.1053 33.9166 25.278C33.8279 25.8613 33.5643 26.2953 33.1256 26.58C32.6916 26.86 32.0803 27 31.2916 27H30.1436C29.2336 27 28.5593 26.783 28.1206 26.349C27.6866 25.915 27.4696 25.2453 27.4696 24.34V22.73C27.4696 21.806 27.6866 21.1293 28.1206 20.7C28.5593 20.266 29.2336 20.0537 30.1436 20.063H31.2916C32.2016 20.063 32.8736 20.28 33.3076 20.714C33.7416 21.1433 33.9586 21.8153 33.9586 22.73V23.43C33.9586 23.7753 33.7883 23.948 33.4476 23.948H28.4986ZM30.1436 21.092C29.5136 21.0827 29.0819 21.1947 28.8486 21.428C28.6153 21.6613 28.4986 22.0953 28.4986 22.73V22.919H32.9296V22.73C32.9296 22.1 32.8129 21.6707 32.5796 21.442C32.3509 21.2087 31.9216 21.092 31.2916 21.092H30.1436ZM37.7738 27C37.4938 27 37.3095 26.86 37.2208 26.58L35.2608 20.742C35.1535 20.4247 35.2632 20.21 35.5898 20.098C35.9118 19.9907 36.1288 20.1003 36.2408 20.427L37.9348 25.446H37.7738L39.3768 20.462C39.4702 20.1913 39.6662 20.056 39.9648 20.056C40.2542 20.056 40.4385 20.1983 40.5178 20.483L42.0228 25.404H41.8828L43.6328 20.42C43.7542 20.0887 43.9735 19.9813 44.2908 20.098C44.6175 20.2147 44.7202 20.4363 44.5988 20.763L42.4638 26.58C42.3612 26.86 42.1652 27 41.8758 27C41.5772 27 41.3858 26.8577 41.3018 26.573L39.8108 21.666H39.9578L38.3268 26.58C38.2848 26.7247 38.2148 26.832 38.1168 26.902C38.0188 26.9673 37.9045 27 37.7738 27ZM48.0831 26.993C47.4951 26.993 47.0354 26.8717 46.7041 26.629C46.3727 26.3817 46.1651 26.0107 46.0811 25.516C46.0531 25.348 46.0857 25.215 46.1791 25.117C46.2771 25.019 46.4124 24.97 46.5851 24.97C46.7484 24.97 46.8674 25.012 46.9421 25.096C47.0214 25.18 47.0844 25.306 47.1311 25.474C47.1824 25.6653 47.2804 25.796 47.4251 25.866C47.5697 25.9313 47.7891 25.964 48.0831 25.964H50.3791C50.7664 25.964 51.0277 25.8987 51.1631 25.768C51.3031 25.6327 51.3731 25.3667 51.3731 24.97C51.3731 24.5733 51.3031 24.3073 51.1631 24.172C51.0277 24.0367 50.7664 23.969 50.3791 23.969H48.1181C47.4694 23.969 46.9817 23.808 46.6551 23.486C46.3284 23.1593 46.1651 22.6717 46.1651 22.023C46.1651 21.3603 46.3237 20.868 46.6411 20.546C46.9631 20.2193 47.4554 20.056 48.1181 20.056H50.3091C51.3917 20.056 52.0194 20.5203 52.1921 21.449C52.2201 21.6217 52.1851 21.7547 52.0871 21.848C51.9937 21.9413 51.8607 21.988 51.6881 21.988C51.5294 21.988 51.4104 21.946 51.3311 21.862C51.2517 21.778 51.1911 21.659 51.1491 21.505C51.1024 21.3417 51.0137 21.232 50.8831 21.176C50.7571 21.1153 50.5657 21.085 50.3091 21.085H48.1181C47.7447 21.085 47.4974 21.1457 47.3761 21.267C47.2547 21.3883 47.1941 21.6403 47.1941 22.023C47.1941 22.3777 47.2571 22.6203 47.3831 22.751C47.5137 22.877 47.7587 22.94 48.1181 22.94H50.3791C51.0604 22.94 51.5667 23.108 51.8981 23.444C52.2341 23.78 52.4021 24.2887 52.4021 24.97C52.4021 25.6513 52.2341 26.16 51.8981 26.496C51.5667 26.8273 51.0604 26.993 50.3791 26.993H48.0831Z" fill="white"/>
</svg>
