<svg width="100" height="44" viewBox="0 0 100 44" fill="none" xmlns="http://www.w3.org/2000/svg">
<path d="M20.94 18.186C21.7373 18.186 22.344 18.3983 22.76 18.823C23.1847 19.239 23.397 19.8457 23.397 20.643V21.033C23.397 21.8217 23.1847 22.4283 22.76 22.853C22.344 23.2777 21.7373 23.49 20.94 23.49H18.444V26.454C18.444 26.6273 18.3963 26.7617 18.301 26.857C18.2057 26.9523 18.0713 27 17.898 27C17.7247 27 17.5903 26.9523 17.495 26.857C17.3997 26.7617 17.352 26.6273 17.352 26.454V18.732C17.352 18.5587 17.3997 18.4243 17.495 18.329C17.5903 18.2337 17.7247 18.186 17.898 18.186H20.94ZM22.305 20.643C22.305 20.1577 22.201 19.811 21.993 19.603C21.785 19.3863 21.434 19.278 20.94 19.278H18.444V22.398H20.94C21.434 22.398 21.785 22.294 21.993 22.086C22.201 21.878 22.305 21.527 22.305 21.033V20.643ZM31.3697 21.033C31.3697 21.7177 31.2093 22.268 30.8887 22.684C30.568 23.1 30.1043 23.3557 29.4977 23.451L31.2007 26.285C31.2527 26.3717 31.2787 26.467 31.2787 26.571C31.2787 26.7617 31.1833 26.9133 30.9927 27.026C30.88 27.0953 30.7803 27.13 30.6937 27.13C30.5203 27.13 30.373 27.0347 30.2517 26.844L28.2757 23.555L28.2367 23.49H26.4167V26.454C26.4167 26.6273 26.369 26.7617 26.2737 26.857C26.1783 26.9523 26.044 27 25.8707 27C25.6973 27 25.563 26.9523 25.4677 26.857C25.3723 26.7617 25.3247 26.6273 25.3247 26.454V18.732C25.3247 18.5587 25.3723 18.4243 25.4677 18.329C25.563 18.2337 25.6973 18.186 25.8707 18.186H28.9127C29.71 18.186 30.3167 18.3983 30.7327 18.823C31.1573 19.239 31.3697 19.8457 31.3697 20.643V21.033ZM30.2777 20.643C30.2777 20.1577 30.1737 19.811 29.9657 19.603C29.7577 19.3863 29.4067 19.278 28.9127 19.278H26.4167V22.398H28.9127C29.4067 22.398 29.7577 22.294 29.9657 22.086C30.1737 21.878 30.2777 21.527 30.2777 21.033V20.643ZM36.0497 27C35.053 27 34.3163 26.766 33.8397 26.298C33.3717 25.8213 33.1377 25.0847 33.1377 24.088V21.085C33.1377 20.0883 33.376 19.356 33.8527 18.888C34.3293 18.4113 35.0617 18.1773 36.0497 18.186H37.6097C38.6063 18.186 39.3387 18.4243 39.8067 18.901C40.2833 19.369 40.5217 20.1013 40.5217 21.098V24.088C40.5217 25.0847 40.2833 25.8213 39.8067 26.298C39.3387 26.766 38.6063 27 37.6097 27H36.0497ZM37.6097 25.908C38.0863 25.908 38.4503 25.8517 38.7017 25.739C38.9617 25.6263 39.148 25.4443 39.2607 25.193C39.3733 24.933 39.4297 24.5647 39.4297 24.088V21.098C39.4297 20.63 39.3733 20.266 39.2607 20.006C39.148 19.746 38.9617 19.5597 38.7017 19.447C38.4417 19.3343 38.0777 19.278 37.6097 19.278H36.0497C35.5817 19.2693 35.2177 19.3213 34.9577 19.434C34.6977 19.5467 34.5113 19.733 34.3987 19.993C34.286 20.253 34.2297 20.617 34.2297 21.085V24.088C34.2297 24.5647 34.286 24.933 34.3987 25.193C34.5113 25.4443 34.6933 25.6263 34.9447 25.739C35.2047 25.8517 35.573 25.908 36.0497 25.908H37.6097ZM44.4967 27C43.682 27 43.058 26.831 42.6247 26.493C42.2 26.155 41.9487 25.6307 41.8707 24.92C41.8534 24.738 41.8924 24.5993 41.9877 24.504C42.083 24.4 42.2217 24.348 42.4037 24.348C42.7417 24.348 42.928 24.53 42.9627 24.894C43.0147 25.284 43.1534 25.5527 43.3787 25.7C43.604 25.8387 43.9767 25.908 44.4967 25.908H45.5757C45.9917 25.908 46.308 25.8647 46.5247 25.778C46.75 25.6827 46.906 25.5267 46.9927 25.31C47.088 25.0847 47.1357 24.764 47.1357 24.348V18.732C47.1357 18.368 47.3177 18.186 47.6817 18.186C47.855 18.186 47.9894 18.2337 48.0847 18.329C48.18 18.4243 48.2277 18.5587 48.2277 18.732V24.348C48.2277 25.2667 48.011 25.9383 47.5777 26.363C47.153 26.7877 46.4857 27 45.5757 27H44.4967ZM56.0171 25.908C56.1905 25.908 56.3248 25.9557 56.4201 26.051C56.5155 26.1463 56.5631 26.2807 56.5631 26.454C56.5631 26.6273 56.5155 26.7617 56.4201 26.857C56.3248 26.9523 56.1905 27 56.0171 27H51.3501C51.1768 27 51.0425 26.9523 50.9471 26.857C50.8518 26.7617 50.8041 26.6273 50.8041 26.454V18.732C50.8041 18.5587 50.8518 18.4243 50.9471 18.329C51.0425 18.2337 51.1768 18.186 51.3501 18.186H56.0171C56.1905 18.186 56.3248 18.2337 56.4201 18.329C56.5155 18.4243 56.5631 18.5587 56.5631 18.732C56.5631 18.9053 56.5155 19.0397 56.4201 19.135C56.3248 19.2303 56.1905 19.278 56.0171 19.278H51.8961V22.008H54.4831C54.6565 22.008 54.7908 22.0557 54.8861 22.151C54.9815 22.2463 55.0291 22.3807 55.0291 22.554C55.0291 22.7273 54.9815 22.8617 54.8861 22.957C54.7908 23.0523 54.6565 23.1 54.4831 23.1H51.8961V25.908H56.0171ZM60.9833 27C59.9866 27 59.2499 26.766 58.7733 26.298C58.3053 25.8213 58.0713 25.0847 58.0713 24.088V21.098C58.0713 20.1013 58.3053 19.3647 58.7733 18.888C59.2499 18.4113 59.9823 18.1773 60.9703 18.186H62.5433C63.3579 18.186 63.9776 18.355 64.4023 18.693C64.8356 19.031 65.0869 19.5597 65.1562 20.279C65.1823 20.461 65.1476 20.5997 65.0523 20.695C64.9569 20.7903 64.8183 20.838 64.6363 20.838C64.4629 20.838 64.3286 20.7947 64.2333 20.708C64.1466 20.6127 64.0903 20.474 64.0643 20.292C64.0209 19.902 63.8866 19.6377 63.6613 19.499C63.4359 19.3517 63.0633 19.278 62.5433 19.278H60.9703C60.5023 19.2693 60.1383 19.3213 59.8783 19.434C59.6183 19.5467 59.4319 19.733 59.3193 19.993C59.2153 20.253 59.1633 20.6213 59.1633 21.098V24.088C59.1633 24.5647 59.2196 24.933 59.3323 25.193C59.4449 25.4443 59.6269 25.6263 59.8783 25.739C60.1383 25.8517 60.5066 25.908 60.9833 25.908H62.5433C63.0633 25.908 63.4359 25.8387 63.6613 25.7C63.8866 25.5527 64.0209 25.284 64.0643 24.894C64.0903 24.712 64.1466 24.5777 64.2333 24.491C64.3286 24.3957 64.4629 24.348 64.6363 24.348C64.8183 24.348 64.9569 24.3957 65.0523 24.491C65.1476 24.5863 65.1823 24.725 65.1562 24.907C65.0869 25.6263 64.8356 26.155 64.4023 26.493C63.9776 26.831 63.3579 27 62.5433 27H60.9833ZM70.074 27C69.71 27 69.528 26.818 69.528 26.454V19.291H67.006C66.642 19.291 66.46 19.109 66.46 18.745C66.46 18.381 66.642 18.199 67.006 18.199H73.142C73.506 18.199 73.688 18.381 73.688 18.745C73.688 19.109 73.506 19.291 73.142 19.291H70.62V26.454C70.62 26.6273 70.5723 26.7617 70.477 26.857C70.3817 26.9523 70.2473 27 70.074 27ZM77.6174 27C76.872 27 76.2914 26.8527 75.8754 26.558C75.468 26.2547 75.2124 25.791 75.1084 25.167C75.091 24.985 75.13 24.8463 75.2254 24.751C75.3207 24.647 75.4594 24.595 75.6414 24.595C75.8147 24.595 75.9447 24.6383 76.0314 24.725C76.118 24.803 76.1787 24.9373 76.2134 25.128C76.274 25.4227 76.4084 25.6263 76.6164 25.739C76.833 25.8517 77.1667 25.908 77.6174 25.908H79.4894C79.8707 25.908 80.161 25.8647 80.3604 25.778C80.5684 25.6913 80.7157 25.5483 80.8024 25.349C80.889 25.141 80.9324 24.8507 80.9324 24.478C80.9324 23.9233 80.8284 23.542 80.6204 23.334C80.4124 23.126 80.0354 23.022 79.4894 23.022H77.8774C77.0627 23.022 76.456 22.8227 76.0574 22.424C75.6587 22.0253 75.4594 21.4143 75.4594 20.591C75.4594 19.7763 75.6544 19.174 76.0444 18.784C76.443 18.3853 77.0497 18.186 77.8644 18.186H79.4114C80.7807 18.186 81.5694 18.758 81.7774 19.902C81.8034 20.084 81.7687 20.227 81.6734 20.331C81.578 20.4263 81.435 20.474 81.2444 20.474C81.071 20.474 80.941 20.4307 80.8544 20.344C80.7677 20.2573 80.7114 20.123 80.6854 19.941C80.616 19.6897 80.486 19.5163 80.2954 19.421C80.1047 19.3257 79.81 19.278 79.4114 19.278H77.8644C77.509 19.278 77.236 19.317 77.0454 19.395C76.8634 19.473 76.7334 19.6073 76.6554 19.798C76.586 19.98 76.5514 20.2443 76.5514 20.591C76.5514 20.9463 76.5904 21.2193 76.6684 21.41C76.7464 21.592 76.8764 21.7263 77.0584 21.813C77.249 21.891 77.522 21.93 77.8774 21.93H79.4894C80.3474 21.93 80.9844 22.138 81.4004 22.554C81.8164 22.97 82.0244 23.6113 82.0244 24.478C82.0244 25.336 81.8164 25.973 81.4004 26.389C80.9844 26.7963 80.3474 27 79.4894 27H77.6174Z" fill="white"/>
</svg>
