<svg width="83" height="44" viewBox="0 0 83 44" fill="none" xmlns="http://www.w3.org/2000/svg">
<path d="M22.565 25.908C22.7383 25.908 22.8727 25.9557 22.968 26.051C23.0633 26.1463 23.111 26.2807 23.111 26.454C23.111 26.6273 23.0633 26.7617 22.968 26.857C22.8727 26.9523 22.7383 27 22.565 27H17.898C17.7247 27 17.5903 26.9523 17.495 26.857C17.3997 26.7617 17.352 26.6273 17.352 26.454V18.732C17.352 18.5587 17.3997 18.4243 17.495 18.329C17.5903 18.2337 17.7247 18.186 17.898 18.186H22.565C22.7383 18.186 22.8727 18.2337 22.968 18.329C23.0633 18.4243 23.111 18.5587 23.111 18.732C23.111 18.9053 23.0633 19.0397 22.968 19.135C22.8727 19.2303 22.7383 19.278 22.565 19.278H18.444V22.008H21.031C21.2043 22.008 21.3387 22.0557 21.434 22.151C21.5293 22.2463 21.577 22.3807 21.577 22.554C21.577 22.7273 21.5293 22.8617 21.434 22.957C21.3387 23.0523 21.2043 23.1 21.031 23.1H18.444V25.908H22.565ZM27.954 27C27.7287 27 27.551 26.857 27.421 26.571L24.21 18.966C24.1667 18.8533 24.145 18.758 24.145 18.68C24.145 18.498 24.249 18.3593 24.457 18.264C24.561 18.212 24.665 18.186 24.769 18.186C24.977 18.186 25.1243 18.303 25.211 18.537L28.058 25.271L30.827 18.537C30.9223 18.303 31.0697 18.186 31.269 18.186C31.3643 18.186 31.4683 18.212 31.581 18.264C31.7803 18.3593 31.88 18.5067 31.88 18.706C31.88 18.8013 31.8627 18.888 31.828 18.966L28.591 26.571C28.4523 26.857 28.2573 27 28.006 27H27.954ZM38.7515 25.908C38.9249 25.908 39.0592 25.9557 39.1545 26.051C39.2499 26.1463 39.2975 26.2807 39.2975 26.454C39.2975 26.6273 39.2499 26.7617 39.1545 26.857C39.0592 26.9523 38.9249 27 38.7515 27H34.0845C33.9112 27 33.7769 26.9523 33.6815 26.857C33.5862 26.7617 33.5385 26.6273 33.5385 26.454V18.732C33.5385 18.5587 33.5862 18.4243 33.6815 18.329C33.7769 18.2337 33.9112 18.186 34.0845 18.186H38.7515C38.9249 18.186 39.0592 18.2337 39.1545 18.329C39.2499 18.4243 39.2975 18.5587 39.2975 18.732C39.2975 18.9053 39.2499 19.0397 39.1545 19.135C39.0592 19.2303 38.9249 19.278 38.7515 19.278H34.6305V22.008H37.2175C37.3909 22.008 37.5252 22.0557 37.6205 22.151C37.7159 22.2463 37.7635 22.3807 37.7635 22.554C37.7635 22.7273 37.7159 22.8617 37.6205 22.957C37.5252 23.0523 37.3909 23.1 37.2175 23.1H34.6305V25.908H38.7515ZM47.9625 18.186C48.1359 18.186 48.2702 18.2337 48.3655 18.329C48.4609 18.4243 48.5085 18.5587 48.5085 18.732V26.454C48.5085 26.6273 48.4609 26.7617 48.3655 26.857C48.2702 26.9523 48.1359 27 47.9625 27C47.8585 27 47.7632 26.974 47.6765 26.922C47.5899 26.87 47.5032 26.7877 47.4165 26.675L42.4635 20.292V26.454C42.4635 26.6273 42.4159 26.7617 42.3205 26.857C42.2252 26.9523 42.0909 27 41.9175 27C41.7442 27 41.6099 26.9523 41.5145 26.857C41.4192 26.7617 41.3715 26.6273 41.3715 26.454V18.732C41.3715 18.5587 41.4192 18.4243 41.5145 18.329C41.6099 18.2337 41.7442 18.186 41.9175 18.186C42.0215 18.186 42.1125 18.212 42.1905 18.264C42.2772 18.316 42.3682 18.3983 42.4635 18.511L47.4165 24.894V18.732C47.4165 18.5587 47.4642 18.4243 47.5595 18.329C47.6549 18.2337 47.7892 18.186 47.9625 18.186ZM53.8494 27C53.4854 27 53.3034 26.818 53.3034 26.454V19.291H50.7814C50.4174 19.291 50.2354 19.109 50.2354 18.745C50.2354 18.381 50.4174 18.199 50.7814 18.199H56.9174C57.2814 18.199 57.4634 18.381 57.4634 18.745C57.4634 19.109 57.2814 19.291 56.9174 19.291H54.3954V26.454C54.3954 26.6273 54.3477 26.7617 54.2524 26.857C54.1571 26.9523 54.0227 27 53.8494 27ZM61.3928 27C60.6474 27 60.0668 26.8527 59.6508 26.558C59.2434 26.2547 58.9878 25.791 58.8838 25.167C58.8664 24.985 58.9054 24.8463 59.0008 24.751C59.0961 24.647 59.2348 24.595 59.4168 24.595C59.5901 24.595 59.7201 24.6383 59.8068 24.725C59.8934 24.803 59.9541 24.9373 59.9888 25.128C60.0494 25.4227 60.1838 25.6263 60.3918 25.739C60.6084 25.8517 60.9421 25.908 61.3928 25.908H63.2648C63.6461 25.908 63.9364 25.8647 64.1358 25.778C64.3438 25.6913 64.4911 25.5483 64.5778 25.349C64.6644 25.141 64.7077 24.8507 64.7077 24.478C64.7077 23.9233 64.6038 23.542 64.3958 23.334C64.1878 23.126 63.8108 23.022 63.2648 23.022H61.6528C60.8381 23.022 60.2314 22.8227 59.8328 22.424C59.4341 22.0253 59.2348 21.4143 59.2348 20.591C59.2348 19.7763 59.4298 19.174 59.8198 18.784C60.2184 18.3853 60.8251 18.186 61.6398 18.186H63.1868C64.5561 18.186 65.3448 18.758 65.5528 19.902C65.5788 20.084 65.5441 20.227 65.4488 20.331C65.3534 20.4263 65.2104 20.474 65.0198 20.474C64.8464 20.474 64.7164 20.4307 64.6298 20.344C64.5431 20.2573 64.4868 20.123 64.4608 19.941C64.3914 19.6897 64.2614 19.5163 64.0708 19.421C63.8801 19.3257 63.5854 19.278 63.1868 19.278H61.6398C61.2844 19.278 61.0114 19.317 60.8208 19.395C60.6388 19.473 60.5088 19.6073 60.4308 19.798C60.3614 19.98 60.3268 20.2443 60.3268 20.591C60.3268 20.9463 60.3658 21.2193 60.4438 21.41C60.5218 21.592 60.6518 21.7263 60.8338 21.813C61.0244 21.891 61.2974 21.93 61.6528 21.93H63.2648C64.1228 21.93 64.7598 22.138 65.1758 22.554C65.5918 22.97 65.7998 23.6113 65.7998 24.478C65.7998 25.336 65.5918 25.973 65.1758 26.389C64.7598 26.7963 64.1228 27 63.2648 27H61.3928Z" fill="white"/>
</svg>
