<svg width="17" height="12" viewBox="0 0 17 12" fill="none" xmlns="http://www.w3.org/2000/svg">
<path d="M16.3244 2.16394C16.2397 1.83252 16.0674 1.5289 15.825 1.28379C15.5825 1.03867 15.2785 0.860756 14.9435 0.767958C12.9088 0.547878 10.8623 0.448752 8.81538 0.471114C6.765 0.446922 4.7152 0.554142 2.67904 0.792051C2.34428 0.887739 2.04076 1.0676 1.79857 1.31385C1.55637 1.56011 1.38388 1.86423 1.29816 2.19606C1.07519 3.41663 0.965776 4.65458 0.971304 5.89462C0.961534 7.14546 1.07098 8.39442 1.29816 9.62525C1.39034 9.9478 1.56597 10.2414 1.80794 10.4776C2.04991 10.7138 2.35 10.8845 2.67904 10.9731C6.75289 11.4004 10.8615 11.4004 14.9354 10.9731C15.2709 10.8789 15.5752 10.6995 15.8176 10.453C16.0601 10.2065 16.232 9.90162 16.3162 9.56908C16.7521 7.11924 16.7521 4.61378 16.3162 2.16394H16.3244ZM7.20569 8.18916V3.60806L11.2911 5.89462L7.20569 8.18916Z" fill="white"/>
</svg>
